<svg xmlns="http://www.w3.org/2000/svg" width="19.98" height="20" viewBox="0 0 19.98 20">
  <path id="chat" d="M316.233,244.2H298.985a1.366,1.366,0,0,0-1.366,1.366v17.249a1.366,1.366,0,0,0,1.366,1.366h2.732v.019h13.034v-.019h1.482a1.366,1.366,0,0,0,1.366-1.366V245.566A1.366,1.366,0,0,0,316.233,244.2Zm-3.272,11.334a5.588,5.588,0,0,1-2.249,1.607,8.008,8.008,0,0,1-3.1.59,9.427,9.427,0,0,1-1-.055,7.537,7.537,0,0,1-3.173,1.67,5.251,5.251,0,0,1-.786.151h-.034a.277.277,0,0,1-.186-.072.35.35,0,0,1-.11-.19v-.007a.089.089,0,0,1,0-.082.188.188,0,0,0,.014-.069c0-.01.008-.031.031-.066l.042-.062.048-.058a.392.392,0,0,1,.055-.062c.032-.037.1-.117.214-.238l.238-.262c.048-.053.119-.143.214-.272a2.8,2.8,0,0,0,.224-.352q.083-.158.186-.407a4.372,4.372,0,0,0,.179-.524,5.054,5.054,0,0,1-1.707-1.518,3.344,3.344,0,0,1-.624-1.938,3.44,3.44,0,0,1,.828-2.218,5.587,5.587,0,0,1,2.248-1.607,8.463,8.463,0,0,1,6.207,0,5.6,5.6,0,0,1,2.249,1.607,3.385,3.385,0,0,1,0,4.434Z" transform="translate(-297.619 -244.2)" fill="#00c3ff"/>
</svg>
