<svg xmlns="http://www.w3.org/2000/svg" width="60" height="60" viewBox="0 0 60 60">
  <path id="choose-icon6" d="M275.293,226.293,272.586,229H269a1,1,0,0,0-1,1v3.586L264.586,237H261a1,1,0,0,0-1,1v3.586L256.586,245H253a1,1,0,0,0-1,1v3.586L247.586,254h-3.419a11.954,11.954,0,0,1,5.372-8.114l-1.078-1.684A14,14,0,0,0,256,270h12.844A19,19,0,0,1,237,256h-2a20.952,20.952,0,0,0,.6,5H228V251h8a1,1,0,0,0,.924-.617l1.615-3.9a1,1,0,0,0-.217-1.09l-5.657-5.656,7.072-7.072,5.656,5.657a1,1,0,0,0,1.09.217l3.9-1.615A1,1,0,0,0,251,236v-8h10v6h2v-7a1,1,0,0,0-1-1H250a1,1,0,0,0-1,1v8.332l-2.665,1.1-5.891-5.892a1,1,0,0,0-1.415,0l-8.485,8.485a1,1,0,0,0,0,1.415l5.892,5.891-1.1,2.665H227a1,1,0,0,0-1,1v12a1,1,0,0,0,1,1h8.332l1.1,2.665-5.892,5.891a1,1,0,0,0,0,1.415l8.485,8.485a1,1,0,0,0,1.415,0l5.891-5.892,2.665,1.1V285a1,1,0,0,0,1,1h12a1,1,0,0,0,1-1v-8.332l2.665-1.1,5.891,5.892a1,1,0,0,0,1.415,0l8.485-8.485a1,1,0,0,0,0-1.415h0L279.9,270H285a1,1,0,0,0,1-1V235a1,1,0,0,0-1-1h-8a1,1,0,0,0-1,1v7h-7a1,1,0,0,0-1,1v5h-7a1,1,0,0,0-1,1v6h-7a1,1,0,0,0-1,1v4h-7.314a11.95,11.95,0,0,1-.686-4h4a1,1,0,0,0,.707-.293L253.414,251H257a1,1,0,0,0,1-1v-3.586L261.414,243H265a1,1,0,0,0,1-1v-3.586L269.414,235H273a1,1,0,0,0,1-1v-3.586L276.414,228H286v-2H276A1,1,0,0,0,275.293,226.293Zm-35.556,53.042-7.072-7.072,5.381-5.38a21.158,21.158,0,0,0,7.071,7.071ZM251,284v-7.6a20.993,20.993,0,0,0,10,0V284Zm28.335-11.737-7.072,7.072-5.379-5.38A20.98,20.98,0,0,0,271.651,270h5.42ZM278,236h6v32h-6Zm-8,8h6v24h-6Zm-8,6h6v18h-6Zm-8,7h6v11h-4a11.971,11.971,0,0,1-2-.168Zm-2,5v5.314A12.064,12.064,0,0,1,245.611,262Zm4-13h-2v-2h2Zm8-8h-2v-2h2Zm8-8h-2v-2h2Z" transform="translate(-226 -226)" fill="#00c3ff"/>
</svg>
