<svg xmlns="http://www.w3.org/2000/svg" xmlns:xlink="http://www.w3.org/1999/xlink" width="59.682" height="60" viewBox="0 0 59.682 60">
  <defs>
    <linearGradient id="linear-gradient" x1="-7.594" y1="3.44" x2="22.786" y2="3.563" gradientUnits="objectBoundingBox">
      <stop offset="0" stop-color="#03a87c"/>
      <stop offset="1" stop-color="#01592d"/>
    </linearGradient>
  </defs>
  <g id="choose-icon1" transform="translate(-226.159 -224.72)">
    <rect id="Rectangle_3125" data-name="Rectangle 3125" width="1.989" height="1.989" transform="translate(240.085 247.916)" fill="url(#linear-gradient)"/>
    <rect id="Rectangle_3126" data-name="Rectangle 3126" width="1.989" height="1.989" transform="translate(250.032 247.916)" fill="url(#linear-gradient)"/>
    <path id="Path_8298" data-name="Path 8298" d="M284.987,258.868l-3.886-.555a13.865,13.865,0,0,0-.654-1.592l2.352-3.135a1,1,0,0,0-.093-1.3l-4.22-4.22a.983.983,0,0,0-.6-.282v-9.575A7.957,7.957,0,0,0,280.867,232a7.873,7.873,0,0,0-4.549-7.185,1,1,0,0,0-1.324.474,1.007,1.007,0,0,0-.1.425v5.57l-1.989.664-1.99-.664v-5.57a.993.993,0,0,0-1.419-.895A7.874,7.874,0,0,0,264.952,232a7.957,7.957,0,0,0,2.984,6.208v6.723h-2.984a1,1,0,0,0-.985.854l-.643,4.505,1.969.281.521-3.65h4.244l.521,3.65a1,1,0,0,0,.706.814,11.86,11.86,0,0,1,2.388.982,1,1,0,0,0,1.075-.077l2.945-2.208,3,3-2.213,2.945a1,1,0,0,0-.077,1.075,11.861,11.861,0,0,1,.982,2.388,1,1,0,0,0,.814.706l3.65.521v4.243l-3.65.522a.992.992,0,0,0-.814.706,11.853,11.853,0,0,1-.982,2.387,1,1,0,0,0,.077,1.075l2.208,2.946-3,3-2.943-2.216a.993.993,0,0,0-1.075-.077,11.92,11.92,0,0,1-2.388.982.994.994,0,0,0-.706.813l-.518,3.653h-4.111v-4.207a11.052,11.052,0,0,0-.448-3.1,9.063,9.063,0,1,0-6.36-7.025c-.024-.01-.047-.022-.071-.03l-8.042-3.217V259.64a11.027,11.027,0,0,0,3.461-2.771h2.507a2.984,2.984,0,0,0,2.985-2.984v-2.173a2.983,2.983,0,0,0,1.989-2.8v-2.984a2.983,2.983,0,0,0-1.989-2.8v-1.178a13.926,13.926,0,0,0-27.852,0v1.178a2.983,2.983,0,0,0-1.989,2.8v2.984a2.984,2.984,0,0,0,2.984,2.984h1.989c.064,0,.126-.01.188-.014a10.966,10.966,0,0,0,5.78,7.759v1.529l-8.042,3.217a10.892,10.892,0,0,0-6.878,10.159v9.18a.994.994,0,0,0,1,.995h37.8a1,1,0,0,0,.995-.995v-2.984h4.973a.994.994,0,0,0,.985-.853L272.46,276a14.123,14.123,0,0,0,1.592-.654l3.135,2.352a1,1,0,0,0,1.3-.093l4.22-4.22a1,1,0,0,0,.093-1.3l-2.352-3.135a13.841,13.841,0,0,0,.654-1.591l3.886-.555a1,1,0,0,0,.853-.984v-5.968A1,1,0,0,0,284.987,258.868Zm-7.624-22.894a5.951,5.951,0,0,1-1.043.923,1,1,0,0,0-.426.814v11.233l-1.848,1.381c-.047-.022-.1-.037-.147-.059v-12.3h-1.984v7.888l-.01-.071a1,1,0,0,0-.985-.854h-.994v-7.221a1,1,0,0,0-.427-.817,5.968,5.968,0,0,1-.568-9.347V232a.994.994,0,0,0,.68.944l2.984.995a1,1,0,0,0,.629,0l2.984-.995a.993.993,0,0,0,.68-.944v-4.454A5.967,5.967,0,0,1,277.363,235.974Zm-22.358,7.964a3,3,0,0,1-2.387-1.194l-1.791-2.387a.991.991,0,0,0-.67-.39,1,1,0,0,0-.747.21l-3.338,2.666a5,5,0,0,1-3.1,1.1H237.1v-1a8.952,8.952,0,0,1,17.9,0Zm2.984,9.947a.994.994,0,0,1-1,.994h-1.207a10.856,10.856,0,0,0,1.02-3c.062,0,.124.014.187.014h1Zm1.99-7.958v2.984a1,1,0,0,1-.995,1h-1.99v-4.974h1.99A1,1,0,0,1,259.979,245.927Zm-24.868,3.979h-1.989a1,1,0,0,1-.995-1v-2.984a1,1,0,0,1,.995-.995h1.989Zm0-6.963h-.994v-.995a11.936,11.936,0,1,1,23.872,0v.995h-1a10.941,10.941,0,1,0-21.883,0Zm3.978,12.594a8.946,8.946,0,0,1-1.988-5.631v-3.979h5.868a6.984,6.984,0,0,0,4.349-1.526l2.538-2.03,1.17,1.567a5,5,0,0,0,3.979,1.989v3.979a8.891,8.891,0,0,1-1.514,4.973h-7.438v1.99h5.614A8.944,8.944,0,0,1,239.089,255.537Zm9.948,4.887v1.418a2.984,2.984,0,0,1-5.968,0v-1.418a10.737,10.737,0,0,0,5.968,0Zm14.92,22.307h-5.968V271.789H256v10.942H236.106V271.789h-1.989v10.942h-5.969v-8.186a8.91,8.91,0,0,1,5.628-8.312l7.523-3.009a4.942,4.942,0,0,0,9.507,0l7.523,3.009a8.91,8.91,0,0,1,5.628,8.312Zm.332-13.985a10.855,10.855,0,0,0-2.6-2.861,6.805,6.805,0,0,1-.718-3.048,7.014,7.014,0,1,1,3.316,5.909Z" fill="url(#linear-gradient)"/>
    <rect id="Rectangle_3127" data-name="Rectangle 3127" width="1.989" height="1.989" transform="translate(266.941 248.911)" fill="url(#linear-gradient)"/>
    <rect id="Rectangle_3128" data-name="Rectangle 3128" width="1.989" height="1.989" transform="translate(266.941 274.773)" fill="url(#linear-gradient)"/>
    <rect id="Rectangle_3129" data-name="Rectangle 3129" width="1.989" height="1.989" transform="translate(275.672 271.981) rotate(-45)" fill="url(#linear-gradient)"/>
    <rect id="Rectangle_3130" data-name="Rectangle 3130" width="1.989" height="1.989" transform="translate(279.872 261.842)" fill="url(#linear-gradient)"/>
    <rect id="Rectangle_3131" data-name="Rectangle 3131" width="1.989" height="1.989" transform="matrix(0.707, -0.707, 0.707, 0.707, 275.673, 253.694)" fill="url(#linear-gradient)"/>
  </g>
</svg>
