<svg xmlns="http://www.w3.org/2000/svg" width="67.312" height="60" viewBox="0 0 67.312 60">
  <g id="choose-icon2" transform="translate(-2128.971 -323.414)">
    <path id="Path_8388" data-name="Path 8388" d="M2195.384,362.68a.9.9,0,0,0,.9-.9V326.9a3.489,3.489,0,0,0-3.488-3.489H2132.46a3.489,3.489,0,0,0-3.489,3.489v53.022a3.489,3.489,0,0,0,3.489,3.489h60.335a3.489,3.489,0,0,0,3.488-3.489V366.584a.9.9,0,1,0-1.8,0v13.035a2.048,2.048,0,0,1-2.047,2.047h-59.621a2.048,2.048,0,0,1-2.048-2.047V337.164h2.918a.9.9,0,0,0,0-1.8h-2.918v-8.157a2.048,2.048,0,0,1,2.048-2.047h59.621a2.048,2.048,0,0,1,2.047,2.047v8.157h-56.561a.9.9,0,1,0,0,1.8h56.561v24.617A.9.9,0,0,0,2195.384,362.68Z" fill="#f76d00"/>
    <path id="Path_8389" data-name="Path 8389" d="M2135.82,331.152h33.326a.9.9,0,0,0,0-1.8H2135.82a.9.9,0,1,0,0,1.8Z" fill="#f76d00"/>
    <path id="Path_8390" data-name="Path 8390" d="M2176.8,333.835a3.446,3.446,0,0,0,3.446-3.446h0a3.446,3.446,0,0,0-3.446-3.447h-.019a3.446,3.446,0,0,0-3.446,3.447h0a3.446,3.446,0,0,0,3.446,3.446Zm-1.66-3.446a1.651,1.651,0,1,1,1.651,1.651A1.651,1.651,0,0,1,2175.137,330.389Z" fill="#f76d00"/>
    <path id="Path_8391" data-name="Path 8391" d="M2186.438,333.835a3.446,3.446,0,0,0,3.446-3.446h0a3.446,3.446,0,0,0-3.446-3.447h-.019a3.447,3.447,0,0,0-3.446,3.447h0a3.446,3.446,0,0,0,3.446,3.446Zm-1.66-3.446a1.651,1.651,0,1,1,1.651,1.651A1.651,1.651,0,0,1,2184.778,330.389Z" fill="#f76d00"/>
    <path id="Path_8392" data-name="Path 8392" d="M2189.6,348.062h-13.226v0a3.164,3.164,0,0,0-6.329,0v0h-1.82a.9.9,0,1,0,0,1.8h1.82v0a3.164,3.164,0,1,0,6.329,0v0H2189.6a.9.9,0,0,0,0-1.8Zm-15.339,1.951a1.052,1.052,0,0,1-2.1,0v-2.1a1.052,1.052,0,1,1,2.1,0Z" fill="#f76d00"/>
    <path id="Path_8393" data-name="Path 8393" d="M2173.214,373.261a3.174,3.174,0,0,0,3.165-3.165v0H2189.6a.9.9,0,0,0,0-1.8h-13.226v0a3.164,3.164,0,0,0-6.329,0v0h-1.82a.9.9,0,1,0,0,1.8h1.82v0A3.174,3.174,0,0,0,2173.214,373.261Zm-1.051-5.118a1.052,1.052,0,1,1,2.1,0v2.1a1.052,1.052,0,1,1-2.1,0Z" fill="#f76d00"/>
    <path id="Path_8394" data-name="Path 8394" d="M2189.6,358.179h-1.82v0a3.165,3.165,0,0,0-6.33,0v0H2168.23a.9.9,0,1,0,0,1.8h13.225v0a3.165,3.165,0,1,0,6.33,0v0h1.82a.9.9,0,0,0,0-1.8Zm-3.933,1.951a1.052,1.052,0,0,1-2.1,0v-2.1a1.052,1.052,0,0,1,2.1,0Z" fill="#f76d00"/>
    <path id="Path_8395" data-name="Path 8395" d="M2148.7,352.491a6.6,6.6,0,1,0,6.6,6.6A6.608,6.608,0,0,0,2148.7,352.491Zm0,11.551a4.951,4.951,0,1,1,4.95-4.951A4.957,4.957,0,0,1,2148.7,364.042Z" fill="#f76d00"/>
    <path id="Path_8396" data-name="Path 8396" d="M2161.855,362.235a.825.825,0,0,0,.65-.806v-4.675a.827.827,0,0,0-.65-.807l-2.122-.461a11.569,11.569,0,0,0-.683-1.647l1.175-1.827a.826.826,0,0,0-.111-1.03l-3.306-3.306a.827.827,0,0,0-1.03-.111l-1.827,1.175a11.6,11.6,0,0,0-1.647-.683l-.461-2.122a.826.826,0,0,0-.807-.65h-4.675a.825.825,0,0,0-.806.65l-.462,2.122a11.585,11.585,0,0,0-1.646.683l-1.828-1.175a.826.826,0,0,0-1.029.111l-3.307,3.306a.826.826,0,0,0-.11,1.03l1.175,1.827a11.485,11.485,0,0,0-.683,1.647l-2.122.461a.826.826,0,0,0-.65.807v4.675a.824.824,0,0,0,.65.806l2.122.462a11.485,11.485,0,0,0,.683,1.647l-1.175,1.827a.826.826,0,0,0,.11,1.03l3.307,3.306a.824.824,0,0,0,1.029.11l1.828-1.175a11.466,11.466,0,0,0,1.646.683l.462,2.123a.824.824,0,0,0,.806.649h4.675a.825.825,0,0,0,.807-.649l.461-2.123a11.477,11.477,0,0,0,1.647-.683l1.827,1.175a.826.826,0,0,0,1.03-.11l3.306-3.306a.826.826,0,0,0,.111-1.03l-1.175-1.827a11.569,11.569,0,0,0,.683-1.647Zm-2.946-1.048a.825.825,0,0,0-.62.585,9.9,9.9,0,0,1-.914,2.2.826.826,0,0,0,.025.852l1.077,1.676-2.365,2.366-1.677-1.078a.824.824,0,0,0-.851-.024,9.948,9.948,0,0,1-2.205.914.828.828,0,0,0-.585.619l-.423,1.946h-3.345l-.423-1.946a.824.824,0,0,0-.584-.619,9.928,9.928,0,0,1-2.205-.914.825.825,0,0,0-.852.024l-1.676,1.078-2.365-2.366,1.077-1.676a.825.825,0,0,0,.025-.852,9.9,9.9,0,0,1-.915-2.2.824.824,0,0,0-.619-.585l-1.946-.423v-3.345l1.946-.423a.824.824,0,0,0,.619-.585,9.949,9.949,0,0,1,.914-2.205.821.821,0,0,0-.024-.851l-1.078-1.676,2.366-2.366,1.676,1.078a.828.828,0,0,0,.852.024,9.879,9.879,0,0,1,2.205-.914.826.826,0,0,0,.584-.62l.423-1.946h3.345l.423,1.946a.829.829,0,0,0,.585.62,9.9,9.9,0,0,1,2.205.914.826.826,0,0,0,.851-.024l1.676-1.078,2.366,2.366-1.077,1.676a.822.822,0,0,0-.025.851,9.9,9.9,0,0,1,.914,2.205.826.826,0,0,0,.619.585l1.947.423v3.345Z" fill="#f76d00"/>
  </g>
</svg>
