<svg xmlns="http://www.w3.org/2000/svg" xmlns:xlink="http://www.w3.org/1999/xlink" width="45" height="45" viewBox="0 0 45 45">
  <defs>
    <linearGradient id="linear-gradient" y1="0.179" x2="1" y2="1" gradientUnits="objectBoundingBox">
      <stop offset="0" stop-color="#1d0f9b"/>
      <stop offset="1" stop-color="#00c3ff"/>
    </linearGradient>
  </defs>
  <g id="contact-icon3" transform="translate(-233.497 -233.496)">
    <g id="Group_5658" data-name="Group 5658">
      <g id="Group_5657" data-name="Group 5657">
        <path id="Path_14357" data-name="Path 14357" d="M278.5,250.743c0-.015-.008-.029-.009-.044a.73.73,0,0,0-.031-.153.762.762,0,0,0-.043-.13.683.683,0,0,0-.075-.112.721.721,0,0,0-.1-.119c-.012-.01-.017-.024-.03-.034l-7.21-5.6v-5.806a2.251,2.251,0,0,0-2.25-2.251h-8.128l-3.255-2.527a2.226,2.226,0,0,0-2.735,0l-3.255,2.527h-8.128a2.251,2.251,0,0,0-2.25,2.251v5.806l-7.21,5.6c-.012.01-.018.024-.03.034a.772.772,0,0,0-.1.119.842.842,0,0,0-.075.112.758.758,0,0,0-.042.13.7.7,0,0,0-.031.15c0,.015-.009.029-.009.044v25.5a2.223,2.223,0,0,0,.125.709.743.743,0,0,0,.825,1.125,2.233,2.233,0,0,0,1.3.417h40.5a2.235,2.235,0,0,0,1.3-.423.732.732,0,0,0,.2.033.744.744,0,0,0,.625-1.152,2.223,2.223,0,0,0,.125-.709v-25.5Zm-22.951-15.594a.72.72,0,0,1,.9,0l1.73,1.343h-4.35Zm-19.614,41.846,19.615-15.236a.721.721,0,0,1,.894,0l19.62,15.236ZM277,275.824l-19.634-15.25a2.226,2.226,0,0,0-2.733,0L235,275.824V251.886l12.291,9.544a.75.75,0,0,0,.919-1.186l-12.486-9.7,5.276-4.1v5.8a.75.75,0,0,0,1.5,0v-13.5a.75.75,0,0,1,.75-.75h25.5a.75.75,0,0,1,.75.75v13.5a.75.75,0,0,0,1.5,0v-5.8l5.276,4.1-12.509,9.714a.75.75,0,0,0,.921,1.185L277,251.886Z" fill="url(#linear-gradient)"/>
        <path id="Path_14358" data-name="Path 14358" d="M248.5,243.243h15a.75.75,0,0,0,0-1.5h-15a.75.75,0,0,0,0,1.5Z" fill="url(#linear-gradient)"/>
        <path id="Path_14359" data-name="Path 14359" d="M264.247,246.993a.75.75,0,0,0-.75-.75h-15a.75.75,0,0,0,0,1.5h15A.75.75,0,0,0,264.247,246.993Z" fill="url(#linear-gradient)"/>
        <path id="Path_14360" data-name="Path 14360" d="M264.247,251.494a.75.75,0,0,0-.75-.75h-6.75a.75.75,0,1,0,0,1.5h6.75A.75.75,0,0,0,264.247,251.494Z" fill="url(#linear-gradient)"/>
      </g>
    </g>
  </g>
</svg>
