<svg xmlns="http://www.w3.org/2000/svg" xmlns:xlink="http://www.w3.org/1999/xlink" width="45" height="45" viewBox="0 0 45 45">
  <defs>
    <linearGradient id="linear-gradient" x1="-0.022" y1="0.075" x2="1" y2="0.915" gradientUnits="objectBoundingBox">
      <stop offset="0" stop-color="#1d0f9b"/>
      <stop offset="1" stop-color="#00c3ff"/>
    </linearGradient>
  </defs>
  <g id="contact-icon2" transform="translate(-233.538 -233.538)">
    <g id="Group_5655" data-name="Group 5655">
      <g id="Group_5654" data-name="Group 5654">
        <path id="Path_14353" data-name="Path 14353" d="M277.357,268.254l-9.108-6.075a2.659,2.659,0,0,0-3.56.578l-2.653,3.412a1.134,1.134,0,0,1-1.454.306l-.5-.278c-1.673-.912-3.755-2.048-7.949-6.244s-5.332-6.279-6.244-7.949l-.276-.505a1.135,1.135,0,0,1,.3-1.459l3.409-2.653a2.659,2.659,0,0,0,.579-3.56l-6.074-9.109a2.645,2.645,0,0,0-3.565-.8l-3.808,2.288a5.372,5.372,0,0,0-2.45,3.18c-1.372,5-.34,13.622,12.365,26.33,10.106,10.106,17.63,12.824,22.8,12.824a13.267,13.267,0,0,0,3.524-.461,5.369,5.369,0,0,0,3.18-2.45l2.29-3.807A2.644,2.644,0,0,0,277.357,268.254Zm-.49,2.8-2.285,3.809a3.877,3.877,0,0,1-2.287,1.773c-4.613,1.266-12.673.217-24.87-11.981s-13.246-20.257-11.98-24.871a3.885,3.885,0,0,1,1.775-2.291l3.809-2.285a1.148,1.148,0,0,1,1.547.348l3.3,4.954,2.769,4.154a1.154,1.154,0,0,1-.25,1.545l-3.41,2.653a2.623,2.623,0,0,0-.7,3.368l.27.492c.959,1.758,2.15,3.945,6.5,8.3s6.537,5.541,8.293,6.5l.493.272a2.626,2.626,0,0,0,3.369-.7l2.652-3.41a1.155,1.155,0,0,1,1.545-.251l9.107,6.075A1.147,1.147,0,0,1,276.867,271.051Z" fill="url(#linear-gradient)"/>
        <path id="Path_14354" data-name="Path 14354" d="M259.037,241.04a12.764,12.764,0,0,1,12.748,12.75.75.75,0,0,0,1.5,0,14.264,14.264,0,0,0-14.248-14.249.749.749,0,1,0,0,1.5Z" fill="url(#linear-gradient)"/>
        <path id="Path_14355" data-name="Path 14355" d="M259.037,245.54a8.26,8.26,0,0,1,8.249,8.25.749.749,0,0,0,1.5,0,9.76,9.76,0,0,0-9.748-9.75.75.75,0,0,0,0,1.5Z" fill="url(#linear-gradient)"/>
        <path id="Path_14356" data-name="Path 14356" d="M259.037,250.04a3.753,3.753,0,0,1,3.749,3.75.75.75,0,0,0,1.5,0,5.255,5.255,0,0,0-5.249-5.25.75.75,0,0,0,0,1.5Z" fill="url(#linear-gradient)"/>
      </g>
    </g>
  </g>
</svg>
