<svg xmlns="http://www.w3.org/2000/svg" width="34.119" height="30" viewBox="0 0 34.119 30">
  <g id="cpa1" transform="translate(-295.607 -241)">
    <g id="Group_3202" data-name="Group 3202">
      <path id="Path_9321" data-name="Path 9321" d="M315.833,248.992a8.738,8.738,0,1,0-3,15.463l-.212-.8a7.909,7.909,0,1,1,5.535-10.013l.795-.248a8.819,8.819,0,0,0-3.119-4.4Z" fill="#6b58ed"/>
      <path id="Path_9322" data-name="Path 9322" d="M313.747,253.537l-4.145,4.047-2.172-2.12a.416.416,0,1,0-.589.588l.007.007,2.463,2.4a.415.415,0,0,0,.581,0l4.437-4.331a.416.416,0,0,0-.574-.6l-.008.008Z" fill="#6b58ed"/>
      <path id="Path_9323" data-name="Path 9323" d="M322.85,249.4H321.1l1.584-1.913a.416.416,0,0,0-.025-.557l-2.978-3.016a.415.415,0,0,0-.561-.028l-2.212,1.831a12.141,12.141,0,0,0-3.475-1.467l-.276-2.871a.417.417,0,0,0-.414-.376H308.47a.417.417,0,0,0-.415.376l-.276,2.871a11.914,11.914,0,0,0-3.479,1.464l-2.208-1.828a.416.416,0,0,0-.56.026l-3.016,3.016a.416.416,0,0,0-.026.559l1.831,2.212a12.209,12.209,0,0,0-1.467,3.475l-2.87.277a.417.417,0,0,0-.377.414v4.276a.416.416,0,0,0,.377.414l2.87.277a11.9,11.9,0,0,0,1.465,3.478l-1.829,2.209a.416.416,0,0,0,.026.559l3.016,3.016a.416.416,0,0,0,.56.027l2.212-1.832a12.141,12.141,0,0,0,3.475,1.467l.277,2.871a.415.415,0,0,0,.414.376h4.276a.417.417,0,0,0,.414-.376l.276-2.871c.349-.084.7-.186,1.034-.3l-.269-.787a10.863,10.863,0,0,1-1.238.344.417.417,0,0,0-.326.367l-.269,2.793h-3.521l-.269-2.793a.417.417,0,0,0-.326-.367,11.359,11.359,0,0,1-3.756-1.584.415.415,0,0,0-.491.029l-2.152,1.782-2.48-2.48,1.782-2.152a.418.418,0,0,0,.026-.5,11.027,11.027,0,0,1-1.582-3.752.416.416,0,0,0-.366-.326l-2.793-.269v-3.52l2.792-.269a.418.418,0,0,0,.367-.326,11.337,11.337,0,0,1,1.585-3.757.416.416,0,0,0-.03-.491l-1.781-2.152,2.48-2.48,2.152,1.782a.416.416,0,0,0,.5.026,11.005,11.005,0,0,1,3.752-1.581.417.417,0,0,0,.326-.367l.269-2.793h3.52l.269,2.793a.418.418,0,0,0,.326.367,11.364,11.364,0,0,1,3.757,1.584.415.415,0,0,0,.491-.029l2.149-1.78,2.446,2.477-1.783,2.153h-1.182a.417.417,0,0,0-.416.417v1.6a.416.416,0,0,0,.416.416h1.588V253.2h.832v-1.365h1.589a.416.416,0,0,0,.416-.416v-1.6A.416.416,0,0,0,322.85,249.4Zm-.416,1.6h-3.177v-.771h3.177Z" fill="#6b58ed"/>
    </g>
    <path id="Path_9324" data-name="Path 9324" d="M320.845,252.782a8.881,8.881,0,1,0,8.881,8.881h0a8.9,8.9,0,0,0-8.881-8.881Zm0,16.929a8.049,8.049,0,1,1,8.049-8.048,8.048,8.048,0,0,1-8.049,8.048Z" fill="#02b159"/>
    <path id="Path_9325" data-name="Path 9325" d="M318.233,262.069a.222.222,0,0,0,.162-.375,2.226,2.226,0,0,1-.1-2.948.223.223,0,1,0-.344-.284A2.671,2.671,0,0,0,318.07,262,.222.222,0,0,0,318.233,262.069Z" fill="#02b159"/>
    <path id="Path_9326" data-name="Path 9326" d="M322.1,261.479a.218.218,0,0,0,.17.013.225.225,0,0,0,.13-.11,2.668,2.668,0,0,0-.319-2.92.223.223,0,1,0-.344.284,2.22,2.22,0,0,1,.266,2.432A.224.224,0,0,0,322.1,261.479Z" fill="#02b159"/>
    <path id="Path_9327" data-name="Path 9327" d="M320.017,259.273a.892.892,0,0,1,.892.892v1a1.323,1.323,0,0,0,.446-1,1.338,1.338,0,0,0-2.676,0,1.323,1.323,0,0,0,.446,1v-1A.892.892,0,0,1,320.017,259.273Z" fill="none"/>
    <path id="Path_9328" data-name="Path 9328" d="M324.064,264.181a.451.451,0,0,0-.348.129.441.441,0,0,0-.13.316v.446a.223.223,0,0,1-.447,0V263.51a.446.446,0,1,0-.892,0v1.339a.223.223,0,0,1-.446,0v-2.008a.446.446,0,1,0-.892,0v2.008a.223.223,0,1,1-.446,0v-4.684a.446.446,0,1,0-.892,0v5.13c0,.064,0,.129,0,.193h4.91v-.825A.474.474,0,0,0,324.064,264.181Z" fill="none"/>
    <path id="Path_9329" data-name="Path 9329" d="M319.571,265.3v-5.13a.446.446,0,1,1,.892,0v4.684a.223.223,0,1,0,.446,0v-2.008a.446.446,0,1,1,.892,0v2.008a.223.223,0,0,0,.446,0V263.51a.446.446,0,1,1,.892,0v1.562a.223.223,0,0,0,.447,0v-.446a.441.441,0,0,1,.13-.316.451.451,0,0,1,.348-.129.474.474,0,0,1,.414.482v.825h.446v-.825a.916.916,0,0,0-.827-.927.887.887,0,0,0-.511.121v-.347a.887.887,0,0,0-1.348-.763.883.883,0,0,0-1.329-.674V261.7a1.76,1.76,0,0,0,.892-1.539,1.784,1.784,0,0,0-3.568,0,1.76,1.76,0,0,0,.892,1.539V265.3c0,.064,0,.129,0,.193h.446C319.571,265.424,319.572,265.359,319.571,265.3Zm-.446-5.13v1a1.323,1.323,0,0,1-.446-1,1.338,1.338,0,0,1,2.676,0,1.323,1.323,0,0,1-.446,1v-1a.892.892,0,0,0-1.784,0Z" fill="#02b159"/>
  </g>
</svg>
