<svg xmlns="http://www.w3.org/2000/svg" width="34.118" height="30" viewBox="0 0 34.118 30">
  <g id="cpa2" transform="translate(-238.941 -241)">
    <g id="Group_3198" data-name="Group 3198" opacity="0.5">
      <path id="Path_9311" data-name="Path 9311" d="M259.166,248.992a8.738,8.738,0,1,0-3,15.463l-.211-.8a7.908,7.908,0,1,1,5.535-10.013l.794-.248a8.819,8.819,0,0,0-3.119-4.4Z" fill="#02b159"/>
      <path id="Path_9312" data-name="Path 9312" d="M257.081,253.537l-4.146,4.047-2.172-2.12a.416.416,0,1,0-.589.588l.008.007,2.462,2.4a.417.417,0,0,0,.582,0l4.436-4.331a.416.416,0,1,0-.574-.6l-.007.008Z" fill="#02b159"/>
      <path id="Path_9313" data-name="Path 9313" d="M266.183,249.4h-1.747l1.584-1.913a.416.416,0,0,0-.024-.557l-2.978-3.016a.416.416,0,0,0-.562-.028l-2.211,1.831a12.153,12.153,0,0,0-3.475-1.467l-.277-2.871a.416.416,0,0,0-.414-.376H251.8a.416.416,0,0,0-.414.376l-.277,2.871a11.9,11.9,0,0,0-3.478,1.464l-2.209-1.828a.415.415,0,0,0-.559.026l-3.016,3.016a.415.415,0,0,0-.027.559l1.832,2.212a12.184,12.184,0,0,0-1.468,3.475l-2.87.277a.417.417,0,0,0-.376.414v4.276a.416.416,0,0,0,.376.414l2.87.277a11.926,11.926,0,0,0,1.465,3.478l-1.829,2.209a.415.415,0,0,0,.027.559l3.016,3.016a.415.415,0,0,0,.559.027l2.212-1.832a12.153,12.153,0,0,0,3.475,1.467l.277,2.871a.416.416,0,0,0,.414.376h4.276a.416.416,0,0,0,.414-.376l.277-2.871c.348-.084.694-.186,1.034-.3l-.27-.787a10.806,10.806,0,0,1-1.238.344.419.419,0,0,0-.326.367l-.269,2.793h-3.52l-.269-2.793a.419.419,0,0,0-.327-.367,11.359,11.359,0,0,1-3.756-1.584.415.415,0,0,0-.491.029l-2.152,1.782-2.48-2.48,1.782-2.152a.416.416,0,0,0,.026-.5,11.025,11.025,0,0,1-1.581-3.752.418.418,0,0,0-.367-.326l-2.793-.269v-3.52l2.793-.269a.417.417,0,0,0,.366-.326,11.357,11.357,0,0,1,1.585-3.757.416.416,0,0,0-.029-.491l-1.782-2.152,2.481-2.48,2.151,1.782a.416.416,0,0,0,.5.026,11.005,11.005,0,0,1,3.752-1.581.417.417,0,0,0,.326-.367l.269-2.793H255.7l.269,2.793a.417.417,0,0,0,.326.367,11.359,11.359,0,0,1,3.756,1.584.415.415,0,0,0,.491-.029l2.15-1.78,2.445,2.477-1.783,2.153h-1.182a.417.417,0,0,0-.416.417v1.6a.416.416,0,0,0,.416.416h1.589V253.2h.832v-1.365h1.588a.417.417,0,0,0,.417-.416v-1.6A.417.417,0,0,0,266.183,249.4Zm-.416,1.6H262.59v-.771h3.177Z" fill="#02b159"/>
    </g>
    <path id="Path_9314" data-name="Path 9314" d="M264.179,252.782a8.881,8.881,0,1,0,8.88,8.881h0a8.9,8.9,0,0,0-8.88-8.881Zm0,16.929a8.049,8.049,0,1,1,8.048-8.048,8.048,8.048,0,0,1-8.048,8.048Z" fill="#f76d00"/>
    <path id="Path_9315" data-name="Path 9315" d="M266.278,256.47a.5.5,0,0,0-.615.142l-2.37,3.074a1.949,1.949,0,1,0,2.351,1.438,2.03,2.03,0,0,0-.111-.33l1.005-3.749A.5.5,0,0,0,266.278,256.47Zm-1.59,4.26a.419.419,0,0,0,.038.31,1.117,1.117,0,1,1-1.139-.564.415.415,0,0,0,.269-.158l1.445-1.874Z" fill="#f76d00"/>
  </g>
</svg>
