<svg xmlns="http://www.w3.org/2000/svg" width="34.118" height="30" viewBox="0 0 34.118 30">
  <g id="cpa3" transform="translate(-238.274 -241)">
    <g id="Group_3200" data-name="Group 3200" opacity="0.5">
      <path id="Path_9316" data-name="Path 9316" d="M258.5,248.992a8.738,8.738,0,1,0-3,15.463l-.211-.8a7.909,7.909,0,1,1,5.535-10.013l.794-.248a8.813,8.813,0,0,0-3.119-4.4Z" fill="#f76d00"/>
      <path id="Path_9317" data-name="Path 9317" d="M256.414,253.537l-4.146,4.047-2.172-2.12a.416.416,0,1,0-.588.588l.007.007,2.463,2.4a.415.415,0,0,0,.581,0l4.436-4.331a.416.416,0,1,0-.573-.6l-.008.008Z" fill="#f76d00"/>
      <path id="Path_9318" data-name="Path 9318" d="M265.517,249.4h-1.748l1.584-1.913a.415.415,0,0,0-.024-.557l-2.978-3.016a.416.416,0,0,0-.562-.028l-2.211,1.831a12.141,12.141,0,0,0-3.475-1.467l-.277-2.871a.415.415,0,0,0-.414-.376h-4.276a.417.417,0,0,0-.414.376l-.276,2.871a11.891,11.891,0,0,0-3.479,1.464l-2.208-1.828a.416.416,0,0,0-.56.026l-3.016,3.016a.415.415,0,0,0-.026.559l1.831,2.212a12.153,12.153,0,0,0-1.467,3.475l-2.871.277a.417.417,0,0,0-.376.414v4.276a.416.416,0,0,0,.376.414l2.871.277a11.872,11.872,0,0,0,1.465,3.478l-1.829,2.209a.415.415,0,0,0,.026.559l3.016,3.016a.416.416,0,0,0,.56.027l2.211-1.832a12.147,12.147,0,0,0,3.476,1.467l.276,2.871a.417.417,0,0,0,.414.376h4.276a.415.415,0,0,0,.414-.376l.277-2.871c.348-.084.7-.186,1.034-.3l-.27-.787a10.79,10.79,0,0,1-1.237.344.417.417,0,0,0-.326.367l-.269,2.793h-3.521l-.269-2.793a.417.417,0,0,0-.326-.367,11.364,11.364,0,0,1-3.757-1.584.415.415,0,0,0-.491.029l-2.151,1.782-2.48-2.48,1.781-2.152a.415.415,0,0,0,.026-.5,11.045,11.045,0,0,1-1.581-3.752.417.417,0,0,0-.367-.326l-2.793-.269v-3.52l2.793-.269a.419.419,0,0,0,.367-.326,11.355,11.355,0,0,1,1.584-3.757.415.415,0,0,0-.029-.491l-1.781-2.152,2.48-2.48,2.152,1.782a.416.416,0,0,0,.5.026,11,11,0,0,1,3.751-1.581.419.419,0,0,0,.327-.367l.269-2.793h3.52l.269,2.793a.417.417,0,0,0,.326.367,11.358,11.358,0,0,1,3.756,1.584.415.415,0,0,0,.491-.029l2.15-1.78,2.446,2.477-1.784,2.153h-1.182a.417.417,0,0,0-.416.417v1.6a.416.416,0,0,0,.416.416H263.1V253.2h.832v-1.365h1.589a.416.416,0,0,0,.416-.416v-1.6A.416.416,0,0,0,265.517,249.4ZM265.1,251h-3.177v-.771H265.1Z" fill="#f76d00"/>
    </g>
    <path id="Path_9319" data-name="Path 9319" d="M263.512,252.782a8.881,8.881,0,1,0,8.88,8.881h0a8.9,8.9,0,0,0-8.88-8.881Zm0,16.929a8.049,8.049,0,1,1,8.048-8.048,8.048,8.048,0,0,1-8.048,8.048Z" fill="#6b58ed"/>
    <path id="Path_9320" data-name="Path 9320" d="M267.334,259.315a.852.852,0,0,0-1.2-.014l-2.995,2.925-1.4-1.365a.851.851,0,0,0-1.19,1.218l1.993,1.945a.851.851,0,0,0,1.189,0l3.59-3.5a.85.85,0,0,0,.015-1.2Z" fill="#6b58ed"/>
  </g>
</svg>
