<svg xmlns="http://www.w3.org/2000/svg" xmlns:xlink="http://www.w3.org/1999/xlink" width="68" height="61" viewBox="0 0 68 61">
  <defs>
    <clipPath id="clip-path">
      <rect id="Rectangle_3783" data-name="Rectangle 3783" width="44.776" height="45" transform="translate(937.612 441.46)" fill="#0364ff"/>
    </clipPath>
  </defs>
  <g id="cpi1" transform="translate(-405 -5731)">
    <g id="cpi1-2" data-name="cpi1" transform="translate(-10914 1134)">
      <path id="Path_11153" data-name="Path 11153" d="M409.248,193.185q.2-.96.3-1.921a24.384,24.384,0,0,0-8.665-20.991c-17.064-14.122-48.634-7.275-57.241,13.2-3.528,8.394-.868,18.1,3.569,26.079a30.474,30.474,0,0,0,7.957,9.825c5.949,4.472,14.193,5.384,21.486,3.588C389.563,219.789,406.441,206.68,409.248,193.185Z" transform="translate(10976.986 4434.168)" fill="#f4f6f8"/>
      <line id="Line_70" data-name="Line 70" y2="58" transform="translate(11342.5 4599.5)" fill="none" stroke="#edeff3" stroke-linecap="round" stroke-width="1"/>
      <line id="Line_71" data-name="Line 71" y2="60" transform="translate(11354.5 4597.5)" fill="none" stroke="#edeff3" stroke-linecap="round" stroke-width="1"/>
      <line id="Line_72" data-name="Line 72" y2="53" transform="translate(11366.5 4598.5)" fill="none" stroke="#edeff3" stroke-linecap="round" stroke-width="1"/>
      <line id="Line_73" data-name="Line 73" y2="35" transform="translate(11378.5 4605.5)" fill="none" stroke="#edeff3" stroke-linecap="round" stroke-width="1"/>
      <line id="Line_70-2" data-name="Line 70" x2="43" transform="translate(11331.5 4645.5)" fill="none" stroke="#edeff3" stroke-linecap="round" stroke-width="1"/>
      <line id="Line_71-2" data-name="Line 71" x2="52" transform="translate(11331.5 4633.5)" fill="none" stroke="#edeff3" stroke-linecap="round" stroke-width="1"/>
      <line id="Line_72-2" data-name="Line 72" x2="55" transform="translate(11331.5 4621.5)" fill="none" stroke="#edeff3" stroke-linecap="round" stroke-width="1"/>
      <line id="Line_73-2" data-name="Line 73" x2="50" transform="translate(11331.5 4609.5)" fill="none" stroke="#edeff3" stroke-linecap="round" stroke-width="1"/>
    </g>
    <g id="Group_4151" data-name="Group 4151" transform="translate(-532.612 5305.54)">
      <g id="Group_4150" data-name="Group 4150">
        <g id="Group_4149" data-name="Group 4149" clip-path="url(#clip-path)">
          <path id="Path_11177" data-name="Path 11177" d="M973.433,463.522v-6.844a8.336,8.336,0,0,0-2.458-5.933.745.745,0,0,0-1.055,0,8.343,8.343,0,0,0-2.457,5.934v7.035c-.23.071-.453.156-.677.24a11.644,11.644,0,0,1-.783-3l-.994-8.283a13.826,13.826,0,0,0-3.934-8.094l-2.785-2.786a.746.746,0,0,0-1.056,0l-2.786,2.786a13.829,13.829,0,0,0-3.934,8.094l-.994,8.284a11.742,11.742,0,0,1-1.46,4.4v-8.679a8.339,8.339,0,0,0-2.457-5.933.745.745,0,0,0-1.055,0,8.336,8.336,0,0,0-2.458,5.933V471.12a13.263,13.263,0,0,0-2.967,4.205l-1.447,3.257a.745.745,0,0,0,.682,1.049H954.03v1.141a6.113,6.113,0,0,0,3.4,5.5.752.752,0,0,0,.667,0,6.1,6.1,0,0,0,3.345-4.747,11.558,11.558,0,1,0,11.993-18Zm-4.478-6.843a6.85,6.85,0,0,1,1.493-4.287,6.85,6.85,0,0,1,1.493,4.287v6.591c-.051,0-.1,0-.156-.007-.283-.025-.561-.039-.836-.043-.044,0-.085-.006-.128-.006s-.083.006-.125.006c-.316,0-.629.016-.944.048-.166.015-.329.041-.493.064-.1.014-.2.024-.3.041Zm-25.373,0a6.85,6.85,0,0,1,1.493-4.287,6.849,6.849,0,0,1,1.492,4.287V467.43a11.823,11.823,0,0,1-2.431,2.077c-.19.121-.371.252-.554.381Zm7.463,21.46v-3.731h8.215c0,.125-.006.25-.006.373,0,.353.021.7.053,1.052.009.1.022.21.035.314.03.252.068.5.115.75.019.105.036.21.059.314.067.312.144.621.237.928Zm5.97-5.224v-1.492a.746.746,0,1,1,1.492,0v1.492ZM960,480.772a2.619,2.619,0,1,1-4.477,0v-1.14h1.492v1.493h1.492v-1.493H960Zm.246-10.659c-.069.156-.131.316-.194.475-.04.1-.084.2-.121.309a2.235,2.235,0,0,0-4.408.526v1.492H950.3a.747.747,0,0,0-.747.746v4.478H939.507l.981-2.207a11.771,11.771,0,0,1,4.45-5.165A13.251,13.251,0,0,0,951,461.132l.994-8.283a12.321,12.321,0,0,1,3.507-7.216l2.258-2.26,2.259,2.259a12.322,12.322,0,0,1,3.506,7.216l.994,8.284a13.212,13.212,0,0,0,.893,3.43c-.136.073-.266.153-.4.231-.152.088-.3.177-.447.271-.126.082-.251.164-.374.251-.177.124-.348.253-.517.387-.118.092-.235.186-.348.284q-.288.244-.559.507c-.1.094-.189.19-.283.287-.137.143-.27.291-.4.44-.086.1-.173.2-.255.3-.18.222-.352.452-.515.687-.084.122-.162.248-.242.373-.092.146-.183.293-.269.442s-.156.272-.23.411q-.176.336-.329.683Zm10.575,14.742a10.083,10.083,0,0,1-9.394-6.46c-.088-.231-.175-.462-.246-.7-.03-.1-.05-.2-.076-.292-.059-.216-.118-.434-.163-.653-.031-.16-.05-.325-.074-.489s-.055-.321-.071-.482c-.033-.331-.051-.664-.051-1,0-.3.02-.61.048-.922.009-.093.02-.186.031-.278.024-.2.056-.409.093-.611.019-.1.035-.209.058-.312.055-.26.122-.517.2-.77.039-.132.086-.26.131-.389s.1-.275.151-.411.114-.281.176-.419c.055-.122.114-.241.174-.36q.163-.33.352-.645c.076-.128.15-.258.231-.382s.171-.247.258-.368.161-.221.245-.328.18-.228.275-.339.211-.236.32-.352c.14-.15.285-.295.436-.437.123-.116.247-.232.376-.343.11-.093.224-.182.338-.271s.218-.166.33-.247.248-.177.376-.26c.1-.066.208-.128.313-.19q.405-.243.836-.45a10.01,10.01,0,0,1,1.9-.684,10.49,10.49,0,0,1,1.185-.222.454.454,0,0,1,.051-.008,9.632,9.632,0,0,1,1.189-.077c.3,0,.587.02.876.044s.563.064.861.117h0a10.069,10.069,0,0,1-1.738,19.988Zm0,0" fill="#0364ff"/>
        </g>
      </g>
      <path id="Path_11178" data-name="Path 11178" d="M957.761,451.273a3.736,3.736,0,0,0-3.731,3.732h1.493a2.238,2.238,0,1,1,4.477,0h1.493a3.736,3.736,0,0,0-3.732-3.732Zm0,0" fill="#0364ff"/>
      <rect id="Rectangle_3784" data-name="Rectangle 3784" width="1.492" height="1.493" transform="translate(957.015 457.99)" fill="#0364ff"/>
      <rect id="Rectangle_3785" data-name="Rectangle 3785" width="1.492" height="1.493" transform="translate(957.015 460.975)" fill="#0364ff"/>
      <rect id="Rectangle_3786" data-name="Rectangle 3786" width="1.492" height="1.493" transform="translate(957.015 463.96)" fill="#0364ff"/>
      <path id="Path_11179" data-name="Path 11179" d="M969.6,466.285l.211,1.477a7.13,7.13,0,0,1,4.051.611l.639-1.349a8.621,8.621,0,0,0-4.9-.739Zm0,0" fill="#0364ff"/>
      <path id="Path_11180" data-name="Path 11180" d="M967.961,466.687a8.717,8.717,0,0,0-1.636.782l.783,1.272a7.116,7.116,0,0,1,1.349-.646Zm0,0" fill="#0364ff"/>
      <path id="Path_11181" data-name="Path 11181" d="M976.945,468.656a.747.747,0,0,0-.922-.105l-5.971,3.731a.748.748,0,0,0-.351.633v2.239a.746.746,0,0,0,.747.746h2.239a.743.743,0,0,0,.632-.351l3.732-5.97a.746.746,0,0,0-.106-.923Zm-4.672,5.752h-1.079v-1.079l2.877-1.8Zm0,0" fill="#0364ff"/>
      <path id="Path_11182" data-name="Path 11182" d="M966.717,476.647a2.238,2.238,0,1,0,2.238,2.238,2.241,2.241,0,0,0-2.238-2.238Zm0,2.984a.746.746,0,1,1,.746-.746.746.746,0,0,1-.746.746Zm0,0" fill="#0364ff"/>
      <path id="Path_11183" data-name="Path 11183" d="M975.672,476.647a2.238,2.238,0,1,0,2.239,2.238,2.241,2.241,0,0,0-2.239-2.238Zm0,2.984a.746.746,0,1,1,.746-.746.747.747,0,0,1-.746.746Zm0,0" fill="#0364ff"/>
    </g>
  </g>
</svg>
