<svg xmlns="http://www.w3.org/2000/svg" xmlns:xlink="http://www.w3.org/1999/xlink" width="68" height="61" viewBox="0 0 68 61">
  <defs>
    <clipPath id="clip-path">
      <rect id="Rectangle_3761" data-name="Rectangle 3761" width="39.023" height="45" transform="translate(939.988 441.5)" fill="#0364ff"/>
    </clipPath>
  </defs>
  <g id="cpi2" transform="translate(-405 -5904)">
    <g id="Group_4144" data-name="Group 4144" transform="translate(-11257 1307)">
      <path id="Path_11153" data-name="Path 11153" d="M409.248,193.185q.2-.96.3-1.921a24.384,24.384,0,0,0-8.665-20.991c-17.064-14.122-48.634-7.275-57.241,13.2-3.528,8.394-.868,18.1,3.569,26.079a30.474,30.474,0,0,0,7.957,9.825c5.949,4.472,14.193,5.384,21.486,3.588C389.563,219.789,406.441,206.68,409.248,193.185Z" transform="translate(11319.986 4434.168)" fill="#f4f6f8"/>
      <line id="Line_70" data-name="Line 70" y2="58" transform="translate(11685.5 4599.5)" fill="none" stroke="#edeff3" stroke-linecap="round" stroke-width="1"/>
      <line id="Line_71" data-name="Line 71" y2="60" transform="translate(11697.5 4597.5)" fill="none" stroke="#edeff3" stroke-linecap="round" stroke-width="1"/>
      <line id="Line_72" data-name="Line 72" y2="53" transform="translate(11709.5 4598.5)" fill="none" stroke="#edeff3" stroke-linecap="round" stroke-width="1"/>
      <line id="Line_73" data-name="Line 73" y2="35" transform="translate(11721.5 4605.5)" fill="none" stroke="#edeff3" stroke-linecap="round" stroke-width="1"/>
      <line id="Line_70-2" data-name="Line 70" x2="43" transform="translate(11674.5 4645.5)" fill="none" stroke="#edeff3" stroke-linecap="round" stroke-width="1"/>
      <line id="Line_71-2" data-name="Line 71" x2="52" transform="translate(11674.5 4633.5)" fill="none" stroke="#edeff3" stroke-linecap="round" stroke-width="1"/>
      <line id="Line_72-2" data-name="Line 72" x2="55" transform="translate(11674.5 4621.5)" fill="none" stroke="#edeff3" stroke-linecap="round" stroke-width="1"/>
      <line id="Line_73-2" data-name="Line 73" x2="50" transform="translate(11674.5 4609.5)" fill="none" stroke="#edeff3" stroke-linecap="round" stroke-width="1"/>
    </g>
    <g id="Group_4147" data-name="Group 4147" transform="translate(-534.988 5478.5)">
      <rect id="Rectangle_3741" data-name="Rectangle 3741" width="1.5" height="1.5" transform="translate(942.989 454.25)" fill="#0364ff"/>
      <rect id="Rectangle_3742" data-name="Rectangle 3742" width="1.5" height="1.5" transform="translate(945.988 454.25)" fill="#0364ff"/>
      <rect id="Rectangle_3743" data-name="Rectangle 3743" width="1.5" height="1.5" transform="translate(942.989 451.25)" fill="#0364ff"/>
      <rect id="Rectangle_3744" data-name="Rectangle 3744" width="1.5" height="1.5" transform="translate(945.988 451.25)" fill="#0364ff"/>
      <rect id="Rectangle_3745" data-name="Rectangle 3745" width="1.5" height="1.5" transform="translate(948.988 454.25)" fill="#0364ff"/>
      <rect id="Rectangle_3746" data-name="Rectangle 3746" width="1.5" height="1.5" transform="translate(948.988 451.25)" fill="#0364ff"/>
      <rect id="Rectangle_3747" data-name="Rectangle 3747" width="1.5" height="1.5" transform="translate(951.988 454.25)" fill="#0364ff"/>
      <rect id="Rectangle_3748" data-name="Rectangle 3748" width="1.5" height="1.5" transform="translate(951.988 451.25)" fill="#0364ff"/>
      <rect id="Rectangle_3749" data-name="Rectangle 3749" width="1.5" height="1.5" transform="translate(954.988 454.25)" fill="#0364ff"/>
      <rect id="Rectangle_3750" data-name="Rectangle 3750" width="1.5" height="1.5" transform="translate(954.988 451.25)" fill="#0364ff"/>
      <rect id="Rectangle_3751" data-name="Rectangle 3751" width="1.5" height="1.5" transform="translate(942.989 463.25)" fill="#0364ff"/>
      <rect id="Rectangle_3752" data-name="Rectangle 3752" width="1.5" height="1.5" transform="translate(945.988 463.25)" fill="#0364ff"/>
      <rect id="Rectangle_3753" data-name="Rectangle 3753" width="1.5" height="1.5" transform="translate(942.989 460.25)" fill="#0364ff"/>
      <rect id="Rectangle_3754" data-name="Rectangle 3754" width="1.5" height="1.5" transform="translate(945.988 460.25)" fill="#0364ff"/>
      <rect id="Rectangle_3755" data-name="Rectangle 3755" width="1.5" height="1.5" transform="translate(948.988 463.25)" fill="#0364ff"/>
      <rect id="Rectangle_3756" data-name="Rectangle 3756" width="1.5" height="1.5" transform="translate(948.988 460.25)" fill="#0364ff"/>
      <rect id="Rectangle_3757" data-name="Rectangle 3757" width="1.5" height="1.5" transform="translate(951.988 463.25)" fill="#0364ff"/>
      <rect id="Rectangle_3758" data-name="Rectangle 3758" width="1.5" height="1.5" transform="translate(951.988 460.25)" fill="#0364ff"/>
      <rect id="Rectangle_3759" data-name="Rectangle 3759" width="1.5" height="1.5" transform="translate(954.988 463.25)" fill="#0364ff"/>
      <g id="Group_4146" data-name="Group 4146">
        <g id="Group_4145" data-name="Group 4145" clip-path="url(#clip-path)">
          <rect id="Rectangle_3760" data-name="Rectangle 3760" width="1.5" height="1.5" transform="translate(954.988 460.25)" fill="#0364ff"/>
          <path id="Path_11172" data-name="Path 11172" d="M978.931,478.713a.748.748,0,0,0-.693-.463h-2.25v-31.5a5.256,5.256,0,0,0-5.25-5.25h-4.5a5.257,5.257,0,0,0-5.25,5.25v1.5h-18.75a2.253,2.253,0,0,0-2.25,2.25v6a2.216,2.216,0,0,1,0,3v6a2.216,2.216,0,0,1,0,3v6a2.253,2.253,0,0,0,2.25,2.25h24.75v1.5h-2.25a.75.75,0,0,0-.53,1.28l6.75,6.75a.748.748,0,0,0,1.06,0l6.751-6.75a.75.75,0,0,0,.162-.817ZM941.488,450.5a.75.75,0,0,1,.75-.75h24.75v1.5h-6a.749.749,0,0,0-.75.75v3a.749.749,0,0,0,.75.75h6v1.5h-24.75a.75.75,0,0,1-.75-.75Zm24-2.25v-1.5a.749.749,0,1,1,1.5,0v1.5Zm1.5,4.5v1.5h-5.249v-1.5Zm-25.5,6.75a.75.75,0,0,1,.75-.75h24.75v1.5h-6a.749.749,0,0,0-.75.75v3a.749.749,0,0,0,.75.75h6v1.5h-24.75a.75.75,0,0,1-.75-.75Zm25.5,2.25v1.5h-5.249v-1.5Zm-24.75,13.5a.75.75,0,0,1-.75-.75v-6a.75.75,0,0,1,.75-.75h24.75v1.5h-6a.749.749,0,0,0-.75.75v3a.749.749,0,0,0,.75.75h6v1.5Zm24.75-4.5v1.5h-5.249v-1.5Zm4.5,13.94-4.939-4.94h1.189a.749.749,0,0,0,.75-.75V446.75a2.25,2.25,0,0,0-4.5,0v1.5h-1.5v-1.5a3.755,3.755,0,0,1,3.75-3.75h4.5a3.754,3.754,0,0,1,3.75,3.75V479a.75.75,0,0,0,.75.75h1.19Zm0,0" fill="#0364ff"/>
        </g>
      </g>
      <rect id="Rectangle_3762" data-name="Rectangle 3762" width="1.5" height="1.5" transform="translate(942.989 472.25)" fill="#0364ff"/>
      <rect id="Rectangle_3763" data-name="Rectangle 3763" width="1.5" height="1.5" transform="translate(945.988 472.25)" fill="#0364ff"/>
      <rect id="Rectangle_3764" data-name="Rectangle 3764" width="1.5" height="1.5" transform="translate(942.989 469.25)" fill="#0364ff"/>
      <rect id="Rectangle_3765" data-name="Rectangle 3765" width="1.5" height="1.5" transform="translate(945.988 469.25)" fill="#0364ff"/>
      <rect id="Rectangle_3766" data-name="Rectangle 3766" width="1.5" height="1.5" transform="translate(948.988 472.25)" fill="#0364ff"/>
      <rect id="Rectangle_3767" data-name="Rectangle 3767" width="1.5" height="1.5" transform="translate(948.988 469.25)" fill="#0364ff"/>
      <rect id="Rectangle_3768" data-name="Rectangle 3768" width="1.5" height="1.5" transform="translate(951.988 472.25)" fill="#0364ff"/>
      <rect id="Rectangle_3769" data-name="Rectangle 3769" width="1.5" height="1.5" transform="translate(951.988 469.25)" fill="#0364ff"/>
      <rect id="Rectangle_3770" data-name="Rectangle 3770" width="1.5" height="1.5" transform="translate(954.988 472.25)" fill="#0364ff"/>
      <rect id="Rectangle_3771" data-name="Rectangle 3771" width="1.5" height="1.5" transform="translate(954.988 469.25)" fill="#0364ff"/>
      <rect id="Rectangle_3772" data-name="Rectangle 3772" width="1.5" height="1.5" transform="translate(971.488 475.25)" fill="#0364ff"/>
      <rect id="Rectangle_3773" data-name="Rectangle 3773" width="1.5" height="1.5" transform="translate(971.488 472.25)" fill="#0364ff"/>
      <rect id="Rectangle_3774" data-name="Rectangle 3774" width="1.5" height="1.5" transform="translate(971.488 469.25)" fill="#0364ff"/>
    </g>
  </g>
</svg>
