<svg xmlns="http://www.w3.org/2000/svg" width="68" height="61" viewBox="0 0 68 61">
  <g id="cpi3" transform="translate(-405 -6077)">
    <g id="Group_4143" data-name="Group 4143" transform="translate(-11083 1480)">
      <path id="Path_11153" data-name="Path 11153" d="M409.248,193.185q.2-.96.3-1.921a24.384,24.384,0,0,0-8.665-20.991c-17.064-14.122-48.634-7.275-57.241,13.2-3.528,8.394-.868,18.1,3.569,26.079a30.474,30.474,0,0,0,7.957,9.825c5.949,4.472,14.193,5.384,21.486,3.588C389.563,219.789,406.441,206.68,409.248,193.185Z" transform="translate(11145.986 4434.168)" fill="#f4f6f8"/>
      <line id="Line_70" data-name="Line 70" y2="58" transform="translate(11511.5 4599.5)" fill="none" stroke="#edeff3" stroke-linecap="round" stroke-width="1"/>
      <line id="Line_71" data-name="Line 71" y2="60" transform="translate(11523.5 4597.5)" fill="none" stroke="#edeff3" stroke-linecap="round" stroke-width="1"/>
      <line id="Line_72" data-name="Line 72" y2="53" transform="translate(11535.5 4598.5)" fill="none" stroke="#edeff3" stroke-linecap="round" stroke-width="1"/>
      <line id="Line_73" data-name="Line 73" y2="35" transform="translate(11547.5 4605.5)" fill="none" stroke="#edeff3" stroke-linecap="round" stroke-width="1"/>
      <line id="Line_70-2" data-name="Line 70" x2="43" transform="translate(11500.5 4645.5)" fill="none" stroke="#edeff3" stroke-linecap="round" stroke-width="1"/>
      <line id="Line_71-2" data-name="Line 71" x2="52" transform="translate(11500.5 4633.5)" fill="none" stroke="#edeff3" stroke-linecap="round" stroke-width="1"/>
      <line id="Line_72-2" data-name="Line 72" x2="55" transform="translate(11500.5 4621.5)" fill="none" stroke="#edeff3" stroke-linecap="round" stroke-width="1"/>
      <line id="Line_73-2" data-name="Line 73" x2="50" transform="translate(11500.5 4609.5)" fill="none" stroke="#edeff3" stroke-linecap="round" stroke-width="1"/>
    </g>
    <g id="Group_4148" data-name="Group 4148" transform="translate(-534.9 5651.5)">
      <path id="Path_11173" data-name="Path 11173" d="M976.651,452.75c0-3.757-1.963-6-5.25-6s-5.251,2.243-5.251,6a9.594,9.594,0,0,0,1.532,4.628,15.624,15.624,0,0,0-6.672-2.3c1.394-1.66,3.64-4.767,3.64-7.582,0-3.757-1.962-6-5.25-6s-5.249,2.243-5.249,6c0,2.815,2.246,5.922,3.64,7.582a15.624,15.624,0,0,0-6.672,2.3,9.594,9.594,0,0,0,1.532-4.628c0-3.757-1.963-6-5.251-6s-5.25,2.243-5.25,6c0,3.694,3.869,7.9,4.6,8.657a15.751,15.751,0,1,0,25.3,0c.731-.761,4.6-4.963,4.6-8.657Zm-9,0c0-2.9,1.331-4.5,3.75-4.5s3.75,1.6,3.75,4.5c0,2.642-2.6,5.858-3.75,7.147-1.147-1.289-3.75-4.505-3.75-7.147Zm.885,7.077a13.18,13.18,0,0,1-4.148,2.691,29.152,29.152,0,0,0-3.353-5.917,14.191,14.191,0,0,1,7.5,3.226ZM954.178,470a19.484,19.484,0,0,1,1.124-5.572,14.6,14.6,0,0,0,8.2,0A19.515,19.515,0,0,1,964.623,470Zm10.445,1.5a19.714,19.714,0,0,1-1.249,5.935,15.693,15.693,0,0,0-7.948,0,19.806,19.806,0,0,1-1.248-5.935Zm-8.973-24c0-2.9,1.332-4.5,3.75-4.5s3.75,1.6,3.75,4.5c0,2.642-2.6,5.858-3.75,7.147-1.146-1.289-3.75-4.505-3.75-7.147Zm3.75,9.438a28.242,28.242,0,0,1,3.554,6.07,12.706,12.706,0,0,1-7.107,0,28.333,28.333,0,0,1,3.553-6.07Zm-1.634-.337a29.2,29.2,0,0,0-3.353,5.917,13.168,13.168,0,0,1-4.148-2.691,14.184,14.184,0,0,1,7.5-3.226ZM943.65,452.75c0-2.9,1.332-4.5,3.75-4.5s3.75,1.6,3.75,4.5c0,2.642-2.6,5.858-3.75,7.147-1.146-1.289-3.75-4.505-3.75-7.147Zm5.515,8.109a14.719,14.719,0,0,0,4.71,3.074A21.072,21.072,0,0,0,952.683,470h-7.494a14.186,14.186,0,0,1,3.976-9.141ZM945.189,471.5h7.494a21.276,21.276,0,0,0,1.3,6.389,15.473,15.473,0,0,0-4.764,2.813,14.184,14.184,0,0,1-4.031-9.2Zm5.133,10.225a13.976,13.976,0,0,1,4.212-2.441,29.142,29.142,0,0,0,3.232,5.615,14.192,14.192,0,0,1-7.444-3.174ZM956,478.837a14.194,14.194,0,0,1,6.8,0,28.4,28.4,0,0,1-3.4,5.725,28.409,28.409,0,0,1-3.4-5.725Zm5.033,6.062a29.033,29.033,0,0,0,3.232-5.615,13.99,13.99,0,0,1,4.213,2.441,14.192,14.192,0,0,1-7.445,3.174Zm8.547-4.2a15.457,15.457,0,0,0-4.763-2.813,21.282,21.282,0,0,0,1.3-6.389h7.494a14.2,14.2,0,0,1-4.032,9.2Zm4.031-10.7h-7.494a21.072,21.072,0,0,0-1.192-6.067,14.719,14.719,0,0,0,4.71-3.074A14.188,14.188,0,0,1,973.612,470Zm0,0" fill="#0364ff"/>
      <path id="Path_11174" data-name="Path 11174" d="M959.4,444.5a2.25,2.25,0,1,0,2.251,2.25,2.253,2.253,0,0,0-2.251-2.25Zm0,3a.75.75,0,1,1,.751-.75.751.751,0,0,1-.751.75Zm0,0" fill="#0364ff"/>
      <path id="Path_11175" data-name="Path 11175" d="M971.4,449.75A2.25,2.25,0,1,0,973.65,452a2.253,2.253,0,0,0-2.249-2.25Zm0,3a.75.75,0,1,1,.749-.75.751.751,0,0,1-.749.75Zm0,0" fill="#0364ff"/>
      <path id="Path_11176" data-name="Path 11176" d="M947.4,449.75a2.25,2.25,0,1,0,2.25,2.25,2.253,2.253,0,0,0-2.25-2.25Zm0,3a.75.75,0,1,1,.75-.75.751.751,0,0,1-.75.75Zm0,0" fill="#0364ff"/>
      <rect id="Rectangle_3775" data-name="Rectangle 3775" width="1.5" height="1.5" transform="translate(974.4 482)" fill="#0364ff"/>
      <rect id="Rectangle_3776" data-name="Rectangle 3776" width="1.5" height="1.5" transform="translate(974.4 485)" fill="#0364ff"/>
      <rect id="Rectangle_3777" data-name="Rectangle 3777" width="1.5" height="1.5" transform="translate(977.4 485)" fill="#0364ff"/>
      <rect id="Rectangle_3778" data-name="Rectangle 3778" width="1.5" height="1.5" transform="translate(971.401 485)" fill="#0364ff"/>
      <rect id="Rectangle_3779" data-name="Rectangle 3779" width="1.5" height="1.5" transform="translate(942.901 482)" fill="#0364ff"/>
      <rect id="Rectangle_3780" data-name="Rectangle 3780" width="1.5" height="1.5" transform="translate(942.901 485)" fill="#0364ff"/>
      <rect id="Rectangle_3781" data-name="Rectangle 3781" width="1.5" height="1.5" transform="translate(945.9 485)" fill="#0364ff"/>
      <rect id="Rectangle_3782" data-name="Rectangle 3782" width="1.5" height="1.5" transform="translate(939.9 485)" fill="#0364ff"/>
    </g>
  </g>
</svg>
