<svg xmlns="http://www.w3.org/2000/svg" width="68" height="61" viewBox="0 0 68 61">
  <g id="cpi4" transform="translate(-405 -1949)">
    <g id="Group_4142" data-name="Group 4142" transform="translate(-10914 -2648)">
      <path id="Path_11153" data-name="Path 11153" d="M409.248,193.185q.2-.96.3-1.921a24.384,24.384,0,0,0-8.665-20.991c-17.064-14.122-48.634-7.275-57.241,13.2-3.528,8.394-.868,18.1,3.569,26.079a30.474,30.474,0,0,0,7.957,9.825c5.949,4.472,14.193,5.384,21.486,3.588C389.563,219.789,406.441,206.68,409.248,193.185Z" transform="translate(10976.986 4434.168)" fill="#f4f6f8"/>
      <line id="Line_70" data-name="Line 70" y2="58" transform="translate(11342.5 4599.5)" fill="none" stroke="#edeff3" stroke-linecap="round" stroke-width="1"/>
      <line id="Line_71" data-name="Line 71" y2="60" transform="translate(11354.5 4597.5)" fill="none" stroke="#edeff3" stroke-linecap="round" stroke-width="1"/>
      <line id="Line_72" data-name="Line 72" y2="53" transform="translate(11366.5 4598.5)" fill="none" stroke="#edeff3" stroke-linecap="round" stroke-width="1"/>
      <line id="Line_73" data-name="Line 73" y2="35" transform="translate(11378.5 4605.5)" fill="none" stroke="#edeff3" stroke-linecap="round" stroke-width="1"/>
      <line id="Line_70-2" data-name="Line 70" x2="43" transform="translate(11331.5 4645.5)" fill="none" stroke="#edeff3" stroke-linecap="round" stroke-width="1"/>
      <line id="Line_71-2" data-name="Line 71" x2="52" transform="translate(11331.5 4633.5)" fill="none" stroke="#edeff3" stroke-linecap="round" stroke-width="1"/>
      <line id="Line_72-2" data-name="Line 72" x2="55" transform="translate(11331.5 4621.5)" fill="none" stroke="#edeff3" stroke-linecap="round" stroke-width="1"/>
      <line id="Line_73-2" data-name="Line 73" x2="50" transform="translate(11331.5 4609.5)" fill="none" stroke="#edeff3" stroke-linecap="round" stroke-width="1"/>
    </g>
    <g id="Group_4011" data-name="Group 4011" transform="translate(-285 873)">
      <path id="Path_890" data-name="Path 890" d="M250.371,195.089a2.241,2.241,0,1,0,2.24,2.241,2.243,2.243,0,0,0-2.24-2.241Zm0,3.313a1.072,1.072,0,1,1,1.072-1.072,1.071,1.071,0,0,1-1.072,1.072Zm0,0" transform="translate(464.045 933.192)" fill="#1045db"/>
      <path id="Path_891" data-name="Path 891" d="M257.879,195.089a2.241,2.241,0,1,0,2.241,2.241,2.241,2.241,0,0,0-2.241-2.241Zm0,3.313a1.072,1.072,0,1,1,1.072-1.072,1.071,1.071,0,0,1-1.072,1.072Zm0,0" transform="translate(462.196 933.192)" fill="#1045db"/>
      <path id="Path_892" data-name="Path 892" d="M223.181,195.348a.585.585,0,0,0-.585.585v2.922a.585.585,0,0,0,1.17,0v-2.922a.585.585,0,0,0-.585-.585Zm0,0" transform="translate(470.326 933.128)" fill="#1045db"/>
      <path id="Path_893" data-name="Path 893" d="M226.676,195.348a.585.585,0,0,0-.585.585v2.922a.585.585,0,1,0,1.169,0v-2.922a.585.585,0,0,0-.585-.585Zm0,0" transform="translate(469.462 933.128)" fill="#1045db"/>
      <path id="Path_894" data-name="Path 894" d="M230.042,195.348a.585.585,0,0,0-.585.585v2.922a.584.584,0,1,0,1.169,0v-2.922a.585.585,0,0,0-.584-.585Zm0,0" transform="translate(468.64 933.128)" fill="#1045db"/>
      <path id="Path_895" data-name="Path 895" d="M233.407,195.348a.585.585,0,0,0-.584.585v2.922a.584.584,0,1,0,1.169,0v-2.922a.585.585,0,0,0-.585-.585Zm0,0" transform="translate(467.812 933.128)" fill="#1045db"/>
      <path id="Path_896" data-name="Path 896" d="M236.9,195.348a.585.585,0,0,0-.585.585v2.922a.584.584,0,1,0,1.169,0v-2.922a.585.585,0,0,0-.584-.585Zm0,0" transform="translate(466.951 933.128)" fill="#1045db"/>
      <path id="Path_897" data-name="Path 897" d="M252.866,178.137a.455.455,0,0,1-.414.437H249.1a.511.511,0,0,0-.552-.388h-24.4a.51.51,0,0,0-.551.388H220.25a.415.415,0,0,1-.366-.437v-9.7a.331.331,0,0,1,.366-.34h3.4a.823.823,0,0,0,.506.292h21.1v-1.165H224.763v-1.456h18.247V164.6H224.153a.51.51,0,0,0-.551.388H220.25a.415.415,0,0,1-.366-.437v-9.7a.331.331,0,0,1,.366-.34h20.906v-1.164H220.25a1.5,1.5,0,0,0-1.537,1.5v9.7a1.581,1.581,0,0,0,1.537,1.6h3.342v.777H220.25a1.5,1.5,0,0,0-1.537,1.5v9.7a1.581,1.581,0,0,0,1.537,1.6h3.342v.777H220.25a1.5,1.5,0,0,0-1.537,1.5v9.7a1.581,1.581,0,0,0,1.537,1.6h32.2a1.622,1.622,0,0,0,1.585-1.6v-9.7a1.539,1.539,0,0,0-1.585-1.5h-3.294v-.777h3.294a1.622,1.622,0,0,0,1.585-1.6V168.093h-1.171Zm-4.879,2.669H224.763V179.35h23.224Zm4.879,1.213v9.7a.455.455,0,0,1-.414.437h-32.2a.415.415,0,0,1-.366-.437v-9.7a.331.331,0,0,1,.366-.34h3.4a.823.823,0,0,0,.506.292h24.4a.823.823,0,0,0,.507-.292h3.4a.372.372,0,0,1,.414.34Zm0,0" transform="translate(471.287 943.676)" fill="#1045db"/>
      <path id="Path_898" data-name="Path 898" d="M250.371,176.966a2.241,2.241,0,1,0,2.24,2.241,2.243,2.243,0,0,0-2.24-2.241Zm0,3.313a1.072,1.072,0,1,1,1.072-1.072,1.071,1.071,0,0,1-1.072,1.072Zm0,0" transform="translate(464.045 937.744)" fill="#1045db"/>
      <path id="Path_899" data-name="Path 899" d="M255.639,179.207a2.241,2.241,0,1,0,2.24-2.241,2.241,2.241,0,0,0-2.24,2.241Zm3.312,0a1.071,1.071,0,1,1-1.072-1.072,1.07,1.07,0,0,1,1.072,1.072Zm0,0" transform="translate(462.196 937.744)" fill="#1045db"/>
      <path id="Path_900" data-name="Path 900" d="M222.6,177.81v2.923a.585.585,0,0,0,1.17,0V177.81a.585.585,0,0,0-1.17,0Zm0,0" transform="translate(470.326 937.68)" fill="#1045db"/>
      <path id="Path_901" data-name="Path 901" d="M226.091,177.81v2.923a.585.585,0,0,0,1.169,0V177.81a.585.585,0,0,0-1.169,0Zm0,0" transform="translate(469.462 937.68)" fill="#1045db"/>
      <path id="Path_902" data-name="Path 902" d="M229.457,177.81v2.923a.584.584,0,0,0,1.169,0V177.81a.584.584,0,1,0-1.169,0Zm0,0" transform="translate(468.64 937.68)" fill="#1045db"/>
      <path id="Path_903" data-name="Path 903" d="M232.823,177.81v2.923a.584.584,0,0,0,1.169,0V177.81a.584.584,0,1,0-1.169,0Zm0,0" transform="translate(467.812 937.68)" fill="#1045db"/>
      <path id="Path_904" data-name="Path 904" d="M236.318,177.81v2.923a.584.584,0,0,0,1.169,0V177.81a.584.584,0,1,0-1.169,0Zm0,0" transform="translate(466.951 937.68)" fill="#1045db"/>
      <path id="Path_905" data-name="Path 905" d="M222.6,159.687v2.923a.585.585,0,0,0,1.17,0v-2.923a.585.585,0,0,0-1.17,0Zm0,0" transform="translate(470.326 942.215)" fill="#1045db"/>
      <path id="Path_906" data-name="Path 906" d="M226.091,159.687v2.923a.585.585,0,0,0,1.169,0v-2.923a.585.585,0,0,0-1.169,0Zm0,0" transform="translate(469.462 942.215)" fill="#1045db"/>
      <path id="Path_907" data-name="Path 907" d="M229.457,159.687v2.923a.584.584,0,0,0,1.169,0v-2.923a.584.584,0,1,0-1.169,0Zm0,0" transform="translate(468.64 942.215)" fill="#1045db"/>
      <path id="Path_908" data-name="Path 908" d="M232.823,159.687v2.923a.584.584,0,0,0,1.169,0v-2.923a.584.584,0,1,0-1.169,0Zm0,0" transform="translate(467.812 942.215)" fill="#1045db"/>
      <path id="Path_909" data-name="Path 909" d="M236.318,159.687v2.923a.584.584,0,0,0,1.169,0v-2.923a.584.584,0,1,0-1.169,0Zm0,0" transform="translate(466.951 942.215)" fill="#1045db"/>
      <path id="Path_910" data-name="Path 910" d="M265.5,151.349l-8.636-4.606a.579.579,0,0,0-.553,0l-8.415,4.605a.6.6,0,0,0-.315.513v5.314a12.622,12.622,0,0,0,7.572,11.541l1.173.509a.614.614,0,0,0,.237.049.594.594,0,0,0,.233-.048l1.3-.567a12.574,12.574,0,0,0,7.7-11.6v-5.194a.574.574,0,0,0-.3-.516Zm-.871,5.71a11.407,11.407,0,0,1-6.988,10.526l0,0-1.08.467-.944-.406a11.452,11.452,0,0,1-6.87-10.47v-4.967l7.825-4.288,8.056,4.293Zm0,0" transform="translate(464.202 945.325)" fill="#00c3ff"/>
      <g id="Group_449" data-name="Group 449" transform="translate(716.359 1097.017)">
        <g id="Group_448" data-name="Group 448" transform="translate(0 0)">
          <path id="Path_911" data-name="Path 911" d="M262.71,160.538l-.009-.118a7.128,7.128,0,0,0-1.718-3.93,4.715,4.715,0,0,1-1.278-2.9.253.253,0,0,0-.137-.224.249.249,0,0,0-.262.019,6.408,6.408,0,0,0-2.365,3.417,11.18,11.18,0,0,0-.259,2.555c-1.026-.22-1.26-1.757-1.262-1.773a.252.252,0,0,0-.359-.191c-.054.026-1.322.671-1.4,3.244-.005.086-.005.172-.005.257a4.534,4.534,0,1,0,9.067,0C262.727,160.772,262.718,160.655,262.71,160.538Zm-4.516,4.39a1.564,1.564,0,0,1-1.511-1.61c0-.031,0-.061,0-.1a2.046,2.046,0,0,1,.16-.8.92.92,0,0,0,.832.6.252.252,0,0,0,.251-.252,5.022,5.022,0,0,1,.1-1.145,2.428,2.428,0,0,1,.509-.966,3.26,3.26,0,0,0,.519.952,2.867,2.867,0,0,1,.646,1.573c0,.044.007.087.007.134A1.565,1.565,0,0,1,258.194,164.928Zm1.592-.33a2.158,2.158,0,0,0,.423-1.28c0-.059,0-.114-.011-.217a3.3,3.3,0,0,0-.732-1.779,2,2,0,0,1-.5-1.179.251.251,0,0,0-.4-.2,2.941,2.941,0,0,0-1.026,1.566,4.594,4.594,0,0,0-.106.894,1.19,1.19,0,0,1-.229-.541.254.254,0,0,0-.365-.19c-.063.032-.621.352-.652,1.528,0,.04,0,.08,0,.12a2.153,2.153,0,0,0,.424,1.28,4.034,4.034,0,0,1-2.438-3.7c0-.075,0-.151.005-.235a3.775,3.775,0,0,1,.841-2.589c.22.787.8,1.816,1.924,1.816a.251.251,0,0,0,.252-.251,11.226,11.226,0,0,1,.245-2.709,5.981,5.981,0,0,1,1.8-2.84,5.738,5.738,0,0,0,1.346,2.7,6.619,6.619,0,0,1,1.62,3.665l.008.12c.008.105.017.21.017.322A4.036,4.036,0,0,1,259.785,164.6Z" transform="translate(-253.66 -153.341)" fill="#00c3ff" stroke="#00c3ff" stroke-miterlimit="10" stroke-width="1"/>
        </g>
      </g>
    </g>
  </g>
</svg>
