<svg xmlns="http://www.w3.org/2000/svg" width="68" height="61" viewBox="0 0 68 61">
  <g id="cpi6" transform="translate(-405 -2295)">
    <path id="Path_11153" data-name="Path 11153" d="M409.248,193.185q.2-.96.3-1.921a24.384,24.384,0,0,0-8.665-20.991c-17.064-14.122-48.634-7.275-57.241,13.2-3.528,8.394-.868,18.1,3.569,26.079a30.474,30.474,0,0,0,7.957,9.825c5.949,4.472,14.193,5.384,21.486,3.588C389.563,219.789,406.441,206.68,409.248,193.185Z" transform="translate(62.987 2132.168)" fill="#f4f6f8"/>
    <line id="Line_70" data-name="Line 70" y2="58" transform="translate(428.5 2297.5)" fill="none" stroke="#edeff3" stroke-linecap="round" stroke-width="1"/>
    <line id="Line_71" data-name="Line 71" y2="60" transform="translate(440.5 2295.5)" fill="none" stroke="#edeff3" stroke-linecap="round" stroke-width="1"/>
    <line id="Line_72" data-name="Line 72" y2="53" transform="translate(452.5 2296.5)" fill="none" stroke="#edeff3" stroke-linecap="round" stroke-width="1"/>
    <line id="Line_73" data-name="Line 73" y2="35" transform="translate(464.5 2303.5)" fill="none" stroke="#edeff3" stroke-linecap="round" stroke-width="1"/>
    <line id="Line_70-2" data-name="Line 70" x2="43" transform="translate(417.5 2343.5)" fill="none" stroke="#edeff3" stroke-linecap="round" stroke-width="1"/>
    <line id="Line_71-2" data-name="Line 71" x2="52" transform="translate(417.5 2331.5)" fill="none" stroke="#edeff3" stroke-linecap="round" stroke-width="1"/>
    <line id="Line_72-2" data-name="Line 72" x2="55" transform="translate(417.5 2319.5)" fill="none" stroke="#edeff3" stroke-linecap="round" stroke-width="1"/>
    <line id="Line_73-2" data-name="Line 73" x2="50" transform="translate(417.5 2307.5)" fill="none" stroke="#edeff3" stroke-linecap="round" stroke-width="1"/>
    <g id="Group_4009" data-name="Group 4009" transform="translate(0 913)">
      <path id="Path_934" data-name="Path 934" d="M364.4,290.147a15.351,15.351,0,0,0-2.67,30.455l.2-1.162a14.089,14.089,0,0,1-7.637-4.063,13.869,13.869,0,0,1,2.607-2.1,14.756,14.756,0,0,0,4.359,5.924l.731-.925a13.625,13.625,0,0,1-4.061-5.582,14.239,14.239,0,0,1,5.873-1.533v2.121h1.175v-2.121a14.453,14.453,0,0,1,2.693.369l.27-1.149a15.572,15.572,0,0,0-2.964-.4V306.1h7.21a21.151,21.151,0,0,1-.2,2.363l1.164.171a21.743,21.743,0,0,0,.209-2.535H378.5a14.139,14.139,0,0,1-1.332,5.442l1.064.5a15.366,15.366,0,0,0-13.828-21.9Zm10.853,6.313a14.06,14.06,0,0,1,3.244,8.462h-5.129a20.207,20.207,0,0,0-1.049-6.118,15.123,15.123,0,0,0,2.933-2.345Zm-.79-.887a13.908,13.908,0,0,1-2.569,2.093,14.65,14.65,0,0,0-4.535-6.025,14.08,14.08,0,0,1,7.1,3.932ZM350.3,304.922a14.018,14.018,0,0,1,3.21-8.422,15.044,15.044,0,0,0,2.957,2.337,20.676,20.676,0,0,0-1.038,6.085Zm7.215-5.512A15.21,15.21,0,0,0,363.807,301v3.921h-7.2a19.533,19.533,0,0,1,.91-5.512Zm.4-1.126a13.117,13.117,0,0,1,5.885-6.775v8.312a14.278,14.278,0,0,1-5.885-1.537Zm7.06-6.775a13.078,13.078,0,0,1,5.875,6.749,14.063,14.063,0,0,1-5.875,1.563Zm-3.538.132A14.656,14.656,0,0,0,356.9,297.7a13.832,13.832,0,0,1-2.592-2.088,14.085,14.085,0,0,1,7.141-3.969Zm-7.932,22.866A14.242,14.242,0,0,1,350.3,306.1h5.129a20.469,20.469,0,0,0,1.048,6.069,15.019,15.019,0,0,0-2.97,2.336Zm10.3-4.527a15.208,15.208,0,0,0-6.282,1.611,19.246,19.246,0,0,1-.915-5.489h7.2Zm1.175-8.98a15,15,0,0,0,6.287-1.617,19.616,19.616,0,0,1,.924,5.539h-7.211Zm0,0" transform="translate(55.989 1107.964)" fill="#1045db"/>
      <path id="Path_935" data-name="Path 935" d="M381.6,338.259a2.06,2.06,0,0,0-1.59-2.05v-1.141a3.031,3.031,0,0,0-1.589-2.674,1.852,1.852,0,0,1-.969-1.635V328.3h2.817a3.385,3.385,0,0,0,2.408,3.167,2.226,2.226,0,0,1,1.563,2.138v1.233a2.112,2.112,0,0,0-1.514,2.042A2.139,2.139,0,0,0,384.862,339a2.115,2.115,0,0,0,2.109-2.126,2.145,2.145,0,0,0-1.553-2.042V333.6a3.41,3.41,0,0,0-2.41-3.269,2.169,2.169,0,0,1-1.558-2.035h.652a5.361,5.361,0,0,0,.277-10.714,6.381,6.381,0,0,0-11.279-.72,4.685,4.685,0,0,0-4,4.621c0,.029,0,.058,0,.086a3.56,3.56,0,0,0-2.062,3c0,.074-.007.13-.007.2a3.531,3.531,0,0,0,3.545,3.524h1.8v2a1.114,1.114,0,0,1-.863,1.11,2.3,2.3,0,0,0-1.793,2.262v3.074a2.113,2.113,0,1,0,1.181,0v-3.073a1.114,1.114,0,0,1,.863-1.109,2.3,2.3,0,0,0,1.793-2.263v-2h2.684a1.654,1.654,0,0,1-1.026,1.466,2.891,2.891,0,0,0-1.757,2.691v.623a2.151,2.151,0,0,0-1.56,2.042,2.119,2.119,0,0,0,2.114,2.126,2.144,2.144,0,0,0,2.144-2.126,2.114,2.114,0,0,0-1.518-2.042v-.623a1.714,1.714,0,0,1,1.031-1.6,2.822,2.822,0,0,0,1.753-2.556h.856v2.46a3.03,3.03,0,0,0,1.588,2.674,1.85,1.85,0,0,1,.969,1.635v1.157a2.219,2.219,0,0,0-1.482,2.034,2.126,2.126,0,1,0,4.252,0Zm4.22-1.381a.946.946,0,1,1-.946-.946.946.946,0,0,1,.946.946Zm-16.6,1.905a.946.946,0,1,1-.946-.946.946.946,0,0,1,.946.946Zm3.721-3.663a.946.946,0,1,1-.946-.946.945.945,0,0,1,.946.946Zm-6.731-10.347c0-.05,0-.091.005-.141a2.364,2.364,0,0,1,1.672-2.106.587.587,0,0,0,.414-.633,3.487,3.487,0,0,1,3.2-3.886.59.59,0,0,0,.476-.305,5.2,5.2,0,0,1,9.446.68.589.589,0,0,0,.571.385h.1a4.175,4.175,0,1,1,0,8.351H368.574a2.35,2.35,0,0,1-2.364-2.344ZM379.5,339.206a.946.946,0,1,1,.945-.947.947.947,0,0,1-.945.947Zm0,0" transform="translate(51.923 1101.709)" fill="#00c3ff"/>
      <rect id="Rectangle_251" data-name="Rectangle 251" width="35" height="45" transform="translate(405 1398)" fill="none"/>
    </g>
  </g>
</svg>
