<svg xmlns="http://www.w3.org/2000/svg" width="62" height="70" viewBox="0 0 62 70">
  <g id="service-icon16" transform="translate(-690 -1092)">
    <path id="Path_890" data-name="Path 890" d="M251.606,195.089a3.476,3.476,0,1,0,3.475,3.476,3.479,3.479,0,0,0-3.475-3.476Zm0,5.138a1.663,1.663,0,1,1,1.662-1.662,1.662,1.662,0,0,1-1.662,1.662Zm0,0" transform="translate(476.238 953.387)" fill="#1045db"/>
    <path id="Path_891" data-name="Path 891" d="M259.114,195.089a3.475,3.475,0,1,0,3.476,3.476,3.476,3.476,0,0,0-3.476-3.476Zm0,5.138a1.663,1.663,0,1,1,1.662-1.662,1.662,1.662,0,0,1-1.662,1.662Zm0,0" transform="translate(477.502 953.387)" fill="#1045db"/>
    <path id="Path_892" data-name="Path 892" d="M223.5,195.348a.907.907,0,0,0-.907.907v4.532a.907.907,0,1,0,1.814,0v-4.532a.907.907,0,0,0-.907-.907Zm0,0" transform="translate(471.937 953.43)" fill="#1045db"/>
    <path id="Path_893" data-name="Path 893" d="M227,195.348a.907.907,0,0,0-.907.907v4.532a.907.907,0,1,0,1.814,0v-4.532a.907.907,0,0,0-.907-.907Zm0,0" transform="translate(472.521 953.43)" fill="#1045db"/>
    <path id="Path_894" data-name="Path 894" d="M230.364,195.348a.907.907,0,0,0-.907.907v4.532a.906.906,0,1,0,1.813,0v-4.532a.907.907,0,0,0-.906-.907Zm0,0" transform="translate(473.094 953.43)" fill="#1045db"/>
    <path id="Path_895" data-name="Path 895" d="M233.729,195.348a.907.907,0,0,0-.906.907v4.532a.906.906,0,1,0,1.813,0v-4.532a.907.907,0,0,0-.907-.907Zm0,0" transform="translate(473.661 953.43)" fill="#1045db"/>
    <path id="Path_896" data-name="Path 896" d="M237.225,195.348a.907.907,0,0,0-.907.907v4.532a.906.906,0,1,0,1.813,0v-4.532a.907.907,0,0,0-.906-.907Zm0,0" transform="translate(474.248 953.43)" fill="#1045db"/>
    <path id="Path_897" data-name="Path 897" d="M271.645,191.926a.706.706,0,0,1-.641.68H265.81a.793.793,0,0,0-.855-.6h-37.81a.791.791,0,0,0-.854.6h-5.2a.646.646,0,0,1-.568-.68v-15.1a.514.514,0,0,1,.568-.528h5.266a1.275,1.275,0,0,0,.784.454h32.7v-1.813H228.09v-2.266h28.281V170.86H227.145a.791.791,0,0,0-.854.6h-5.2a.646.646,0,0,1-.568-.68v-15.1a.514.514,0,0,1,.568-.528h32.4v-1.812H221.1a2.325,2.325,0,0,0-2.382,2.34v15.1a2.456,2.456,0,0,0,2.382,2.492h5.179v1.209H221.1a2.325,2.325,0,0,0-2.382,2.34v15.1a2.456,2.456,0,0,0,2.382,2.492h5.179v1.209H221.1a2.325,2.325,0,0,0-2.382,2.34v15.1a2.456,2.456,0,0,0,2.382,2.492H271a2.519,2.519,0,0,0,2.457-2.492v-15.1a2.389,2.389,0,0,0-2.457-2.34H265.9v-1.209H271a2.519,2.519,0,0,0,2.457-2.492V176.3h-1.816Zm-7.561,4.153H228.09v-2.266h35.994Zm7.561,1.888v15.1a.706.706,0,0,1-.641.68H221.1a.646.646,0,0,1-.568-.68v-15.1a.514.514,0,0,1,.568-.528h5.266a1.275,1.275,0,0,0,.784.454h37.81a1.275,1.275,0,0,0,.785-.454H271a.577.577,0,0,1,.641.528Zm0,0" transform="translate(471.287 946.44)" fill="#1045db"/>
    <path id="Path_898" data-name="Path 898" d="M251.606,176.966a3.476,3.476,0,1,0,3.475,3.476,3.479,3.479,0,0,0-3.475-3.476Zm0,5.138a1.663,1.663,0,1,1,1.662-1.662,1.662,1.662,0,0,1-1.662,1.662Zm0,0" transform="translate(476.238 950.372)" fill="#1045db"/>
    <path id="Path_899" data-name="Path 899" d="M255.639,180.442a3.475,3.475,0,1,0,3.475-3.476,3.476,3.476,0,0,0-3.475,3.476Zm5.137,0a1.662,1.662,0,1,1-1.662-1.662,1.66,1.66,0,0,1,1.662,1.662Zm0,0" transform="translate(477.502 950.372)" fill="#1045db"/>
    <path id="Path_900" data-name="Path 900" d="M222.6,178.132v4.534a.907.907,0,0,0,1.814,0v-4.534a.907.907,0,0,0-1.814,0Zm0,0" transform="translate(471.937 950.415)" fill="#1045db"/>
    <path id="Path_901" data-name="Path 901" d="M226.091,178.132v4.534a.907.907,0,0,0,1.814,0v-4.534a.907.907,0,0,0-1.814,0Zm0,0" transform="translate(472.521 950.415)" fill="#1045db"/>
    <path id="Path_902" data-name="Path 902" d="M229.457,178.132v4.534a.906.906,0,0,0,1.813,0v-4.534a.906.906,0,1,0-1.813,0Zm0,0" transform="translate(473.094 950.415)" fill="#1045db"/>
    <path id="Path_903" data-name="Path 903" d="M232.823,178.132v4.534a.906.906,0,0,0,1.813,0v-4.534a.906.906,0,1,0-1.813,0Zm0,0" transform="translate(473.661 950.415)" fill="#1045db"/>
    <path id="Path_904" data-name="Path 904" d="M236.318,178.132v4.534a.906.906,0,0,0,1.813,0v-4.534a.906.906,0,1,0-1.813,0Zm0,0" transform="translate(474.248 950.415)" fill="#1045db"/>
    <path id="Path_905" data-name="Path 905" d="M222.6,160.009v4.534a.907.907,0,0,0,1.814,0v-4.534a.907.907,0,0,0-1.814,0Zm0,0" transform="translate(471.937 947.395)" fill="#1045db"/>
    <path id="Path_906" data-name="Path 906" d="M226.091,160.009v4.534a.907.907,0,0,0,1.814,0v-4.534a.907.907,0,0,0-1.814,0Zm0,0" transform="translate(472.521 947.395)" fill="#1045db"/>
    <path id="Path_907" data-name="Path 907" d="M229.457,160.009v4.534a.906.906,0,0,0,1.813,0v-4.534a.906.906,0,1,0-1.813,0Zm0,0" transform="translate(473.094 947.395)" fill="#1045db"/>
    <path id="Path_908" data-name="Path 908" d="M232.823,160.009v4.534a.906.906,0,0,0,1.813,0v-4.534a.906.906,0,1,0-1.813,0Zm0,0" transform="translate(473.661 947.395)" fill="#1045db"/>
    <path id="Path_909" data-name="Path 909" d="M236.318,160.009v4.534a.906.906,0,0,0,1.813,0v-4.534a.906.906,0,1,0-1.813,0Zm0,0" transform="translate(474.248 947.395)" fill="#1045db"/>
    <path id="Path_910" data-name="Path 910" d="M275.374,153.925l-13.394-7.144a.9.9,0,0,0-.858.006l-13.052,7.142a.925.925,0,0,0-.489.795v8.242a19.577,19.577,0,0,0,11.744,17.9l1.819.789a.951.951,0,0,0,.368.076.921.921,0,0,0,.362-.075l2.022-.88a19.5,19.5,0,0,0,11.942-18v-8.056a.89.89,0,0,0-.462-.8Zm-1.35,8.856a17.693,17.693,0,0,1-10.839,16.327l0,0-1.675.725-1.465-.63a17.763,17.763,0,0,1-10.655-16.239v-7.7l12.136-6.651,12.494,6.658Zm0,0" transform="translate(476.164 945.325)" fill="#00c3ff"/>
    <g id="Group_449" data-name="Group 449" transform="translate(730.842 1099.781)">
      <g id="Group_448" data-name="Group 448" transform="translate(0 0)">
        <path id="Path_911" data-name="Path 911" d="M267.7,164.5l-.014-.183a11.056,11.056,0,0,0-2.665-6.1c-1.063-1.431-1.982-2.668-1.982-4.492a.392.392,0,0,0-.212-.348.387.387,0,0,0-.406.029,9.939,9.939,0,0,0-3.668,5.3,17.336,17.336,0,0,0-.4,3.963c-1.592-.341-1.954-2.724-1.958-2.75a.391.391,0,0,0-.557-.3c-.084.041-2.051,1.04-2.165,5.031-.008.133-.008.266-.008.4a7.032,7.032,0,1,0,14.063,0C267.723,164.867,267.709,164.686,267.7,164.5Zm-7,6.809a2.426,2.426,0,0,1-2.344-2.5c0-.048,0-.095,0-.153a3.173,3.173,0,0,1,.247-1.241,1.427,1.427,0,0,0,1.29.935.39.39,0,0,0,.39-.391,7.79,7.79,0,0,1,.151-1.777,3.767,3.767,0,0,1,.79-1.5,5.057,5.057,0,0,0,.805,1.477,4.448,4.448,0,0,1,1,2.44c.006.068.01.134.01.208A2.427,2.427,0,0,1,260.692,171.312Zm2.469-.511a3.347,3.347,0,0,0,.656-1.986c0-.092-.006-.177-.017-.337a5.115,5.115,0,0,0-1.136-2.759,3.1,3.1,0,0,1-.777-1.829.39.39,0,0,0-.626-.312,4.561,4.561,0,0,0-1.592,2.429,7.13,7.13,0,0,0-.165,1.387,1.846,1.846,0,0,1-.355-.839.393.393,0,0,0-.566-.3c-.1.05-.963.546-1.012,2.371,0,.062,0,.124,0,.186a3.34,3.34,0,0,0,.657,1.986,6.256,6.256,0,0,1-3.782-5.739c0-.117,0-.233.008-.364a5.854,5.854,0,0,1,1.3-4.015c.341,1.221,1.235,2.817,2.984,2.817a.39.39,0,0,0,.391-.39,17.412,17.412,0,0,1,.379-4.2,9.277,9.277,0,0,1,2.8-4.405,8.9,8.9,0,0,0,2.087,4.189,10.266,10.266,0,0,1,2.513,5.685l.013.187c.013.163.026.326.026.5A6.26,6.26,0,0,1,263.16,170.8Z" transform="translate(-253.66 -153.341)" fill="#00c3ff" stroke="#00c3ff" stroke-miterlimit="10" stroke-width="1"/>
      </g>
    </g>
  </g>
</svg>
