<svg xmlns="http://www.w3.org/2000/svg" width="53.075" height="60" viewBox="0 0 53.075 60">
  <g id="service-icon4" transform="translate(-428 812)">
    <g id="Group_4626" data-name="Group 4626">
      <path id="Path_942" data-name="Path 942" d="M350.874,339.486a.777.777,0,0,0-.777.776v3.884a.777.777,0,0,0,1.553,0v-3.884a.777.777,0,0,0-.776-.776Zm0,0" transform="translate(81.787 -1102.813)" fill="#1d0f9b"/>
      <path id="Path_943" data-name="Path 943" d="M354.369,339.486a.777.777,0,0,0-.777.776v3.884a.777.777,0,0,0,1.554,0v-3.884a.777.777,0,0,0-.777-.776Zm0,0" transform="translate(81.787 -1102.813)" fill="#1d0f9b"/>
      <path id="Path_944" data-name="Path 944" d="M357.735,339.486a.777.777,0,0,0-.777.776v3.884a.776.776,0,0,0,1.553,0v-3.884a.777.777,0,0,0-.776-.776Zm0,0" transform="translate(81.787 -1102.813)" fill="#1d0f9b"/>
      <path id="Path_945" data-name="Path 945" d="M361.1,339.486a.776.776,0,0,0-.776.776v3.884a.777.777,0,0,0,1.553,0v-3.884a.777.777,0,0,0-.777-.776Zm0,0" transform="translate(81.787 -1102.813)" fill="#1d0f9b"/>
      <path id="Path_946" data-name="Path 946" d="M364.6,339.486a.777.777,0,0,0-.776.776v3.884a.777.777,0,0,0,1.553,0v-3.884a.777.777,0,0,0-.777-.776Zm0,0" transform="translate(81.787 -1102.813)" fill="#1d0f9b"/>
      <path id="Path_947" data-name="Path 947" d="M391.521,330.554a.606.606,0,0,1-.55.582h-4.445a.68.68,0,0,0-.733-.518H353.431a.68.68,0,0,0-.732.518h-4.446a.552.552,0,0,1-.486-.582V317.609a.441.441,0,0,1,.486-.454h4.506a1.1,1.1,0,0,0,.672.389h27.993V315.99H354.239v-1.941h24.207v-1.554H353.431a.68.68,0,0,0-.732.518h-4.446a.552.552,0,0,1-.486-.582V299.486a.441.441,0,0,1,.486-.454h27.734v-1.553H348.253a1.995,1.995,0,0,0-2.04,2.007v12.945a2.1,2.1,0,0,0,2.04,2.135h4.433V315.6h-4.433a1.995,1.995,0,0,0-2.04,2.007v12.945a2.1,2.1,0,0,0,2.04,2.135h4.433v1.036h-4.433a1.995,1.995,0,0,0-2.04,2.007v12.944a2.1,2.1,0,0,0,2.04,2.136h42.718a2.156,2.156,0,0,0,2.1-2.136V335.732a2.046,2.046,0,0,0-2.1-2.007H386.6v-1.036h4.369a2.156,2.156,0,0,0,2.1-2.135v-13.4h-1.553Zm-6.473,3.559H354.239v-1.941h30.809Zm6.473,1.619v12.944a.606.606,0,0,1-.55.583H348.253a.553.553,0,0,1-.486-.583V335.732a.441.441,0,0,1,.486-.454h4.506a1.1,1.1,0,0,0,.672.389h32.362a1.094,1.094,0,0,0,.673-.389h4.505a.5.5,0,0,1,.55.454Zm0,0" transform="translate(81.787 -1102.813)" fill="#1d0f9b"/>
      <path id="Path_950" data-name="Path 950" d="M350.1,322.139v3.884a.777.777,0,0,0,1.553,0v-3.884a.777.777,0,0,0-1.553,0Zm0,0" transform="translate(81.787 -1102.813)" fill="#1d0f9b"/>
      <path id="Path_951" data-name="Path 951" d="M353.592,322.139v3.884a.777.777,0,0,0,1.554,0v-3.884a.777.777,0,0,0-1.554,0Zm0,0" transform="translate(81.787 -1102.813)" fill="#1d0f9b"/>
      <path id="Path_952" data-name="Path 952" d="M356.958,322.139v3.884a.776.776,0,0,0,1.553,0v-3.884a.776.776,0,0,0-1.553,0Zm0,0" transform="translate(81.787 -1102.813)" fill="#1d0f9b"/>
      <path id="Path_953" data-name="Path 953" d="M360.324,322.139v3.884a.777.777,0,0,0,1.553,0v-3.884a.777.777,0,0,0-1.553,0Zm0,0" transform="translate(81.787 -1102.813)" fill="#1d0f9b"/>
      <path id="Path_954" data-name="Path 954" d="M363.819,322.139v3.884a.777.777,0,0,0,1.553,0v-3.884a.777.777,0,0,0-1.553,0Zm0,0" transform="translate(81.787 -1102.813)" fill="#1d0f9b"/>
      <path id="Path_955" data-name="Path 955" d="M350.1,304.016V307.9a.777.777,0,0,0,1.553,0v-3.884a.777.777,0,0,0-1.553,0Zm0,0" transform="translate(81.787 -1102.813)" fill="#1d0f9b"/>
      <path id="Path_956" data-name="Path 956" d="M353.592,304.016V307.9a.777.777,0,0,0,1.554,0v-3.884a.777.777,0,0,0-1.554,0Zm0,0" transform="translate(81.787 -1102.813)" fill="#1d0f9b"/>
      <path id="Path_957" data-name="Path 957" d="M356.958,304.016V307.9a.776.776,0,0,0,1.553,0v-3.884a.776.776,0,0,0-1.553,0Zm0,0" transform="translate(81.787 -1102.813)" fill="#1d0f9b"/>
      <path id="Path_958" data-name="Path 958" d="M360.324,304.016V307.9a.777.777,0,0,0,1.553,0v-3.884a.777.777,0,0,0-1.553,0Zm0,0" transform="translate(81.787 -1102.813)" fill="#1d0f9b"/>
      <path id="Path_959" data-name="Path 959" d="M363.819,304.016V307.9a.777.777,0,0,0,1.553,0v-3.884a.777.777,0,0,0-1.553,0Zm0,0" transform="translate(81.787 -1102.813)" fill="#1d0f9b"/>
    </g>
    <g id="Group_4625" data-name="Group 4625">
      <path id="Path_940" data-name="Path 940" d="M378.609,339.227a2.977,2.977,0,1,0,2.977,2.977,2.978,2.978,0,0,0-2.977-2.977Zm0,4.4a1.424,1.424,0,1,1,1.424-1.424,1.423,1.423,0,0,1-1.424,1.424Zm0,0" transform="translate(81.787 -1102.813)" fill="#00c3ff"/>
      <path id="Path_941" data-name="Path 941" d="M386.117,339.227a2.978,2.978,0,1,0,2.977,2.977,2.978,2.978,0,0,0-2.977-2.977Zm0,4.4a1.424,1.424,0,1,1,1.424-1.424,1.423,1.423,0,0,1-1.424,1.424Zm0,0" transform="translate(81.787 -1102.813)" fill="#00c3ff"/>
      <path id="Path_948" data-name="Path 948" d="M378.609,321.1a2.977,2.977,0,1,0,2.977,2.977,2.978,2.978,0,0,0-2.977-2.977Zm0,4.4a1.424,1.424,0,1,1,1.424-1.424,1.423,1.423,0,0,1-1.424,1.424Zm0,0" transform="translate(81.787 -1102.813)" fill="#00c3ff"/>
      <path id="Path_949" data-name="Path 949" d="M386.117,327.058a2.977,2.977,0,1,0-2.977-2.977,2.978,2.978,0,0,0,2.977,2.977Zm0-4.4a1.424,1.424,0,1,1-1.424,1.424,1.424,1.424,0,0,1,1.424-1.424Zm0,0" transform="translate(81.787 -1102.813)" fill="#00c3ff"/>
      <path id="Path_960" data-name="Path 960" d="M385.141,320.1l1.559.676a.811.811,0,0,0,.315.065.786.786,0,0,0,.31-.064l1.732-.753a16.714,16.714,0,0,0,10.231-15.418v-6.9a.759.759,0,0,0-.4-.685l-11.476-6.12a.773.773,0,0,0-.735,0L375.5,297.027a.79.79,0,0,0-.419.681v7.061a16.77,16.77,0,0,0,10.06,15.335Zm-8.507-21.935,10.4-5.7,10.7,5.7v6.435a15.16,15.16,0,0,1-9.286,13.988l0,0-1.435.621-1.255-.54a15.215,15.215,0,0,1-9.127-13.912Zm0,0" transform="translate(81.787 -1102.813)" fill="#00c3ff"/>
      <path id="Path_961" data-name="Path 961" d="M384.839,308.811a.777.777,0,0,0,1.081.1l7.033-5.721a.777.777,0,1,0-.98-1.206l-6.446,5.244L383,304.265a.777.777,0,0,0-1.182,1.009Zm0,0" transform="translate(81.787 -1102.813)" fill="#00c3ff"/>
    </g>
  </g>
</svg>
