<svg xmlns="http://www.w3.org/2000/svg" width="59.996" height="59.996" viewBox="0 0 59.996 59.996">
  <g id="service-icon14" transform="translate(-335.301 -282.301)">
    <path id="Path_9267" data-name="Path 9267" d="M399.048,332.926a3.755,3.755,0,0,0-3.75-3.75H357.8a3.754,3.754,0,0,0-3.749,3.75v5a3.723,3.723,0,0,0,.974,2.5,3.727,3.727,0,0,0-.974,2.5v5a3.755,3.755,0,0,0,3.749,3.75h37.5a3.755,3.755,0,0,0,3.75-3.75v-5a3.723,3.723,0,0,0-.975-2.5,3.72,3.72,0,0,0,.975-2.5Zm-2.5,15a1.252,1.252,0,0,1-1.25,1.25H357.8a1.252,1.252,0,0,1-1.25-1.25v-5a1.252,1.252,0,0,1,1.25-1.25h37.5a1.253,1.253,0,0,1,1.25,1.25Zm0-10a1.252,1.252,0,0,1-1.25,1.25H357.8a1.252,1.252,0,0,1-1.25-1.25v-5a1.252,1.252,0,0,1,1.25-1.25h37.5a1.252,1.252,0,0,1,1.25,1.25Zm0,0" transform="translate(-3.751 -9.378)" fill="#00c3ff"/>
    <path id="Path_9268" data-name="Path 9268" d="M399.675,335.426h-10a1.25,1.25,0,0,0,0,2.5h10a1.25,1.25,0,1,0,0-2.5Zm0,0" transform="translate(-10.628 -10.628)" fill="#00c3ff"/>
    <path id="Path_9269" data-name="Path 9269" d="M399.675,347.925h-10a1.25,1.25,0,0,0,0,2.5h10a1.25,1.25,0,1,0,0-2.5Zm0,0" transform="translate(-10.628 -13.129)" fill="#00c3ff"/>
    <path id="Path_9270" data-name="Path 9270" d="M361.55,347.925a1.25,1.25,0,1,0,1.25,1.25,1.252,1.252,0,0,0-1.25-1.25Zm0,0" transform="translate(-5.001 -13.129)" fill="#00c3ff"/>
    <path id="Path_9271" data-name="Path 9271" d="M361.55,335.426a1.25,1.25,0,1,0,1.25,1.25,1.251,1.251,0,0,0-1.25-1.25Zm0,0" transform="translate(-5.001 -10.628)" fill="#00c3ff"/>
    <path id="Path_9272" data-name="Path 9272" d="M350.54,315.929c-.12-1.2-.148-2.416-.178-3.63H362.8v3.749a1.25,1.25,0,1,0,2.5,0V312.3h12.439c-.03,1.19-.058,2.382-.175,3.555a1.251,1.251,0,0,0,1.122,1.365,1.267,1.267,0,0,0,1.367-1.123c.122-1.25.153-2.527.186-3.8h10.006a26.8,26.8,0,0,1-.378,3.532,1.248,1.248,0,1,0,2.455.455,28.749,28.749,0,1,0-57.018-5.254c0,.007,0,.012,0,.017s0,.013,0,.018A28.661,28.661,0,0,0,345.8,333.259a1.223,1.223,0,0,0,.793.286,1.255,1.255,0,0,0,.8-2.22,26.337,26.337,0,0,1-3.938-4.027h3.1a1.25,1.25,0,0,0,0-2.5h-4.86a26.159,26.159,0,0,1-3.814-12.5h9.987c.032,1.3.065,2.6.193,3.872a1.245,1.245,0,0,0,1.24,1.128c.04,0,.082,0,.127,0a1.249,1.249,0,0,0,1.118-1.366Zm39.7-6.13h-9.977a47.352,47.352,0,0,0-1.882-12.5h7.991a26.034,26.034,0,0,1,3.868,12.5Zm-5.61-15h-7.1a24.984,24.984,0,0,0-5.3-8.682,26.3,26.3,0,0,1,12.4,8.682ZM365.3,284.928c3.773.686,7.152,4.425,9.444,9.872H365.3Zm0,12.372h10.374a43.777,43.777,0,0,1,2.093,12.5H365.3Zm-2.5-12.372V294.8h-9.444c2.292-5.447,5.672-9.187,9.444-9.872ZM347.834,309.8h-9.966a26.032,26.032,0,0,1,3.868-12.5h7.982a47.389,47.389,0,0,0-1.883,12.5Zm-4.356-15a26.328,26.328,0,0,1,12.386-8.677,25.006,25.006,0,0,0-5.3,8.677Zm8.947,2.5H362.8v12.5H350.335a43.807,43.807,0,0,1,2.089-12.5Zm0,0" transform="translate(0)" fill="#00c3ff"/>
  </g>
</svg>
