<svg xmlns="http://www.w3.org/2000/svg" width="48.167" height="60" viewBox="0 0 48.167 60">
  <g id="service-icon7" transform="translate(-146 590)">
    <path id="Path_980" data-name="Path 980" d="M389.642,333.957a.751.751,0,0,0-1.053.128l-2.964,3.778-1.755-1.692a.75.75,0,1,0-1.041,1.08l2.353,2.268a.748.748,0,0,0,.52.21.44.44,0,0,0,.052,0,.749.749,0,0,0,.538-.285l3.477-4.432a.75.75,0,0,0-.127-1.053Zm0,0" transform="translate(-202.417 -880)" fill="#d4e1f4"/>
    <path id="Path_981" data-name="Path 981" d="M370.506,330.944c1.561,0,3.092-.068,4.578-.2v-.29a48.56,48.56,0,0,1-5.826.474q.619.015,1.248.016Zm0,0" transform="translate(-202.417 -880)" fill="#d4e1f4"/>
    <g id="Group_4628" data-name="Group 4628">
      <g id="Group_4627" data-name="Group 4627">
        <path id="Path_982" data-name="Path 982" d="M375.855,328.815a46.835,46.835,0,0,1-7.834.629,39.886,39.886,0,0,1-13.035-1.941c-3.175-1.149-5.027-2.642-5.027-4.1v-9.864a14.468,14.468,0,0,0,4.517,2.512,45.952,45.952,0,0,0,27.021,0,12.833,12.833,0,0,0,4.462-2.512v10.581h1.5V297.694c0-2.152-2.1-4.106-5.955-5.5a45.955,45.955,0,0,0-27.035,0c-3.86,1.4-6.01,3.351-6.01,5.5v38.661c0,2.153,2.157,4.107,6.017,5.5a41.287,41.287,0,0,0,13.53,2.032,48.7,48.7,0,0,0,8.007-.636l-.244-1.479a47.114,47.114,0,0,1-7.75.615,39.869,39.869,0,0,1-13.033-1.942c-3.176-1.149-5.027-2.641-5.027-4.094V326.4a14.447,14.447,0,0,0,4.517,2.512,41.287,41.287,0,0,0,13.53,2.032,48.536,48.536,0,0,0,8.092-.65Zm5.139-14.17a44.533,44.533,0,0,1-26.015,0c-3.176-1.149-5.02-2.641-5.02-4.093v-9.866a14.5,14.5,0,0,0,4.517,2.512,45.906,45.906,0,0,0,27.02,0,12.848,12.848,0,0,0,4.462-2.512v9.866c0,1.452-1.789,2.944-4.964,4.093ZM355.018,293.6a44.462,44.462,0,0,1,26.007,0c3.175,1.148,5,2.64,5,4.092s-1.821,2.943-5,4.094a44.484,44.484,0,0,1-26.007,0c-3.175-1.151-5-2.642-5-4.094s1.822-2.944,5-4.092Zm0,0" transform="translate(-202.417 -880)" fill="#1d0f9b"/>
        <path id="Path_983" data-name="Path 983" d="M373.244,309.867a49.521,49.521,0,0,1-5.223.27,48.085,48.085,0,0,1-6.524-.429.75.75,0,0,0-.2,1.487,49.8,49.8,0,0,0,6.728.442,50.919,50.919,0,0,0,5.382-.279.75.75,0,0,0-.159-1.491Zm0,0" transform="translate(-202.417 -880)" fill="#1d0f9b"/>
        <path id="Path_984" data-name="Path 984" d="M378.9,307.158a2.24,2.24,0,1,0,2.241,2.24,2.24,2.24,0,0,0-2.241-2.24Zm0,2.98a.74.74,0,1,1,.741-.74.74.74,0,0,1-.741.74Zm0,0" transform="translate(-202.417 -880)" fill="#1d0f9b"/>
        <path id="Path_985" data-name="Path 985" d="M373.244,322.534a49.522,49.522,0,0,1-5.223.271,48.413,48.413,0,0,1-6.524-.429.75.75,0,1,0-.2,1.486,49.8,49.8,0,0,0,6.729.443,50.911,50.911,0,0,0,5.382-.28.75.75,0,0,0-.159-1.491Zm0,0" transform="translate(-202.417 -880)" fill="#1d0f9b"/>
        <path id="Path_986" data-name="Path 986" d="M381.141,322.065a2.241,2.241,0,1,0-2.241,2.24,2.241,2.241,0,0,0,2.241-2.24Zm-2.981,0a.74.74,0,1,1,.74.74.741.741,0,0,1-.74-.74Zm0,0" transform="translate(-202.417 -880)" fill="#1d0f9b"/>
        <path id="Path_987" data-name="Path 987" d="M373.244,335.2a49.529,49.529,0,0,1-5.223.27,48.081,48.081,0,0,1-6.524-.429.75.75,0,0,0-.2,1.487,49.8,49.8,0,0,0,6.729.442,50.918,50.918,0,0,0,5.382-.279.75.75,0,0,0-.159-1.491Zm0,0" transform="translate(-202.417 -880)" fill="#1d0f9b"/>
      </g>
    </g>
    <rect id="Rectangle_253" data-name="Rectangle 253" width="48.167" height="60" transform="translate(146 -590)" fill="none"/>
    <g id="Group_4631" data-name="Group 4631">
      <path id="Path_988" data-name="Path 988" d="M392.865,325.125h-2.156v-1.1a.734.734,0,0,0-.7-.776h-8.223a.734.734,0,0,0-.7.776v1.1h-2.156a3.788,3.788,0,0,0-3.844,3.72V346.06a3.869,3.869,0,0,0,3.844,3.815h13.937a3.762,3.762,0,0,0,3.719-3.815V328.845a3.681,3.681,0,0,0-3.719-3.72Zm-10.281-.375h6.625v2.125h-6.625Zm12.5,21.31a2.261,2.261,0,0,1-2.219,2.315H378.928a2.367,2.367,0,0,1-2.344-2.315V328.845a2.287,2.287,0,0,1,2.344-2.22h2.156v.975a.733.733,0,0,0,.7.775h8.223a.732.732,0,0,0,.7-.775v-.975h2.156a2.18,2.18,0,0,1,2.219,2.22Zm0,0" transform="translate(-202.417 -880)" fill="#00c3ff"/>
      <path id="Path_989" data-name="Path 989" d="M389.642,333.957a.751.751,0,0,0-1.053.128l-2.964,3.778-1.755-1.692a.75.75,0,1,0-1.041,1.08l2.353,2.268a.748.748,0,0,0,.52.21.44.44,0,0,0,.052,0,.749.749,0,0,0,.538-.285l3.477-4.432a.75.75,0,0,0-.127-1.053Zm0,0" transform="translate(-202.417 -880)" fill="#00c3ff"/>
    </g>
  </g>
</svg>
