<svg xmlns="http://www.w3.org/2000/svg" width="68" height="70" viewBox="0 0 68 70">
  <g id="service-icon20" transform="translate(-1210 -1724)">
    <path id="Path_990" data-name="Path 990" d="M391.465,307.645,370.355,296.4a.962.962,0,0,0-.915.006l-20.519,11.248a.954.954,0,0,0-.494.842v12.978a30.273,30.273,0,0,0,13.223,25.016l1.085-1.587a28.357,28.357,0,0,1-12.386-23.429V309.062l19.568-10.723,20.141,10.732v12.108c0,.71-.032,1.426-.084,2.131l1.918.144c.056-.753.088-1.518.088-2.274V308.493a.967.967,0,0,0-.514-.848Zm0,0" transform="translate(866.697 1434.134)" fill="#1045db"/>
    <path id="Path_991" data-name="Path 991" d="M397.335,304.848l-26.292-13.924a.975.975,0,0,0-.917.006l-25.562,13.924a.958.958,0,0,0-.505.837v16.066a37.242,37.242,0,0,0,18.391,32.051l.983-1.642a35.331,35.331,0,0,1-17.453-30.409v-15.5l24.62-13.4,25.336,13.412V321.4c0,.884-.048,1.777-.114,2.655l1.923.143c.069-.926.111-1.867.111-2.8V305.691a.969.969,0,0,0-.522-.843Zm0,0" transform="translate(865.942 1433.188)" fill="#1045db"/>
    <path id="Path_992" data-name="Path 992" d="M389.254,340.1a3.294,3.294,0,1,0,3.295,3.293,3.294,3.294,0,0,0-3.295-3.293Zm0,4.666a1.372,1.372,0,1,1,1.373-1.372,1.367,1.367,0,0,1-1.373,1.372Zm0,0" transform="translate(873.473 1441.336)" fill="#00c3ff"/>
    <path id="Path_993" data-name="Path 993" d="M396.043,340.1a3.293,3.293,0,1,0,3.295,3.293,3.295,3.295,0,0,0-3.295-3.293Zm0,4.666a1.372,1.372,0,1,1,1.372-1.372,1.371,1.371,0,0,1-1.372,1.372Zm0,0" transform="translate(874.47 1441.336)" fill="#00c3ff"/>
    <path id="Path_994" data-name="Path 994" d="M363.859,340.33a.961.961,0,0,0-.961.961v4.117a.961.961,0,1,0,1.921,0v-4.117a.961.961,0,0,0-.961-.961Zm0,0" transform="translate(869.901 1441.376)" fill="#00c3ff"/>
    <path id="Path_995" data-name="Path 995" d="M367,340.33a.961.961,0,0,0-.961.961v4.117a.961.961,0,1,0,1.921,0v-4.117a.961.961,0,0,0-.961-.961Zm0,0" transform="translate(870.394 1441.376)" fill="#00c3ff"/>
    <path id="Path_996" data-name="Path 996" d="M370,340.33a.961.961,0,0,0-.961.961v4.117a.961.961,0,0,0,1.921,0v-4.117a.961.961,0,0,0-.961-.961Zm0,0" transform="translate(870.866 1441.376)" fill="#00c3ff"/>
    <path id="Path_997" data-name="Path 997" d="M373.142,340.33a.961.961,0,0,0-.961.961v4.117a.961.961,0,1,0,1.921,0v-4.117a.961.961,0,0,0-.961-.961Zm0,0" transform="translate(871.359 1441.376)" fill="#00c3ff"/>
    <path id="Path_998" data-name="Path 998" d="M376.282,340.33a.961.961,0,0,0-.961.961v4.117a.961.961,0,0,0,1.921,0v-4.117a.961.961,0,0,0-.961-.961Zm0,0" transform="translate(871.852 1441.376)" fill="#00c3ff"/>
    <path id="Path_999" data-name="Path 999" d="M406.962,318.73H361.671a2.281,2.281,0,0,0-2.323,2.276V334.73a2.4,2.4,0,0,0,2.323,2.414h4.561v.8h-4.561a2.279,2.279,0,0,0-2.323,2.275v13.725a2.4,2.4,0,0,0,2.323,2.413h45.291a2.413,2.413,0,0,0,2.342-2.413V340.22a2.295,2.295,0,0,0-2.342-2.275H402.42v-.8h4.542a2.413,2.413,0,0,0,2.342-2.414V321.007a2.3,2.3,0,0,0-2.342-2.276ZM400.5,338.265H368.155V336.5H400.5Zm6.886,1.955v13.725a.5.5,0,0,1-.421.491H361.671c-.226,0-.4-.264-.4-.491V340.22a.359.359,0,0,1,.4-.354h4.7a1.2,1.2,0,0,0,.787.32h34.31a1.2,1.2,0,0,0,.788-.32h4.7a.375.375,0,0,1,.421.354Zm0-5.49a.5.5,0,0,1-.421.493h-4.623a.835.835,0,0,0-.867-.64H367.163a.835.835,0,0,0-.868.64h-4.623c-.226,0-.4-.264-.4-.493V321.007a.359.359,0,0,1,.4-.354h45.291a.376.376,0,0,1,.421.354Zm0,0" transform="translate(868.696 1437.643)" fill="#00c3ff"/>
    <path id="Path_1000" data-name="Path 1000" d="M389.254,323.713a3.294,3.294,0,1,0,3.295,3.294,3.294,3.294,0,0,0-3.295-3.294Zm0,4.667a1.373,1.373,0,1,1,1.373-1.372,1.371,1.371,0,0,1-1.373,1.372Zm0,0" transform="translate(873.473 1438.65)" fill="#00c3ff"/>
    <path id="Path_1001" data-name="Path 1001" d="M396.043,323.713a3.294,3.294,0,1,0,3.295,3.294,3.294,3.294,0,0,0-3.295-3.294Zm0,4.667a1.373,1.373,0,1,1,1.372-1.372,1.374,1.374,0,0,1-1.372,1.372Zm0,0" transform="translate(874.47 1438.65)" fill="#00c3ff"/>
    <path id="Path_1002" data-name="Path 1002" d="M363.859,323.947a.961.961,0,0,0-.961.961v4.118a.961.961,0,0,0,1.921,0v-4.118a.961.961,0,0,0-.961-.961Zm0,0" transform="translate(869.901 1438.691)" fill="#00c3ff"/>
    <path id="Path_1003" data-name="Path 1003" d="M367,323.947a.961.961,0,0,0-.961.961v4.118a.961.961,0,0,0,1.921,0v-4.118a.961.961,0,0,0-.961-.961Zm0,0" transform="translate(870.394 1438.691)" fill="#00c3ff"/>
    <path id="Path_1004" data-name="Path 1004" d="M370,323.947a.961.961,0,0,0-.961.961v4.118a.961.961,0,0,0,1.921,0v-4.118a.961.961,0,0,0-.961-.961Zm0,0" transform="translate(870.866 1438.691)" fill="#00c3ff"/>
    <path id="Path_1005" data-name="Path 1005" d="M373.142,323.947a.961.961,0,0,0-.961.961v4.118a.961.961,0,0,0,1.921,0v-4.118a.961.961,0,0,0-.961-.961Zm0,0" transform="translate(871.359 1438.691)" fill="#00c3ff"/>
    <path id="Path_1006" data-name="Path 1006" d="M376.282,323.947a.961.961,0,0,0-.961.961v4.118a.961.961,0,0,0,1.921,0v-4.118a.961.961,0,0,0-.961-.961Zm0,0" transform="translate(871.852 1438.691)" fill="#00c3ff"/>
  </g>
</svg>
