<svg xmlns="http://www.w3.org/2000/svg" width="46.047" height="60" viewBox="0 0 46.047 60">
  <g id="service-icon5" transform="translate(424 590)">
    <path id="Path_934" data-name="Path 934" d="M369.523,290.147a20.408,20.408,0,0,0-3.564,40.5l.272-1.546a18.833,18.833,0,0,1-10.2-5.4,18.5,18.5,0,0,1,3.48-2.792,19.629,19.629,0,0,0,5.82,7.878l.976-1.23a18.124,18.124,0,0,1-5.422-7.423,19.069,19.069,0,0,1,7.841-2.039v2.821H370.3V318.1a19.362,19.362,0,0,1,3.6.491l.361-1.528a20.867,20.867,0,0,0-3.957-.534v-5.158h9.626a28.018,28.018,0,0,1-.262,3.143l1.554.228a28.8,28.8,0,0,0,.279-3.371h6.847a18.745,18.745,0,0,1-1.778,7.238l1.42.664a20.423,20.423,0,0,0-18.462-29.121Zm14.489,8.4a18.657,18.657,0,0,1,4.331,11.254H381.5a26.779,26.779,0,0,0-1.4-8.136,20.177,20.177,0,0,0,3.916-3.118Zm-1.055-1.18a18.553,18.553,0,0,1-3.43,2.784,19.491,19.491,0,0,0-6.055-8.013,18.818,18.818,0,0,1,9.485,5.229ZM350.7,309.8a18.6,18.6,0,0,1,4.286-11.2,20.073,20.073,0,0,0,3.948,3.108,27.4,27.4,0,0,0-1.386,8.093Zm9.632-7.331a20.369,20.369,0,0,0,8.4,2.117V309.8h-9.61a25.885,25.885,0,0,1,1.215-7.331Zm.538-1.5a17.466,17.466,0,0,1,7.857-9.01v11.054a19.12,19.12,0,0,1-7.857-2.044Zm9.426-9.01a17.414,17.414,0,0,1,7.844,8.976,18.832,18.832,0,0,1-7.844,2.078Zm-4.724.176a19.5,19.5,0,0,0-6.073,8.056,18.451,18.451,0,0,1-3.461-2.777,18.825,18.825,0,0,1,9.534-5.279Zm-10.59,30.41a18.9,18.9,0,0,1-4.282-11.178h6.848a27.127,27.127,0,0,0,1.4,8.071,20.042,20.042,0,0,0-3.965,3.107Zm13.745-6.02a20.366,20.366,0,0,0-8.387,2.142,25.506,25.506,0,0,1-1.221-7.3h9.608Zm1.569-11.942a20.093,20.093,0,0,0,8.394-2.151,26,26,0,0,1,1.233,7.366H370.3Zm0,0" transform="translate(-772.977 -880)" fill="#1d0f9b"/>
    <path id="Path_935" data-name="Path 935" d="M387.065,346.328a2.739,2.739,0,0,0-2.114-2.726v-1.518a4.031,4.031,0,0,0-2.113-3.556,2.463,2.463,0,0,1-1.289-2.175v-3.272H385.3a4.5,4.5,0,0,0,3.2,4.212,2.961,2.961,0,0,1,2.078,2.843v1.64a2.809,2.809,0,0,0-2.014,2.716,2.845,2.845,0,0,0,2.843,2.828,2.813,2.813,0,0,0,2.8-2.828,2.852,2.852,0,0,0-2.065-2.716v-1.64a4.535,4.535,0,0,0-3.2-4.348,2.885,2.885,0,0,1-2.072-2.707h.867a7.129,7.129,0,0,0,.368-14.249,8.486,8.486,0,0,0-15-.958,6.231,6.231,0,0,0-5.324,6.145c0,.038,0,.077,0,.115a4.735,4.735,0,0,0-2.742,3.989c-.006.1-.009.173-.009.271a4.7,4.7,0,0,0,4.714,4.687h2.388v2.657a1.482,1.482,0,0,1-1.148,1.476,3.061,3.061,0,0,0-2.384,3.008v4.088a2.81,2.81,0,1,0,1.57,0v-4.087a1.481,1.481,0,0,1,1.148-1.475,3.064,3.064,0,0,0,2.384-3.009v-2.658h3.57a2.2,2.2,0,0,1-1.364,1.95,3.844,3.844,0,0,0-2.337,3.579v.829a2.86,2.86,0,0,0-2.074,2.716,2.818,2.818,0,0,0,2.812,2.828,2.851,2.851,0,0,0,2.851-2.828,2.811,2.811,0,0,0-2.019-2.716v-.829a2.28,2.28,0,0,1,1.371-2.13,3.753,3.753,0,0,0,2.331-3.4h1.138v3.272a4.03,4.03,0,0,0,2.112,3.556,2.461,2.461,0,0,1,1.289,2.175v1.539a2.951,2.951,0,0,0-1.971,2.705,2.827,2.827,0,1,0,5.655,0Zm5.612-1.836a1.258,1.258,0,1,1-1.258-1.258,1.259,1.259,0,0,1,1.258,1.258ZM370.6,347.026a1.258,1.258,0,1,1-1.258-1.258,1.258,1.258,0,0,1,1.258,1.258Zm4.949-4.871a1.258,1.258,0,1,1-1.258-1.258,1.256,1.256,0,0,1,1.258,1.258ZM366.6,328.394c0-.067,0-.121.007-.187a3.144,3.144,0,0,1,2.224-2.8.78.78,0,0,0,.551-.842,4.638,4.638,0,0,1,4.26-5.168.784.784,0,0,0,.633-.406,6.915,6.915,0,0,1,12.562.9.783.783,0,0,0,.76.512h.138a5.553,5.553,0,1,1,0,11.106H369.743a3.126,3.126,0,0,1-3.144-3.118Zm17.672,19.193a1.258,1.258,0,1,1,1.257-1.259,1.26,1.26,0,0,1-1.257,1.259Zm0,0" transform="translate(-772.977 -880)" fill="#00c3ff"/>
    <rect id="Rectangle_251" data-name="Rectangle 251" width="46.047" height="60" transform="translate(-424 -590)" fill="none"/>
  </g>
</svg>
