<svg xmlns="http://www.w3.org/2000/svg" width="62" height="70" viewBox="0 0 62 70">
  <g id="service-icon17" transform="translate(-1260 -1088)">
    <path id="Path_940" data-name="Path 940" d="M379.13,339.227a3.5,3.5,0,1,0,3.5,3.5,3.5,3.5,0,0,0-3.5-3.5Zm0,5.171a1.673,1.673,0,1,1,1.673-1.673,1.672,1.672,0,0,1-1.673,1.673Zm0,0" transform="translate(918.708 805.16)" fill="#1045db"/>
    <path id="Path_941" data-name="Path 941" d="M386.638,339.227a3.5,3.5,0,1,0,3.5,3.5,3.5,3.5,0,0,0-3.5-3.5Zm0,5.171a1.673,1.673,0,1,1,1.673-1.673,1.672,1.672,0,0,1-1.673,1.673Zm0,0" transform="translate(919.965 805.16)" fill="#1045db"/>
    <path id="Path_942" data-name="Path 942" d="M351.01,339.486a.913.913,0,0,0-.913.912v4.564a.912.912,0,0,0,1.825,0V340.4a.913.913,0,0,0-.912-.912Zm0,0" transform="translate(914.467 805.206)" fill="#1045db"/>
    <path id="Path_943" data-name="Path 943" d="M354.505,339.486a.913.913,0,0,0-.913.912v4.564a.913.913,0,0,0,1.826,0V340.4a.913.913,0,0,0-.913-.912Zm0,0" transform="translate(915.078 805.206)" fill="#1045db"/>
    <path id="Path_944" data-name="Path 944" d="M357.871,339.486a.913.913,0,0,0-.913.912v4.564a.912.912,0,0,0,1.825,0V340.4a.913.913,0,0,0-.912-.912Zm0,0" transform="translate(915.592 805.206)" fill="#1045db"/>
    <path id="Path_945" data-name="Path 945" d="M361.236,339.486a.912.912,0,0,0-.912.912v4.564a.912.912,0,0,0,1.825,0V340.4a.913.913,0,0,0-.913-.912Zm0,0" transform="translate(916.157 805.206)" fill="#1045db"/>
    <path id="Path_946" data-name="Path 946" d="M364.731,339.486a.913.913,0,0,0-.912.912v4.564a.912.912,0,0,0,1.825,0V340.4a.913.913,0,0,0-.913-.912Zm0,0" transform="translate(916.744 805.206)" fill="#1045db"/>
    <path id="Path_947" data-name="Path 947" d="M399.1,336.032a.706.706,0,0,1-.642.678h-5.188a.794.794,0,0,0-.856-.6H354.638a.794.794,0,0,0-.854.6h-5.19a.644.644,0,0,1-.567-.678V320.943a.514.514,0,0,1,.567-.529h5.26a1.28,1.28,0,0,0,.784.453h32.675v-1.811H355.581v-2.262h28.255v-1.811h-29.2a.794.794,0,0,0-.854.6h-5.19a.644.644,0,0,1-.567-.678V299.819a.514.514,0,0,1,.567-.529h32.372v-1.81H348.594a2.327,2.327,0,0,0-2.381,2.339v15.089a2.453,2.453,0,0,0,2.381,2.489h5.174V318.6h-5.174a2.327,2.327,0,0,0-2.381,2.339v15.089a2.453,2.453,0,0,0,2.381,2.489h5.174v1.208h-5.174a2.327,2.327,0,0,0-2.381,2.339v15.088a2.454,2.454,0,0,0,2.381,2.49h49.862a2.515,2.515,0,0,0,2.455-2.49V342.068a2.387,2.387,0,0,0-2.455-2.339h-5.1v-1.208h5.1a2.514,2.514,0,0,0,2.455-2.489V320.414H399.1Zm-7.556,4.148H355.581v-2.263h35.961Zm7.556,1.887v15.088a.707.707,0,0,1-.642.68H348.594a.644.644,0,0,1-.567-.68V342.068a.514.514,0,0,1,.567-.529h5.26a1.28,1.28,0,0,0,.784.453h37.774a1.277,1.277,0,0,0,.786-.453h5.258a.579.579,0,0,1,.642.529Zm0,0" transform="translate(913.787 798.354)" fill="#1045db"/>
    <path id="Path_948" data-name="Path 948" d="M379.13,321.1a3.5,3.5,0,1,0,3.5,3.5,3.5,3.5,0,0,0-3.5-3.5Zm0,5.171A1.673,1.673,0,1,1,380.8,324.6a1.672,1.672,0,0,1-1.673,1.673Zm0,0" transform="translate(918.708 802.209)" fill="#1045db"/>
    <path id="Path_949" data-name="Path 949" d="M386.638,328.1a3.5,3.5,0,1,0-3.5-3.5,3.5,3.5,0,0,0,3.5,3.5Zm0-5.171a1.673,1.673,0,1,1-1.673,1.673,1.673,1.673,0,0,1,1.673-1.673Zm0,0" transform="translate(919.965 802.208)" fill="#1045db"/>
    <path id="Path_950" data-name="Path 950" d="M350.1,322.275v4.564a.912.912,0,0,0,1.825,0v-4.564a.912.912,0,0,0-1.825,0Zm0,0" transform="translate(914.467 802.254)" fill="#1045db"/>
    <path id="Path_951" data-name="Path 951" d="M353.592,322.275v4.564a.913.913,0,0,0,1.826,0v-4.564a.913.913,0,0,0-1.826,0Zm0,0" transform="translate(915.078 802.254)" fill="#1045db"/>
    <path id="Path_952" data-name="Path 952" d="M356.958,322.275v4.564a.912.912,0,0,0,1.825,0v-4.564a.912.912,0,0,0-1.825,0Zm0,0" transform="translate(915.592 802.254)" fill="#1045db"/>
    <path id="Path_953" data-name="Path 953" d="M360.324,322.275v4.564a.912.912,0,0,0,1.825,0v-4.564a.912.912,0,0,0-1.825,0Zm0,0" transform="translate(916.157 802.254)" fill="#1045db"/>
    <path id="Path_954" data-name="Path 954" d="M363.819,322.275v4.564a.912.912,0,0,0,1.825,0v-4.564a.912.912,0,0,0-1.825,0Zm0,0" transform="translate(916.744 802.254)" fill="#1045db"/>
    <path id="Path_955" data-name="Path 955" d="M350.1,304.152v4.564a.912.912,0,0,0,1.825,0v-4.564a.912.912,0,0,0-1.825,0Zm0,0" transform="translate(914.467 799.248)" fill="#1045db"/>
    <path id="Path_956" data-name="Path 956" d="M353.592,304.152v4.564a.913.913,0,0,0,1.826,0v-4.564a.913.913,0,0,0-1.826,0Zm0,0" transform="translate(915.078 799.248)" fill="#1045db"/>
    <path id="Path_957" data-name="Path 957" d="M356.958,304.152v4.564a.912.912,0,0,0,1.825,0v-4.564a.912.912,0,0,0-1.825,0Zm0,0" transform="translate(915.592 799.248)" fill="#1045db"/>
    <path id="Path_958" data-name="Path 958" d="M360.324,304.152v4.564a.912.912,0,0,0,1.825,0v-4.564a.912.912,0,0,0-1.825,0Zm0,0" transform="translate(916.157 799.248)" fill="#1045db"/>
    <path id="Path_959" data-name="Path 959" d="M363.819,304.152v4.564a.912.912,0,0,0,1.825,0v-4.564a.912.912,0,0,0-1.825,0Zm0,0" transform="translate(916.744 799.248)" fill="#1045db"/>
    <path id="Path_960" data-name="Path 960" d="M386.9,325.23l1.832.794a.953.953,0,0,0,.37.076.923.923,0,0,0,.364-.075l2.035-.885a19.639,19.639,0,0,0,12.022-18.116v-8.11a.892.892,0,0,0-.465-.8l-13.484-7.191a.908.908,0,0,0-.864.006l-13.138,7.19a.929.929,0,0,0-.492.8v8.3A19.7,19.7,0,0,0,386.9,325.23Zm-10-25.774,12.217-6.694,12.577,6.7v7.561a17.813,17.813,0,0,1-10.911,16.436l0,0-1.686.73-1.475-.635a17.878,17.878,0,0,1-10.724-16.347Zm0,0" transform="translate(918.476 797.188)" fill="#00c3ff"/>
    <path id="Path_961" data-name="Path 961" d="M385.4,310.037a.912.912,0,0,0,1.27.114l8.264-6.722a.913.913,0,0,0-1.152-1.417l-7.574,6.162-2.969-3.478a.913.913,0,0,0-1.389,1.186Zm0,0" transform="translate(919.619 799.007)" fill="#00c3ff"/>
  </g>
</svg>
