<svg xmlns="http://www.w3.org/2000/svg" width="60" height="60" viewBox="0 0 60 60">
  <g id="service-icon13" transform="translate(-335.302 -282.301)">
    <path id="Path_9273" data-name="Path 9273" d="M385.3,314.8v3.547a1.253,1.253,0,1,0,2.506,0V314.8a1.253,1.253,0,0,0-2.506,0Z" transform="translate(-10.004 -6.255)" fill="#00c3ff"/>
    <path id="Path_9274" data-name="Path 9274" d="M391.553,314.8v2.415a1.252,1.252,0,1,0,2.5,0V314.8a1.252,1.252,0,0,0-2.5,0Z" transform="translate(-11.255 -6.254)" fill="#00c3ff"/>
    <path id="Path_9275" data-name="Path 9275" d="M379.052,314.8v5.009a1.252,1.252,0,1,0,2.5,0V314.8a1.252,1.252,0,0,0-2.5,0Z" transform="translate(-8.753 -6.257)" fill="#00c3ff"/>
    <path id="Path_9276" data-name="Path 9276" d="M391.564,332.61a6.262,6.262,0,1,0,6.261,6.261A6.269,6.269,0,0,0,391.564,332.61Zm0,10.019a3.757,3.757,0,1,1,3.757-3.757A3.761,3.761,0,0,1,391.564,342.629Z" transform="translate(-10.039 -10.099)" fill="#00c3ff"/>
    <path id="Path_9277" data-name="Path 9277" d="M402.7,332.674a1.266,1.266,0,0,0-.674-.739,1.245,1.245,0,0,0-1-.01,1.205,1.205,0,0,1-1.2-2.082,1.259,1.259,0,0,0,.188-1.828,13.615,13.615,0,0,0-7.612-4.444,1.235,1.235,0,0,0-.99.22,1.253,1.253,0,0,0-.5.879,1.213,1.213,0,0,1-2.42,0,1.239,1.239,0,0,0-.5-.879,1.253,1.253,0,0,0-.989-.22,13.61,13.61,0,0,0-7.612,4.444,1.258,1.258,0,0,0,.188,1.828,1.2,1.2,0,0,1-1.2,2.082,1.253,1.253,0,0,0-1.676.749,12.805,12.805,0,0,0,0,8.8,1.255,1.255,0,0,0,1.676.752,1.2,1.2,0,0,1,1.2,2.082,1.249,1.249,0,0,0-.491.874,1.234,1.234,0,0,0,.305.954,13.626,13.626,0,0,0,7.61,4.444,1.251,1.251,0,0,0,1.49-1.1,1.211,1.211,0,0,1,2.417,0,1.239,1.239,0,0,0,.5.878,1.255,1.255,0,0,0,.744.245,1.038,1.038,0,0,0,.246-.027,13.6,13.6,0,0,0,7.609-4.443,1.256,1.256,0,0,0-.185-1.829,1.221,1.221,0,0,1-.363-1.6h0a1.22,1.22,0,0,1,1.561-.485,1.258,1.258,0,0,0,1-.01,1.244,1.244,0,0,0,.674-.741,12.816,12.816,0,0,0,0-8.794Zm-2.067,6.941a3.874,3.874,0,0,0-3.346,1.84,3.711,3.711,0,0,0,.075,3.813,11.136,11.136,0,0,1-4.375,2.577,3.7,3.7,0,0,0-6.58,0,11.1,11.1,0,0,1-4.376-2.577,3.687,3.687,0,0,0-3.271-5.653,9.916,9.916,0,0,1,0-5.085,3.689,3.689,0,0,0,3.272-5.653,11.135,11.135,0,0,1,4.375-2.578,3.7,3.7,0,0,0,6.58,0,11.112,11.112,0,0,1,4.376,2.578,3.714,3.714,0,0,0-.076,3.811,3.64,3.64,0,0,0,3.349,1.842,10.337,10.337,0,0,1,.333,2.542A10.131,10.131,0,0,1,400.636,339.615Z" transform="translate(-8.178 -8.3)" fill="#00c3ff"/>
    <path id="Path_9278" data-name="Path 9278" d="M366.6,317.288H341.548a3.754,3.754,0,0,1-3.75-3.749v-5a3.754,3.754,0,0,1,3.75-3.748h47.5a3.754,3.754,0,0,1,3.75,3.748v5a3.7,3.7,0,0,1-.515,1.857,1.25,1.25,0,1,0,2.17,1.242,6.176,6.176,0,0,0,.85-3.1v-5a6.257,6.257,0,0,0-6.25-6.247H360.3v-2.5h28.75a6.258,6.258,0,0,0,6.25-6.247v-5a6.257,6.257,0,0,0-6.25-6.248h-47.5a6.255,6.255,0,0,0-6.25,6.248v5a6.255,6.255,0,0,0,6.25,6.247H357.8v2.5H341.552a6.255,6.255,0,0,0-6.25,6.248v5a6.255,6.255,0,0,0,6.25,6.248H357.8v2.5h-1.25a1.251,1.251,0,0,0-1.25,1.249v1.25h-1.25a1.25,1.25,0,0,0-1.25,1.25v1.249h-11.25a1.249,1.249,0,1,0,0,2.5H352.8v1.25a1.249,1.249,0,0,0,1.25,1.249h10a1.25,1.25,0,0,0,1.25-1.249v-5a1.25,1.25,0,0,0-1.25-1.25H362.8v-1.25a1.25,1.25,0,0,0-1.25-1.249H360.3v-2.5h6.3a1.25,1.25,0,0,0-.007-2.5ZM341.552,297.3a3.752,3.752,0,0,1-3.75-3.748v-5a3.752,3.752,0,0,1,3.75-3.749h47.5a3.755,3.755,0,0,1,3.75,3.749v5a3.755,3.755,0,0,1-3.75,3.748Zm20,29.989h1.25v2.5h-7.5v-2.5h1.25a1.251,1.251,0,0,0,1.25-1.249v-1.25h2.5v1.25A1.251,1.251,0,0,0,361.552,327.284Z" fill="#00c3ff"/>
    <path id="Path_9279" data-name="Path 9279" d="M399.054,288.551A1.253,1.253,0,0,0,397.8,289.8v5.009a1.252,1.252,0,0,0,2.5,0V289.8A1.253,1.253,0,0,0,399.054,288.551Z" transform="translate(-12.52 -1.241)" fill="#00c3ff"/>
    <path id="Path_9280" data-name="Path 9280" d="M397.8,314.8v3.547a1.252,1.252,0,1,0,2.5,0V314.8a1.252,1.252,0,0,0-2.5,0Z" transform="translate(-12.52 -6.255)" fill="#00c3ff"/>
    <path id="Path_9281" data-name="Path 9281" d="M341.553,317.308a3.757,3.757,0,1,0,3.757-3.757A3.761,3.761,0,0,0,341.553,317.308Zm5.009,0a1.253,1.253,0,1,1-1.253-1.252A1.257,1.257,0,0,1,346.562,317.308Z" transform="translate(-1.241 -6.257)" fill="#00c3ff"/>
    <path id="Path_9282" data-name="Path 9282" d="M392.8,288.551a1.252,1.252,0,0,0-1.252,1.253v5.009a1.252,1.252,0,0,0,2.5,0V289.8A1.254,1.254,0,0,0,392.8,288.551Z" transform="translate(-11.255 -1.241)" fill="#00c3ff"/>
    <path id="Path_9283" data-name="Path 9283" d="M386.555,288.551A1.253,1.253,0,0,0,385.3,289.8v5.009a1.253,1.253,0,0,0,2.506,0V289.8A1.254,1.254,0,0,0,386.555,288.551Z" transform="translate(-10.004 -1.241)" fill="#00c3ff"/>
    <path id="Path_9284" data-name="Path 9284" d="M345.31,288.551a3.757,3.757,0,1,0,3.758,3.757A3.76,3.76,0,0,0,345.31,288.551Zm0,5.009a1.252,1.252,0,1,1,1.253-1.252A1.253,1.253,0,0,1,345.31,293.56Z" transform="translate(-1.241 -1.241)" fill="#00c3ff"/>
    <path id="Path_9285" data-name="Path 9285" d="M380.3,288.551a1.253,1.253,0,0,0-1.253,1.253v5.009a1.252,1.252,0,0,0,2.5,0V289.8A1.252,1.252,0,0,0,380.3,288.551Z" transform="translate(-8.753 -1.241)" fill="#00c3ff"/>
  </g>
</svg>
