<svg xmlns="http://www.w3.org/2000/svg" width="57.884" height="60" viewBox="0 0 57.884 60">
  <g id="service-icon8" transform="translate(-426 590)">
    <g id="Group_4629" data-name="Group 4629">
      <path id="Path_990" data-name="Path 990" d="M385.122,305.971l-18-9.59a.82.82,0,0,0-.78,0l-17.495,9.59a.814.814,0,0,0-.421.718v11.065A25.811,25.811,0,0,0,359.7,339.088l.925-1.353a24.178,24.178,0,0,1-10.561-19.976v-10.58l16.684-9.143,17.173,9.15V317.51c0,.6-.027,1.216-.072,1.817l1.635.123c.048-.642.075-1.294.075-1.939V306.694a.824.824,0,0,0-.438-.723Zm0,0" transform="translate(81.942 -880.812)" fill="#1d0f9b"/>
      <path id="Path_991" data-name="Path 991" d="M389.483,302.85l-22.417-11.942a.827.827,0,0,0-.782.005l-21.795,11.942a.823.823,0,0,0-.431.718v13.779a31.976,31.976,0,0,0,15.681,27.488l.838-1.408a30.335,30.335,0,0,1-14.881-26.08V304.058l20.992-11.5,21.6,11.5v12.977c0,.758-.041,1.524-.1,2.277l1.64.123c.059-.794.1-1.6.1-2.4v-13.47a.832.832,0,0,0-.445-.723Zm0,0" transform="translate(81.942 -880.812)" fill="#1d0f9b"/>
    </g>
    <g id="Group_4630" data-name="Group 4630">
      <path id="Path_992" data-name="Path 992" d="M388.769,340.1a2.808,2.808,0,1,0,2.809,2.808,2.809,2.809,0,0,0-2.809-2.808Zm0,3.978a1.17,1.17,0,1,1,1.171-1.17,1.166,1.166,0,0,1-1.171,1.17Zm0,0" transform="translate(81.942 -880.812)" fill="#00c3ff"/>
      <path id="Path_993" data-name="Path 993" d="M395.557,340.1a2.808,2.808,0,1,0,2.809,2.808,2.809,2.809,0,0,0-2.809-2.808Zm0,3.978a1.17,1.17,0,1,1,1.17-1.17,1.169,1.169,0,0,1-1.17,1.17Zm0,0" transform="translate(81.942 -880.812)" fill="#00c3ff"/>
      <path id="Path_994" data-name="Path 994" d="M363.717,340.33a.819.819,0,0,0-.819.819v3.51a.819.819,0,1,0,1.638,0v-3.51a.819.819,0,0,0-.819-.819Zm0,0" transform="translate(81.942 -880.812)" fill="#00c3ff"/>
      <path id="Path_995" data-name="Path 995" d="M366.857,340.33a.819.819,0,0,0-.819.819v3.51a.819.819,0,1,0,1.638,0v-3.51a.819.819,0,0,0-.819-.819Zm0,0" transform="translate(81.942 -880.812)" fill="#00c3ff"/>
      <path id="Path_996" data-name="Path 996" d="M369.86,340.33a.819.819,0,0,0-.819.819v3.51a.819.819,0,1,0,1.638,0v-3.51a.819.819,0,0,0-.819-.819Zm0,0" transform="translate(81.942 -880.812)" fill="#00c3ff"/>
      <path id="Path_997" data-name="Path 997" d="M373,340.33a.819.819,0,0,0-.819.819v3.51a.819.819,0,1,0,1.638,0v-3.51a.819.819,0,0,0-.819-.819Zm0,0" transform="translate(81.942 -880.812)" fill="#00c3ff"/>
      <path id="Path_998" data-name="Path 998" d="M376.14,340.33a.819.819,0,0,0-.819.819v3.51a.819.819,0,1,0,1.638,0v-3.51a.819.819,0,0,0-.819-.819Zm0,0" transform="translate(81.942 -880.812)" fill="#00c3ff"/>
      <path id="Path_999" data-name="Path 999" d="M399.945,318.73H361.329a1.945,1.945,0,0,0-1.981,1.941v11.7a2.044,2.044,0,0,0,1.981,2.058h3.889v.683h-3.889a1.943,1.943,0,0,0-1.981,1.94v11.7a2.044,2.044,0,0,0,1.981,2.057h38.616a2.057,2.057,0,0,0,2-2.057v-11.7a1.957,1.957,0,0,0-2-1.94h-3.873v-.683h3.873a2.057,2.057,0,0,0,2-2.058v-11.7a1.958,1.958,0,0,0-2-1.941Zm-5.512,16.656H366.857v-1.5h27.576Zm5.871,1.667v11.7a.423.423,0,0,1-.359.419H361.329c-.193,0-.343-.225-.343-.419v-11.7a.306.306,0,0,1,.343-.3h4.01a1.019,1.019,0,0,0,.671.273h29.254a1.025,1.025,0,0,0,.672-.273h4.009a.32.32,0,0,1,.359.3Zm0-4.681a.423.423,0,0,1-.359.42H396a.712.712,0,0,0-.739-.546H366.011a.712.712,0,0,0-.74.546h-3.942c-.193,0-.343-.225-.343-.42v-11.7a.306.306,0,0,1,.343-.3h38.616a.32.32,0,0,1,.359.3Zm0,0" transform="translate(81.942 -880.812)" fill="#00c3ff"/>
      <path id="Path_1000" data-name="Path 1000" d="M388.769,323.713a2.809,2.809,0,1,0,2.809,2.809,2.808,2.808,0,0,0-2.809-2.809Zm0,3.979a1.17,1.17,0,1,1,1.171-1.17,1.169,1.169,0,0,1-1.171,1.17Zm0,0" transform="translate(81.942 -880.812)" fill="#00c3ff"/>
      <path id="Path_1001" data-name="Path 1001" d="M395.557,323.713a2.809,2.809,0,1,0,2.809,2.809,2.809,2.809,0,0,0-2.809-2.809Zm0,3.979a1.17,1.17,0,1,1,1.17-1.17,1.172,1.172,0,0,1-1.17,1.17Zm0,0" transform="translate(81.942 -880.812)" fill="#00c3ff"/>
      <path id="Path_1002" data-name="Path 1002" d="M363.717,323.947a.819.819,0,0,0-.819.819v3.511a.819.819,0,0,0,1.638,0v-3.511a.819.819,0,0,0-.819-.819Zm0,0" transform="translate(81.942 -880.812)" fill="#00c3ff"/>
      <path id="Path_1003" data-name="Path 1003" d="M366.857,323.947a.819.819,0,0,0-.819.819v3.511a.819.819,0,0,0,1.638,0v-3.511a.819.819,0,0,0-.819-.819Zm0,0" transform="translate(81.942 -880.812)" fill="#00c3ff"/>
      <path id="Path_1004" data-name="Path 1004" d="M369.86,323.947a.819.819,0,0,0-.819.819v3.511a.819.819,0,0,0,1.638,0v-3.511a.819.819,0,0,0-.819-.819Zm0,0" transform="translate(81.942 -880.812)" fill="#00c3ff"/>
      <path id="Path_1005" data-name="Path 1005" d="M373,323.947a.819.819,0,0,0-.819.819v3.511a.819.819,0,0,0,1.638,0v-3.511a.819.819,0,0,0-.819-.819Zm0,0" transform="translate(81.942 -880.812)" fill="#00c3ff"/>
      <path id="Path_1006" data-name="Path 1006" d="M376.14,323.947a.819.819,0,0,0-.819.819v3.511a.819.819,0,0,0,1.638,0v-3.511a.819.819,0,0,0-.819-.819Zm0,0" transform="translate(81.942 -880.812)" fill="#00c3ff"/>
    </g>
  </g>
</svg>
