<svg xmlns="http://www.w3.org/2000/svg" width="75" height="70" viewBox="0 0 75 70">
  <g id="service-icon15" transform="translate(-405 -1092)">
    <path id="Path_872" data-name="Path 872" d="M399.137,290.5H344.749a3.631,3.631,0,0,0-3.663,3.622V339.2a3.72,3.72,0,0,0,3.663,3.723h29.713v-1.89H344.749a1.829,1.829,0,0,1-1.774-1.833V303.409h57.936v13.382H402.8V294.122a3.631,3.631,0,0,0-3.663-3.622Zm-56.162,11.02v-7.4a1.743,1.743,0,0,1,1.774-1.733h54.388a1.741,1.741,0,0,1,1.774,1.733v7.4Zm0,0" transform="translate(63.914 801.5)" fill="#1045db"/>
    <path id="Path_873" data-name="Path 873" d="M347.067,293.283a3.081,3.081,0,1,0,3.082,3.082,3.081,3.081,0,0,0-3.082-3.082Zm0,4.274a1.192,1.192,0,1,1,1.192-1.192,1.193,1.193,0,0,1-1.192,1.192Zm0,0" transform="translate(64.433 801.998)" fill="#1045db"/>
    <path id="Path_874" data-name="Path 874" d="M353.591,293.283a3.081,3.081,0,1,0,3.081,3.082,3.078,3.078,0,0,0-3.081-3.082Zm0,4.274a1.192,1.192,0,1,1,1.192-1.192,1.192,1.192,0,0,1-1.192,1.192Zm0,0" transform="translate(65.601 801.998)" fill="#1045db"/>
    <path id="Path_875" data-name="Path 875" d="M359.995,293.283a3.081,3.081,0,1,0,3.081,3.082,3.081,3.081,0,0,0-3.081-3.082Zm0,4.274a1.192,1.192,0,1,1,1.192-1.192,1.192,1.192,0,0,1-1.192,1.192Zm0,0" transform="translate(66.406 801.998)" fill="#1045db"/>
    <path id="Path_876" data-name="Path 876" d="M393.713,295.04h-24.5a.944.944,0,1,0,0,1.889h24.5a.944.944,0,0,0,0-1.889Zm0,0" transform="translate(67.951 802.313)" fill="#1045db"/>
    <path id="Path_877" data-name="Path 877" d="M411.428,320.012A8.028,8.028,0,0,0,403.42,312H376.594a8.014,8.014,0,0,0-.914,15.976v1.379a8.039,8.039,0,0,0,.914,16.022h13.728v3.4a4.337,4.337,0,0,0-3.209,3.214h-5.638a3.658,3.658,0,0,0-3.426-2.6,3.553,3.553,0,1,0,0,7.106,3.485,3.485,0,0,0,3.426-2.615h5.638a4.278,4.278,0,0,0,8.345,0H401.1a3.486,3.486,0,0,0,3.426,2.617,3.555,3.555,0,0,0,0-7.111,3.659,3.659,0,0,0-3.426,2.6h-5.638a4.384,4.384,0,0,0-3.248-3.214v-3.4H403.42a8.039,8.039,0,0,0,.913-16.022v-1.379a8.063,8.063,0,0,0,7.1-7.962Zm-33.379,34.6a1.665,1.665,0,1,1,1.665-1.665,1.664,1.664,0,0,1-1.665,1.665Zm26.475-3.33a1.665,1.665,0,1,1-1.665,1.665,1.663,1.663,0,0,1,1.665-1.665Zm-10.847,1.665a2.39,2.39,0,1,1-2.39-2.389,2.388,2.388,0,0,1,2.39,2.389ZM377.57,329.316v-1.26h24.875v1.26Zm-7.085-9.289a6.142,6.142,0,0,1,6.108-6.139H403.42a6.14,6.14,0,1,1,0,12.279H376.594a6.142,6.142,0,0,1-6.108-6.14Zm39.044,17.318a6.143,6.143,0,0,1-6.11,6.139H376.594a6.14,6.14,0,1,1,0-12.279H403.42a6.143,6.143,0,0,1,6.11,6.14Zm0,0" transform="translate(68.572 804.791)" fill="#00c3ff"/>
    <path id="Path_878" data-name="Path 878" d="M398.877,323.28a3.883,3.883,0,1,0-3.884-3.882,3.883,3.883,0,0,0,3.884,3.882Zm0-5.876a1.993,1.993,0,1,1-1.995,1.994,2,2,0,0,1,1.995-1.994Zm0,0" transform="translate(73.301 805.716)" fill="#00c3ff"/>
    <path id="Path_879" data-name="Path 879" d="M376.759,320.983v-3.526a.945.945,0,0,0-1.89,0v3.526a.945.945,0,0,0,1.89,0Zm0,0" transform="translate(70.275 805.894)" fill="#00c3ff"/>
    <path id="Path_880" data-name="Path 880" d="M378.751,321.927a.943.943,0,0,0,.944-.944v-3.526a.944.944,0,1,0-1.889,0v3.526a.944.944,0,0,0,.944.944Zm0,0" transform="translate(70.742 805.894)" fill="#00c3ff"/>
    <path id="Path_881" data-name="Path 881" d="M381.689,321.927a.944.944,0,0,0,.944-.944v-3.526a.944.944,0,0,0-1.889,0v3.526a.944.944,0,0,0,.944.944Zm0,0" transform="translate(71.209 805.894)" fill="#00c3ff"/>
    <path id="Path_882" data-name="Path 882" d="M384.628,321.927a.944.944,0,0,0,.944-.944v-3.526a.945.945,0,0,0-1.89,0v3.526a.944.944,0,0,0,.946.944Zm0,0" transform="translate(71.675 805.894)" fill="#00c3ff"/>
    <path id="Path_883" data-name="Path 883" d="M387.564,321.927a.944.944,0,0,0,.946-.944v-3.526a.945.945,0,0,0-1.89,0v3.526a.944.944,0,0,0,.944.944Zm0,0" transform="translate(72.142 805.894)" fill="#00c3ff"/>
    <path id="Path_884" data-name="Path 884" d="M394.993,334.048a3.884,3.884,0,1,0,3.884-3.884,3.882,3.882,0,0,0-3.884,3.884Zm3.884-1.995a1.994,1.994,0,1,1-1.995,1.995,2,2,0,0,1,1.995-1.995Zm0,0" transform="translate(73.301 808.185)" fill="#00c3ff"/>
    <path id="Path_885" data-name="Path 885" d="M375.815,331.161a.945.945,0,0,0-.946.944v3.526a.945.945,0,0,0,1.89,0v-3.526a.945.945,0,0,0-.944-.944Zm0,0" transform="translate(70.275 808.368)" fill="#00c3ff"/>
    <path id="Path_886" data-name="Path 886" d="M378.751,331.161a.945.945,0,0,0-.944.944v3.526a.944.944,0,0,0,1.889,0v-3.526a.944.944,0,0,0-.944-.944Zm0,0" transform="translate(70.742 808.368)" fill="#00c3ff"/>
    <path id="Path_887" data-name="Path 887" d="M381.689,331.161a.945.945,0,0,0-.944.944v3.526a.944.944,0,0,0,1.889,0v-3.526a.945.945,0,0,0-.944-.944Zm0,0" transform="translate(71.209 808.368)" fill="#00c3ff"/>
    <path id="Path_888" data-name="Path 888" d="M384.628,331.161a.945.945,0,0,0-.946.944v3.526a.945.945,0,0,0,1.89,0v-3.526a.945.945,0,0,0-.944-.944Zm0,0" transform="translate(71.675 808.368)" fill="#00c3ff"/>
    <path id="Path_889" data-name="Path 889" d="M387.564,331.161a.945.945,0,0,0-.944.944v3.526a.945.945,0,0,0,1.89,0v-3.526a.945.945,0,0,0-.946-.944Zm0,0" transform="translate(72.142 808.368)" fill="#00c3ff"/>
  </g>
</svg>
