<svg xmlns="http://www.w3.org/2000/svg" width="60" height="60" viewBox="0 0 60 60">
  <g id="service-icon10" transform="translate(-335.301 -282.301)">
    <path id="Path_9293" data-name="Path 9293" d="M399.047,288.551A1.248,1.248,0,0,0,397.8,289.8v4.986a1.246,1.246,0,0,0,2.493,0V289.8A1.246,1.246,0,0,0,399.047,288.551Z" transform="translate(-12.471 -1.264)" fill="#00c3ff"/>
    <path id="Path_9294" data-name="Path 9294" d="M392.8,288.551a1.247,1.247,0,0,0-1.246,1.247v4.986a1.246,1.246,0,0,0,2.493,0V289.8A1.247,1.247,0,0,0,392.8,288.551Z" transform="translate(-11.244 -1.264)" fill="#00c3ff"/>
    <path id="Path_9295" data-name="Path 9295" d="M386.548,288.551A1.247,1.247,0,0,0,385.3,289.8v4.986a1.246,1.246,0,0,0,2.493,0V289.8A1.247,1.247,0,0,0,386.548,288.551Z" transform="translate(-9.995 -1.264)" fill="#00c3ff"/>
    <path id="Path_9296" data-name="Path 9296" d="M345.291,288.551a3.739,3.739,0,1,0,3.739,3.74A3.744,3.744,0,0,0,345.291,288.551Zm0,4.986a1.246,1.246,0,1,1,1.246-1.246A1.248,1.248,0,0,1,345.291,293.537Z" transform="translate(-1.264 -1.264)" fill="#00c3ff"/>
    <path id="Path_9297" data-name="Path 9297" d="M380.3,288.551a1.247,1.247,0,0,0-1.246,1.247v4.986a1.246,1.246,0,0,0,2.493,0V289.8A1.247,1.247,0,0,0,380.3,288.551Z" transform="translate(-8.746 -1.264)" fill="#00c3ff"/>
    <path id="Path_9298" data-name="Path 9298" d="M402.172,332.3a1.246,1.246,0,1,0,1.247,1.247A1.248,1.248,0,0,0,402.172,332.3Z" transform="translate(-13.103 -9.995)" fill="#00c3ff"/>
    <path id="Path_9299" data-name="Path 9299" d="M379.051,314.8v4.986a1.246,1.246,0,1,0,2.493,0V314.8a1.246,1.246,0,0,0-2.493,0Z" transform="translate(-8.746 -6.24)" fill="#00c3ff"/>
    <path id="Path_9300" data-name="Path 9300" d="M341.551,317.29a3.739,3.739,0,1,0,3.74-3.739A3.744,3.744,0,0,0,341.551,317.29Zm4.986,0a1.246,1.246,0,1,1-1.246-1.246A1.248,1.248,0,0,1,346.537,317.29Z" transform="translate(-1.264 -6.24)" fill="#00c3ff"/>
    <path id="Path_9301" data-name="Path 9301" d="M389.051,299.811a6.259,6.259,0,0,0,6.25-6.253v-5a6.259,6.259,0,0,0-6.25-6.254h-47.5a6.259,6.259,0,0,0-6.25,6.254v5a6.259,6.259,0,0,0,6.25,6.253H357.8v2.5h-16.25a6.26,6.26,0,0,0-6.25,6.254v5a6.259,6.259,0,0,0,6.25,6.254H357.8v2.5h-1.25a1.252,1.252,0,0,0-1.25,1.251v1.25h-1.25a1.251,1.251,0,0,0-1.25,1.25v1.251h-11.25a1.251,1.251,0,0,0,0,2.5H352.8v1.25a1.25,1.25,0,0,0,1.25,1.25h10a1.25,1.25,0,0,0,1.25-1.25v-1.25h6.485a1.251,1.251,0,0,0,0-2.5H365.3v-1.251a1.251,1.251,0,0,0-1.25-1.25H362.8v-1.25a1.251,1.251,0,0,0-1.25-1.251H360.3v-2.5h17.138a1.252,1.252,0,0,0,0-2.5H341.551a3.756,3.756,0,0,1-3.75-3.752v-5a3.755,3.755,0,0,1,3.75-3.752h17.487l.012,0,.013,0h29.987a3.756,3.756,0,0,1,3.75,3.752v5a3.73,3.73,0,0,1-.3,1.471,1.252,1.252,0,0,0,2.3.988,6.2,6.2,0,0,0,.5-2.457v-5a6.259,6.259,0,0,0-6.25-6.253H360.3v-2.5ZM360.3,324.826v1.25a1.251,1.251,0,0,0,1.25,1.251h1.25v2.5h-7.5v-2.5h1.25a1.252,1.252,0,0,0,1.25-1.251v-1.25Zm-18.75-27.516a3.756,3.756,0,0,1-3.75-3.752v-5a3.756,3.756,0,0,1,3.75-3.753h47.5a3.756,3.756,0,0,1,3.75,3.753v5a3.755,3.755,0,0,1-3.75,3.752Z" transform="translate(0)" fill="#00c3ff"/>
    <path id="Path_9302" data-name="Path 9302" d="M395.83,326.047a8.157,8.157,0,0,0-8.148,8.149,7.5,7.5,0,0,0,.085,1.124l-8.351,8.351a1.255,1.255,0,0,0-.364.883v5.177a1.246,1.246,0,0,0,1.246,1.247h5.178a1.248,1.248,0,0,0,.88-.364l8.35-8.351a7.288,7.288,0,0,0,1.122.087,8.152,8.152,0,0,0,0-16.3Zm0,13.808a5.637,5.637,0,0,1-1.261-.155,1.225,1.225,0,0,0-1.159.334l-8.451,8.451h-3.415V345.07l8.448-8.45a1.244,1.244,0,0,0,.333-1.161,5.606,5.606,0,0,1,5.5-6.915,5.656,5.656,0,1,1,0,11.312Z" transform="translate(-8.678 -8.677)" fill="#00c3ff"/>
    <path id="Path_9303" data-name="Path 9303" d="M400.294,319.783V314.8a1.247,1.247,0,0,0-2.494,0v4.986a1.247,1.247,0,1,0,2.494,0Z" transform="translate(-12.471 -6.24)" fill="#00c3ff"/>
    <path id="Path_9304" data-name="Path 9304" d="M385.3,314.8v4.986a1.246,1.246,0,1,0,2.493,0V314.8a1.246,1.246,0,0,0-2.493,0Z" transform="translate(-9.995 -6.24)" fill="#00c3ff"/>
    <path id="Path_9305" data-name="Path 9305" d="M394.044,319.783V314.8a1.246,1.246,0,0,0-2.493,0v4.986a1.246,1.246,0,1,0,2.493,0Z" transform="translate(-11.244 -6.24)" fill="#00c3ff"/>
  </g>
</svg>
