<svg xmlns="http://www.w3.org/2000/svg" width="60" height="60" viewBox="0 0 60 60">
  <g id="service-icon9" transform="translate(-335.32 -282.605)">
    <path id="Path_9306" data-name="Path 9306" d="M395.771,305.813a4.729,4.729,0,0,0-2.263-3.472,4.657,4.657,0,0,0-4.079-.364,2.248,2.248,0,0,1-2.8-1.258,21.088,21.088,0,0,0-2.134-3.706,2.229,2.229,0,0,1,.313-3.06,4.65,4.65,0,0,0,1.7-3.7,4.732,4.732,0,0,0-1.892-3.693,28.679,28.679,0,0,0-6.193-3.574,4.759,4.759,0,0,0-4.165.21,4.639,4.639,0,0,0-2.351,3.318,2.242,2.242,0,0,1-2.511,1.795,20.556,20.556,0,0,0-4.252,0,2.24,2.24,0,0,1-2.509-1.8,4.636,4.636,0,0,0-2.353-3.316,4.761,4.761,0,0,0-4.162-.21,28.772,28.772,0,0,0-6.193,3.574,4.73,4.73,0,0,0-1.889,3.69,4.659,4.659,0,0,0,1.707,3.7,2.223,2.223,0,0,1,.309,3.057,21.221,21.221,0,0,0-2.133,3.706,2.258,2.258,0,0,1-2.829,1.247,4.663,4.663,0,0,0-3.6.133,4.761,4.761,0,0,0-2.471,2.7,1.249,1.249,0,0,0,2.351.841,2.262,2.262,0,0,1,1.169-1.283,2.141,2.141,0,0,1,1.7-.05,4.753,4.753,0,0,0,5.961-2.576,18.618,18.618,0,0,1,1.881-3.269,4.7,4.7,0,0,0-.752-6.443,2.158,2.158,0,0,1-.795-1.722,2.239,2.239,0,0,1,.9-1.755,26.143,26.143,0,0,1,5.653-3.262,2.263,2.263,0,0,1,1.989.1,2.125,2.125,0,0,1,1.094,1.542,4.7,4.7,0,0,0,5.234,3.865,18.342,18.342,0,0,1,3.733,0,4.689,4.689,0,0,0,5.234-3.865,2.134,2.134,0,0,1,1.094-1.542,2.253,2.253,0,0,1,1.988-.1,26.251,26.251,0,0,1,5.653,3.262,2.245,2.245,0,0,1,.9,1.755,2.157,2.157,0,0,1-.795,1.727,4.7,4.7,0,0,0-.75,6.441,18.653,18.653,0,0,1,1.881,3.27,4.759,4.759,0,0,0,5.987,2.565,2.167,2.167,0,0,1,1.889.173,2.254,2.254,0,0,1,1.071,1.654,25.39,25.39,0,0,1,0,6.558,2.245,2.245,0,0,1-1.071,1.655,2.19,2.19,0,0,1-1.916.162,4.753,4.753,0,0,0-5.959,2.578,18.711,18.711,0,0,1-1.884,3.272,4.7,4.7,0,0,0,.752,6.44,2.157,2.157,0,0,1,.795,1.723,2.245,2.245,0,0,1-.9,1.757,26.144,26.144,0,0,1-5.653,3.261,2.288,2.288,0,0,1-1.989-.1,2.122,2.122,0,0,1-1.095-1.542,4.7,4.7,0,0,0-5.236-3.866,17.528,17.528,0,0,1-1.864.1,1.247,1.247,0,1,0,0,2.495,19.871,19.871,0,0,0,2.126-.113,2.232,2.232,0,0,1,2.511,1.8,4.639,4.639,0,0,0,2.351,3.319,4.767,4.767,0,0,0,2.293.591,4.833,4.833,0,0,0,1.868-.377,28.789,28.789,0,0,0,6.194-3.573,4.738,4.738,0,0,0,1.888-3.7,4.651,4.651,0,0,0-1.706-3.7,2.225,2.225,0,0,1-.312-3.057,21.108,21.108,0,0,0,2.136-3.708,2.262,2.262,0,0,1,2.828-1.248,4.656,4.656,0,0,0,4.055-.375,4.726,4.726,0,0,0,2.261-3.472,27.943,27.943,0,0,0,0-7.2Z" transform="translate(-0.684 0)" fill="#00c3ff"/>
    <path id="Path_9307" data-name="Path 9307" d="M372,322.4a1.268,1.268,0,0,0,0,2.537,11.414,11.414,0,1,0-10.139-16.561,1.268,1.268,0,0,0,2.26,1.149A8.859,8.859,0,1,1,372,322.4Z" transform="translate(-5.447 -4.038)" fill="#00c3ff"/>
    <path id="Path_9308" data-name="Path 9308" d="M349.27,313.858c-6.764,0-13.95,2.223-13.95,6.341v22.828c0,4.12,7.186,6.341,13.95,6.341s13.951-2.222,13.951-6.341V320.2C363.222,316.081,356.035,313.858,349.27,313.858Zm11.415,29.17c0,1.553-4.447,3.8-11.415,3.8s-11.414-2.252-11.414-3.8v-3.858c2.692,1.7,7.133,2.589,11.414,2.589s8.724-.893,11.415-2.589Zm0-7.609c0,1.552-4.447,3.8-11.415,3.8s-11.414-2.253-11.414-3.8V331.56c2.692,1.7,7.133,2.589,11.414,2.589s8.724-.893,11.415-2.589Zm0-7.61c0,1.552-4.447,3.805-11.415,3.805s-11.414-2.253-11.414-3.805v-3.857c2.692,1.7,7.133,2.589,11.414,2.589s8.724-.893,11.415-2.589ZM349.27,324c-6.967,0-11.414-2.253-11.414-3.8s4.447-3.8,11.414-3.8,11.415,2.253,11.415,3.8S356.238,324,349.27,324Z" transform="translate(0 -6.764)" fill="#00c3ff"/>
  </g>
</svg>
