<svg xmlns="http://www.w3.org/2000/svg" width="53.074" height="60" viewBox="0 0 53.074 60">
  <g id="service-icon2" transform="translate(141 819)">
    <g id="Group_4623" data-name="Group 4623">
      <path id="Path_892" data-name="Path 892" d="M223.373,195.348a.777.777,0,0,0-.777.777v3.883a.777.777,0,1,0,1.554,0v-3.883a.777.777,0,0,0-.777-.777Zm0,0" transform="translate(-359.713 -965.675)" fill="#1d0f9b"/>
      <path id="Path_893" data-name="Path 893" d="M226.868,195.348a.777.777,0,0,0-.777.777v3.883a.777.777,0,1,0,1.554,0v-3.883a.777.777,0,0,0-.777-.777Zm0,0" transform="translate(-359.713 -965.675)" fill="#1d0f9b"/>
      <path id="Path_894" data-name="Path 894" d="M230.234,195.348a.777.777,0,0,0-.777.777v3.883a.776.776,0,1,0,1.553,0v-3.883a.777.777,0,0,0-.776-.777Zm0,0" transform="translate(-359.713 -965.675)" fill="#1d0f9b"/>
      <path id="Path_895" data-name="Path 895" d="M233.6,195.348a.777.777,0,0,0-.776.777v3.883a.777.777,0,1,0,1.553,0v-3.883a.777.777,0,0,0-.777-.777Zm0,0" transform="translate(-359.713 -965.675)" fill="#1d0f9b"/>
      <path id="Path_896" data-name="Path 896" d="M237.1,195.348a.777.777,0,0,0-.777.777v3.883a.777.777,0,1,0,1.553,0v-3.883a.777.777,0,0,0-.776-.777Zm0,0" transform="translate(-359.713 -965.675)" fill="#1d0f9b"/>
      <path id="Path_897" data-name="Path 897" d="M264.02,186.416a.6.6,0,0,1-.549.583h-4.446a.679.679,0,0,0-.732-.518H225.93a.677.677,0,0,0-.731.518h-4.447a.553.553,0,0,1-.486-.583V173.471a.44.44,0,0,1,.486-.453h4.507a1.091,1.091,0,0,0,.671.389h27.993v-1.554H226.739v-1.942h24.207v-1.553H225.93a.677.677,0,0,0-.731.518h-4.447a.553.553,0,0,1-.486-.583V155.348a.44.44,0,0,1,.486-.453h27.734v-1.553H220.752a1.991,1.991,0,0,0-2.039,2.006v12.945a2.1,2.1,0,0,0,2.039,2.136h4.433v1.036h-4.433a1.991,1.991,0,0,0-2.039,2.006v12.945a2.1,2.1,0,0,0,2.039,2.136h4.433v1.036h-4.433a1.991,1.991,0,0,0-2.039,2.006v12.945a2.1,2.1,0,0,0,2.039,2.136h42.719a2.157,2.157,0,0,0,2.1-2.136V191.594a2.046,2.046,0,0,0-2.1-2.006H259.1v-1.036h4.37a2.157,2.157,0,0,0,2.1-2.136v-13.4H264.02Zm-6.472,3.56H226.739v-1.942h30.809Zm6.472,1.618v12.945a.6.6,0,0,1-.549.583H220.752a.553.553,0,0,1-.486-.583V191.594a.44.44,0,0,1,.486-.453h4.507a1.091,1.091,0,0,0,.671.389h32.363a1.091,1.091,0,0,0,.672-.389h4.506a.494.494,0,0,1,.549.453Zm0,0" transform="translate(-359.713 -965.675)" fill="#1d0f9b"/>
      <path id="Path_900" data-name="Path 900" d="M222.6,178v3.884a.777.777,0,0,0,1.554,0V178a.777.777,0,0,0-1.554,0Zm0,0" transform="translate(-359.713 -965.675)" fill="#1d0f9b"/>
      <path id="Path_901" data-name="Path 901" d="M226.091,178v3.884a.777.777,0,0,0,1.554,0V178a.777.777,0,0,0-1.554,0Zm0,0" transform="translate(-359.713 -965.675)" fill="#1d0f9b"/>
      <path id="Path_902" data-name="Path 902" d="M229.457,178v3.884a.776.776,0,0,0,1.553,0V178a.776.776,0,1,0-1.553,0Zm0,0" transform="translate(-359.713 -965.675)" fill="#1d0f9b"/>
      <path id="Path_903" data-name="Path 903" d="M232.823,178v3.884a.777.777,0,0,0,1.553,0V178a.777.777,0,1,0-1.553,0Zm0,0" transform="translate(-359.713 -965.675)" fill="#1d0f9b"/>
      <path id="Path_904" data-name="Path 904" d="M236.318,178v3.884a.777.777,0,0,0,1.553,0V178a.777.777,0,1,0-1.553,0Zm0,0" transform="translate(-359.713 -965.675)" fill="#1d0f9b"/>
      <path id="Path_905" data-name="Path 905" d="M222.6,159.879v3.884a.777.777,0,0,0,1.554,0v-3.884a.777.777,0,0,0-1.554,0Zm0,0" transform="translate(-359.713 -965.675)" fill="#1d0f9b"/>
      <path id="Path_906" data-name="Path 906" d="M226.091,159.879v3.884a.777.777,0,0,0,1.554,0v-3.884a.777.777,0,0,0-1.554,0Zm0,0" transform="translate(-359.713 -965.675)" fill="#1d0f9b"/>
      <path id="Path_907" data-name="Path 907" d="M229.457,159.879v3.884a.776.776,0,0,0,1.553,0v-3.884a.776.776,0,1,0-1.553,0Zm0,0" transform="translate(-359.713 -965.675)" fill="#1d0f9b"/>
      <path id="Path_908" data-name="Path 908" d="M232.823,159.879v3.884a.777.777,0,0,0,1.553,0v-3.884a.777.777,0,1,0-1.553,0Zm0,0" transform="translate(-359.713 -965.675)" fill="#1d0f9b"/>
      <path id="Path_909" data-name="Path 909" d="M236.318,159.879v3.884a.777.777,0,0,0,1.553,0v-3.884a.777.777,0,1,0-1.553,0Zm0,0" transform="translate(-359.713 -965.675)" fill="#1d0f9b"/>
    </g>
    <g id="Group_4622" data-name="Group 4622">
      <path id="Path_890" data-name="Path 890" d="M251.108,195.089a2.978,2.978,0,1,0,2.977,2.978,2.98,2.98,0,0,0-2.977-2.978Zm0,4.4a1.424,1.424,0,1,1,1.424-1.424,1.424,1.424,0,0,1-1.424,1.424Zm0,0" transform="translate(-359.713 -965.675)" fill="#00c3ff"/>
      <path id="Path_891" data-name="Path 891" d="M258.616,195.089a2.977,2.977,0,1,0,2.978,2.978,2.978,2.978,0,0,0-2.978-2.978Zm0,4.4a1.424,1.424,0,1,1,1.424-1.424,1.424,1.424,0,0,1-1.424,1.424Zm0,0" transform="translate(-359.713 -965.675)" fill="#00c3ff"/>
      <path id="Path_898" data-name="Path 898" d="M251.108,176.966a2.978,2.978,0,1,0,2.977,2.978,2.98,2.98,0,0,0-2.977-2.978Zm0,4.4a1.424,1.424,0,1,1,1.424-1.424,1.424,1.424,0,0,1-1.424,1.424Zm0,0" transform="translate(-359.713 -965.675)" fill="#00c3ff"/>
      <path id="Path_899" data-name="Path 899" d="M255.639,179.944a2.977,2.977,0,1,0,2.977-2.978,2.978,2.978,0,0,0-2.977,2.978Zm4.4,0a1.424,1.424,0,1,1-1.424-1.424,1.422,1.422,0,0,1,1.424,1.424Zm0,0" transform="translate(-359.713 -965.675)" fill="#00c3ff"/>
      <path id="Path_910" data-name="Path 910" d="M271.391,152.886l-11.475-6.12a.77.77,0,0,0-.735,0L248,152.89a.792.792,0,0,0-.419.681v7.061a16.772,16.772,0,0,0,10.061,15.335l1.558.676a.815.815,0,0,0,.315.065.789.789,0,0,0,.31-.064l1.732-.754a16.708,16.708,0,0,0,10.231-15.417v-6.9a.762.762,0,0,0-.4-.685Zm-1.157,7.587a15.158,15.158,0,0,1-9.286,13.987l0,0-1.435.621-1.255-.54a15.217,15.217,0,0,1-9.128-13.912v-6.6l10.4-5.7,10.7,5.7Zm0,0" transform="translate(-359.713 -965.675)" fill="#00c3ff"/>
    </g>
    <g id="Group_449" data-name="Group 449" transform="translate(-359.713 -965.675)">
      <g id="Group_448" data-name="Group 448">
        <path id="Path_911" data-name="Path 911" d="M265.685,162.9l-.012-.157a9.472,9.472,0,0,0-2.283-5.222,6.266,6.266,0,0,1-1.7-3.848.335.335,0,0,0-.182-.3.331.331,0,0,0-.348.025,8.514,8.514,0,0,0-3.142,4.541,14.851,14.851,0,0,0-.344,3.395c-1.364-.292-1.674-2.334-1.677-2.356a.335.335,0,0,0-.477-.254c-.072.035-1.757.891-1.855,4.31-.007.114-.007.228-.007.342a6.024,6.024,0,1,0,12.048,0C265.708,163.215,265.7,163.06,265.685,162.9Zm-6,5.833a2.079,2.079,0,0,1-2.008-2.139c0-.041,0-.081,0-.131a2.718,2.718,0,0,1,.212-1.063,1.222,1.222,0,0,0,1.1.8.334.334,0,0,0,.334-.335,6.673,6.673,0,0,1,.129-1.522,3.227,3.227,0,0,1,.677-1.283,4.333,4.333,0,0,0,.69,1.265,3.81,3.81,0,0,1,.858,2.09c0,.058.009.115.009.178A2.079,2.079,0,0,1,259.684,168.737Zm2.115-.438a2.867,2.867,0,0,0,.562-1.7c0-.079-.005-.152-.015-.289a4.381,4.381,0,0,0-.973-2.364,2.657,2.657,0,0,1-.666-1.567.334.334,0,0,0-.536-.267,3.907,3.907,0,0,0-1.364,2.081,6.108,6.108,0,0,0-.141,1.188,1.582,1.582,0,0,1-.3-.719.337.337,0,0,0-.485-.253c-.084.043-.825.468-.867,2.031,0,.053,0,.106,0,.159a2.861,2.861,0,0,0,.563,1.7,5.36,5.36,0,0,1-3.24-4.917c0-.1,0-.2.007-.312a5.015,5.015,0,0,1,1.118-3.44c.292,1.046,1.058,2.413,2.556,2.413a.334.334,0,0,0,.335-.334,14.916,14.916,0,0,1,.325-3.6,7.948,7.948,0,0,1,2.395-3.774,7.624,7.624,0,0,0,1.788,3.589,8.8,8.8,0,0,1,2.153,4.87l.011.16c.011.14.022.279.022.428A5.363,5.363,0,0,1,261.8,168.3Z" fill="#00c3ff" stroke="#00c3ff" stroke-miterlimit="10" stroke-width="1"/>
      </g>
    </g>
  </g>
</svg>
