<svg xmlns="http://www.w3.org/2000/svg" width="54" height="70" viewBox="0 0 54 70">
  <g id="service-icon18" transform="translate(-405 -1398)">
    <path id="Path_934" data-name="Path 934" d="M373.037,290.147a24.023,24.023,0,0,0-4.178,47.662l.319-1.819a22.049,22.049,0,0,1-11.952-6.358,21.7,21.7,0,0,1,4.079-3.285,23.093,23.093,0,0,0,6.822,9.27l1.144-1.447a21.322,21.322,0,0,1-6.356-8.735,22.285,22.285,0,0,1,9.191-2.4v3.32h1.839v-3.32a22.617,22.617,0,0,1,4.215.578l.423-1.8a24.369,24.369,0,0,0-4.638-.628v-6.07H385.23a33.1,33.1,0,0,1-.307,3.7l1.822.268a34.02,34.02,0,0,0,.327-3.967H395.1a22.127,22.127,0,0,1-2.084,8.517l1.665.781a24.048,24.048,0,0,0-21.641-34.268Zm16.984,9.88A22,22,0,0,1,395.1,313.27h-8.026a31.622,31.622,0,0,0-1.641-9.574,23.667,23.667,0,0,0,4.59-3.669Zm-1.237-1.389a21.765,21.765,0,0,1-4.021,3.276,22.927,22.927,0,0,0-7.1-9.429,22.035,22.035,0,0,1,11.118,6.153ZM350.976,313.27A21.938,21.938,0,0,1,356,300.089a23.543,23.543,0,0,0,4.628,3.657A32.357,32.357,0,0,0,359,313.27Zm11.291-8.627a23.8,23.8,0,0,0,9.841,2.491v6.136H360.843a30.568,30.568,0,0,1,1.424-8.627Zm.631-1.763a20.528,20.528,0,0,1,9.21-10.6v13.008a22.344,22.344,0,0,1-9.21-2.405Zm11.049-10.6a20.467,20.467,0,0,1,9.195,10.562,22.009,22.009,0,0,1-9.195,2.445Zm-5.537.207a22.937,22.937,0,0,0-7.119,9.48,21.644,21.644,0,0,1-4.057-3.268,22.044,22.044,0,0,1,11.176-6.212ZM356,328.27a22.288,22.288,0,0,1-5.019-13.154H359a32.033,32.033,0,0,0,1.64,9.5A23.505,23.505,0,0,0,356,328.27Zm16.112-7.084a23.8,23.8,0,0,0-9.831,2.521,30.119,30.119,0,0,1-1.431-8.59h11.262Zm1.839-14.053a23.481,23.481,0,0,0,9.839-2.531,30.7,30.7,0,0,1,1.445,8.668H373.947Zm0,0" transform="translate(56.048 1108.026)" fill="#1045db"/>
    <path id="Path_935" data-name="Path 935" d="M390.96,352.077a3.223,3.223,0,0,0-2.488-3.208v-1.786a4.743,4.743,0,0,0-2.486-4.185,2.9,2.9,0,0,1-1.517-2.559v-3.85h4.408a5.3,5.3,0,0,0,3.769,4.956,3.484,3.484,0,0,1,2.445,3.345v1.93a3.306,3.306,0,0,0-2.37,3.2,3.347,3.347,0,0,0,3.345,3.328,3.311,3.311,0,0,0,3.3-3.328,3.357,3.357,0,0,0-2.43-3.2v-1.93a5.337,5.337,0,0,0-3.771-5.116,3.394,3.394,0,0,1-2.438-3.185h1.02a8.389,8.389,0,0,0,.433-16.767,9.986,9.986,0,0,0-17.651-1.127,7.332,7.332,0,0,0-6.265,7.231c0,.045,0,.091,0,.135a5.572,5.572,0,0,0-3.227,4.694c-.007.116-.011.2-.011.319a5.526,5.526,0,0,0,5.547,5.515h2.81v3.127a1.744,1.744,0,0,1-1.351,1.737,3.6,3.6,0,0,0-2.805,3.54V349.7a3.306,3.306,0,1,0,1.848,0v-4.809a1.743,1.743,0,0,1,1.351-1.736,3.605,3.605,0,0,0,2.805-3.541v-3.128h4.2a2.588,2.588,0,0,1-1.605,2.295,4.524,4.524,0,0,0-2.75,4.212v.976a3.366,3.366,0,0,0-2.441,3.2,3.317,3.317,0,0,0,3.309,3.328,3.355,3.355,0,0,0,3.355-3.328,3.308,3.308,0,0,0-2.376-3.2v-.976a2.683,2.683,0,0,1,1.613-2.506,4.416,4.416,0,0,0,2.743-4h1.339v3.85a4.742,4.742,0,0,0,2.485,4.185,2.9,2.9,0,0,1,1.517,2.559v1.811a3.472,3.472,0,0,0-2.319,3.183,3.327,3.327,0,1,0,6.654,0Zm6.6-2.16a1.48,1.48,0,1,1-1.48-1.48,1.481,1.481,0,0,1,1.48,1.48ZM371.586,352.9a1.48,1.48,0,1,1-1.48-1.48,1.481,1.481,0,0,1,1.48,1.48Zm5.824-5.732a1.48,1.48,0,1,1-1.48-1.48,1.478,1.478,0,0,1,1.48,1.48Zm-10.533-16.193c0-.079,0-.142.008-.22a3.7,3.7,0,0,1,2.617-3.3.918.918,0,0,0,.648-.991,5.457,5.457,0,0,1,5.013-6.081.923.923,0,0,0,.745-.478,8.137,8.137,0,0,1,14.782,1.065.921.921,0,0,0,.894.6h.162a6.534,6.534,0,1,1,0,13.069H370.576a3.678,3.678,0,0,1-3.7-3.669Zm20.8,22.585a1.48,1.48,0,1,1,1.479-1.482,1.482,1.482,0,0,1-1.479,1.482Zm0,0" transform="translate(58.675 1111.602)" fill="#00c3ff"/>
    <rect id="Rectangle_251" data-name="Rectangle 251" width="54" height="70" transform="translate(405 1398)" fill="none"/>
  </g>
</svg>
