<svg xmlns="http://www.w3.org/2000/svg" width="64.095" height="60" viewBox="0 0 64.095 60">
  <g id="service-icon1" transform="translate(432 812)">
    <rect id="Rectangle_250" data-name="Rectangle 250" width="64.095" height="60" transform="translate(-432 -812)" fill="none"/>
    <g id="Group_4620" data-name="Group 4620">
      <path id="Path_872" data-name="Path 872" d="M390.323,290.5h-46.13a3.08,3.08,0,0,0-3.107,3.072v38.236a3.155,3.155,0,0,0,3.107,3.158h25.2v-1.6h-25.2a1.551,1.551,0,0,1-1.505-1.555V301.449h49.14V312.8h1.6V293.572a3.08,3.08,0,0,0-3.107-3.072Zm-47.635,9.347v-6.275a1.479,1.479,0,0,1,1.505-1.47h46.13a1.477,1.477,0,0,1,1.505,1.47v6.275Zm0,0" transform="translate(-772.953 -1102.5)" fill="#1d0f9b"/>
      <path id="Path_873" data-name="Path 873" d="M346.6,293.283a2.613,2.613,0,1,0,2.614,2.614,2.613,2.613,0,0,0-2.614-2.614Zm0,3.625a1.011,1.011,0,1,1,1.011-1.011,1.012,1.012,0,0,1-1.011,1.011Zm0,0" transform="translate(-772.953 -1102.5)" fill="#1d0f9b"/>
      <path id="Path_874" data-name="Path 874" d="M353.123,293.283a2.614,2.614,0,1,0,2.613,2.614,2.611,2.611,0,0,0-2.613-2.614Zm0,3.625a1.011,1.011,0,1,1,1.011-1.011,1.011,1.011,0,0,1-1.011,1.011Zm0,0" transform="translate(-772.953 -1102.5)" fill="#1d0f9b"/>
      <path id="Path_875" data-name="Path 875" d="M359.527,293.283a2.614,2.614,0,1,0,2.613,2.614,2.613,2.613,0,0,0-2.613-2.614Zm0,3.625a1.011,1.011,0,1,1,1.011-1.011,1.011,1.011,0,0,1-1.011,1.011Zm0,0" transform="translate(-772.953 -1102.5)" fill="#1d0f9b"/>
      <path id="Path_876" data-name="Path 876" d="M389.85,295.04H369.071a.8.8,0,1,0,0,1.6H389.85a.8.8,0,0,0,0-1.6Zm0,0" transform="translate(-772.953 -1102.5)" fill="#1d0f9b"/>
    </g>
    <g id="Group_4621" data-name="Group 4621">
      <path id="Path_877" data-name="Path 877" d="M404.922,318.8a6.809,6.809,0,0,0-6.792-6.8H375.377a6.8,6.8,0,0,0-.775,13.55v1.17a6.818,6.818,0,0,0,.775,13.589h11.644v2.882a3.678,3.678,0,0,0-2.722,2.726h-4.782a3.1,3.1,0,0,0-2.906-2.207,3.014,3.014,0,1,0,0,6.027,2.956,2.956,0,0,0,2.906-2.218H384.3a3.628,3.628,0,0,0,7.078,0h4.783a2.956,2.956,0,0,0,2.906,2.22,3.016,3.016,0,0,0,0-6.031,3.1,3.1,0,0,0-2.906,2.209h-4.782a3.718,3.718,0,0,0-2.755-2.726v-2.882h9.507a6.818,6.818,0,0,0,.774-13.589v-1.17a6.839,6.839,0,0,0,6.018-6.753ZM376.611,348.14a1.412,1.412,0,1,1,1.412-1.412,1.411,1.411,0,0,1-1.412,1.412Zm22.455-2.824a1.412,1.412,0,1,1-1.412,1.412,1.411,1.411,0,0,1,1.412-1.412Zm-9.2,1.412a2.027,2.027,0,1,1-2.027-2.026,2.026,2.026,0,0,1,2.027,2.026ZM376.2,326.687v-1.069h21.1v1.069Zm-6.009-7.879a5.209,5.209,0,0,1,5.181-5.207H398.13a5.207,5.207,0,1,1,0,10.415H375.377a5.21,5.21,0,0,1-5.181-5.208ZM403.312,333.5a5.21,5.21,0,0,1-5.182,5.207H375.377a5.208,5.208,0,1,1,0-10.415H398.13a5.211,5.211,0,0,1,5.182,5.208Zm0,0" transform="translate(-772.953 -1102.5)" fill="#00c3ff"/>
      <path id="Path_878" data-name="Path 878" d="M398.287,322.1a3.293,3.293,0,1,0-3.294-3.293,3.293,3.293,0,0,0,3.294,3.293Zm0-4.984a1.691,1.691,0,1,1-1.692,1.691,1.693,1.693,0,0,1,1.692-1.691Zm0,0" transform="translate(-772.953 -1102.5)" fill="#00c3ff"/>
      <path id="Path_879" data-name="Path 879" d="M376.472,320.3v-2.991a.8.8,0,0,0-1.6,0V320.3a.8.8,0,0,0,1.6,0Zm0,0" transform="translate(-772.953 -1102.5)" fill="#00c3ff"/>
      <path id="Path_880" data-name="Path 880" d="M378.608,321.105a.8.8,0,0,0,.8-.8v-2.991a.8.8,0,1,0-1.6,0V320.3a.8.8,0,0,0,.8.8Zm0,0" transform="translate(-772.953 -1102.5)" fill="#00c3ff"/>
      <path id="Path_881" data-name="Path 881" d="M381.546,321.105a.8.8,0,0,0,.8-.8v-2.991a.8.8,0,1,0-1.6,0V320.3a.8.8,0,0,0,.8.8Zm0,0" transform="translate(-772.953 -1102.5)" fill="#00c3ff"/>
      <path id="Path_882" data-name="Path 882" d="M384.484,321.105a.8.8,0,0,0,.8-.8v-2.991a.8.8,0,0,0-1.6,0V320.3a.8.8,0,0,0,.8.8Zm0,0" transform="translate(-772.953 -1102.5)" fill="#00c3ff"/>
      <path id="Path_883" data-name="Path 883" d="M387.421,321.105a.8.8,0,0,0,.8-.8v-2.991a.8.8,0,0,0-1.6,0V320.3a.8.8,0,0,0,.8.8Zm0,0" transform="translate(-772.953 -1102.5)" fill="#00c3ff"/>
      <path id="Path_884" data-name="Path 884" d="M394.993,333.458a3.294,3.294,0,1,0,3.294-3.294,3.293,3.293,0,0,0-3.294,3.294Zm3.294-1.692a1.691,1.691,0,1,1-1.692,1.692,1.692,1.692,0,0,1,1.692-1.692Zm0,0" transform="translate(-772.953 -1102.5)" fill="#00c3ff"/>
      <path id="Path_885" data-name="Path 885" d="M375.671,331.161a.8.8,0,0,0-.8.8v2.991a.8.8,0,0,0,1.6,0v-2.991a.8.8,0,0,0-.8-.8Zm0,0" transform="translate(-772.953 -1102.5)" fill="#00c3ff"/>
      <path id="Path_886" data-name="Path 886" d="M378.608,331.161a.8.8,0,0,0-.8.8v2.991a.8.8,0,0,0,1.6,0v-2.991a.8.8,0,0,0-.8-.8Zm0,0" transform="translate(-772.953 -1102.5)" fill="#00c3ff"/>
      <path id="Path_887" data-name="Path 887" d="M381.546,331.161a.8.8,0,0,0-.8.8v2.991a.8.8,0,1,0,1.6,0v-2.991a.8.8,0,0,0-.8-.8Zm0,0" transform="translate(-772.953 -1102.5)" fill="#00c3ff"/>
      <path id="Path_888" data-name="Path 888" d="M384.484,331.161a.8.8,0,0,0-.8.8v2.991a.8.8,0,0,0,1.6,0v-2.991a.8.8,0,0,0-.8-.8Zm0,0" transform="translate(-772.953 -1102.5)" fill="#00c3ff"/>
      <path id="Path_889" data-name="Path 889" d="M387.421,331.161a.8.8,0,0,0-.8.8v2.991a.8.8,0,0,0,1.6,0v-2.991a.8.8,0,0,0-.8-.8Zm0,0" transform="translate(-772.953 -1102.5)" fill="#00c3ff"/>
    </g>
  </g>
</svg>
