<svg xmlns="http://www.w3.org/2000/svg" width="67.016" height="60" viewBox="0 0 67.016 60">
  <g id="service-icon6" transform="translate(149 590)">
    <path id="Path_936" data-name="Path 936" d="M386.471,302.587l-23.282-12.4a1.1,1.1,0,0,0-1.042.007l-22.607,12.4a1.075,1.075,0,0,0-.548.955v14.306a33.442,33.442,0,0,0,20.036,30.626l3.129,1.369a1.07,1.07,0,0,0,.859,0l3.534-1.528a33.481,33.481,0,0,0,14.883-12.3l-1.812-1.207a31.325,31.325,0,0,1-13.928,11.51l-3.109,1.343-2.684-1.18a31.266,31.266,0,0,1-18.731-28.631V304.193l21.55-11.807L384.9,304.2v4.912h2.177v-5.565a1.114,1.114,0,0,0-.6-.961Zm0,0" transform="translate(-487.992 -880)" fill="#1d0f9b"/>
    <g id="Group_4632" data-name="Group 4632">
      <path id="Path_937" data-name="Path 937" d="M401.09,337.419a4.726,4.726,0,0,0-4.59,3.629h-4.162v-5.443a1.054,1.054,0,0,0-1.047-1.089H370.477a4.717,4.717,0,1,0,0,2.178h19.684v5.443a1.125,1.125,0,0,0,1.13,1.089H396.5a4.718,4.718,0,1,0,4.59-5.807Zm-35.223.726a2.54,2.54,0,1,1,2.338-3.478v1.875a2.5,2.5,0,0,1-2.338,1.6Zm35.223,6.532a2.54,2.54,0,1,1,2.54-2.54,2.541,2.541,0,0,1-2.54,2.54Zm0,0" transform="translate(-487.992 -880)" fill="#00c3ff"/>
      <path id="Path_938" data-name="Path 938" d="M387.293,323.629a4.717,4.717,0,1,0-.087-2.177H359.267a4.716,4.716,0,1,0-.086,2.177Zm4.543-3.81a2.54,2.54,0,1,1-2.541,2.54,2.54,2.54,0,0,1,2.541-2.54Zm-37.2,5.08a2.54,2.54,0,1,1,2.54-2.54,2.54,2.54,0,0,1-2.54,2.54Zm0,0" transform="translate(-487.992 -880)" fill="#00c3ff"/>
      <path id="Path_939" data-name="Path 939" d="M401.09,297.863a4.726,4.726,0,0,0-4.59,3.629h-5.209a1.125,1.125,0,0,0-1.13,1.089v5.443H370.477a4.717,4.717,0,1,0,0,2.178h20.814a1.054,1.054,0,0,0,1.047-1.089v-5.444H396.5a4.718,4.718,0,1,0,4.59-5.806Zm-35.223,13.79a2.54,2.54,0,1,1,2.338-3.478v1.875a2.5,2.5,0,0,1-2.338,1.6Zm35.223-6.532a2.54,2.54,0,1,1,2.54-2.54,2.541,2.541,0,0,1-2.54,2.54Zm0,0" transform="translate(-487.992 -880)" fill="#00c3ff"/>
    </g>
    <rect id="Rectangle_252" data-name="Rectangle 252" width="67.016" height="60" transform="translate(-149 -590)" fill="none"/>
  </g>
</svg>
