<svg xmlns="http://www.w3.org/2000/svg" width="52.41" height="60" viewBox="0 0 52.41 60">
  <g id="service-icon3" transform="translate(-144 812)">
    <g id="Group_4633" data-name="Group 4633">
      <path id="Path_976" data-name="Path 976" d="M372.75,350.409a4.236,4.236,0,0,0,.869-8.381v-18.9h-1.738v18.9a4.236,4.236,0,0,0,.869,8.381Zm0-6.733a2.5,2.5,0,1,1-2.5,2.5,2.5,2.5,0,0,1,2.5-2.5Zm0,0" transform="translate(-202.545 -1102.409)" fill="#00c3ff"/>
      <path id="Path_977" data-name="Path 977" d="M378.81,331.961h4.219v4.455a4.155,4.155,0,0,0-3.385,4.146,4.238,4.238,0,1,0,5.123-4.146v-5.281a.938.938,0,0,0-.906-.911H379.7V323.13h-1.737v8.005a.815.815,0,0,0,.848.826Zm7.549,8.6a2.5,2.5,0,1,1-2.5-2.5,2.5,2.5,0,0,1,2.5,2.5Zm0,0" transform="translate(-202.545 -1102.409)" fill="#00c3ff"/>
      <path id="Path_978" data-name="Path 978" d="M365.8,330.224h-4.162a.938.938,0,0,0-.906.911v1.915a4.236,4.236,0,1,0,5.119,4.145,4.15,4.15,0,0,0-3.381-4.145v-1.089h4.219a.815.815,0,0,0,.848-.826V323.13H365.8Zm-1.664,6.971a2.5,2.5,0,1,1-2.5-2.5,2.5,2.5,0,0,1,2.5,2.5Zm0,0" transform="translate(-202.545 -1102.409)" fill="#00c3ff"/>
    </g>
    <g id="Group_4624" data-name="Group 4624">
      <path id="Path_962" data-name="Path 962" d="M382.812,312.5a3.33,3.33,0,1,0,3.33,3.33,3.329,3.329,0,0,0-3.33-3.33Zm0,4.922a1.592,1.592,0,1,1,1.593-1.592,1.593,1.593,0,0,1-1.593,1.592Zm0,0" transform="translate(-202.545 -1102.409)" fill="#1d0f9b"/>
      <path id="Path_963" data-name="Path 963" d="M391.209,312.5a3.33,3.33,0,1,0,3.33,3.33,3.33,3.33,0,0,0-3.33-3.33Zm0,4.922a1.592,1.592,0,1,1,1.593-1.592,1.593,1.593,0,0,1-1.593,1.592Zm0,0" transform="translate(-202.545 -1102.409)" fill="#1d0f9b"/>
      <path id="Path_964" data-name="Path 964" d="M351.757,314.237a.87.87,0,0,0-.869.869V318a.869.869,0,0,0,1.738,0v-2.9a.869.869,0,0,0-.869-.869Zm0,0" transform="translate(-202.545 -1102.409)" fill="#1d0f9b"/>
      <path id="Path_965" data-name="Path 965" d="M355.666,314.237a.87.87,0,0,0-.869.869V318a.869.869,0,0,0,1.738,0v-2.9a.869.869,0,0,0-.869-.869Zm0,0" transform="translate(-202.545 -1102.409)" fill="#1d0f9b"/>
      <path id="Path_966" data-name="Path 966" d="M359.43,314.237a.869.869,0,0,0-.868.869V318a.868.868,0,0,0,1.737,0v-2.9a.869.869,0,0,0-.869-.869Zm0,0" transform="translate(-202.545 -1102.409)" fill="#1d0f9b"/>
      <path id="Path_967" data-name="Path 967" d="M363.339,314.237a.869.869,0,0,0-.868.869V318a.868.868,0,0,0,1.737,0v-2.9a.869.869,0,0,0-.869-.869Zm0,0" transform="translate(-202.545 -1102.409)" fill="#1d0f9b"/>
      <path id="Path_968" data-name="Path 968" d="M367.1,314.237a.869.869,0,0,0-.869.869V318a.868.868,0,0,0,1.737,0v-2.9a.869.869,0,0,0-.868-.869Zm0,0" transform="translate(-202.545 -1102.409)" fill="#1d0f9b"/>
      <path id="Path_969" data-name="Path 969" d="M382.812,295.127a3.33,3.33,0,1,0,3.33,3.329,3.329,3.329,0,0,0-3.33-3.329Zm0,4.922a1.592,1.592,0,1,1,1.593-1.593,1.593,1.593,0,0,1-1.593,1.593Zm0,0" transform="translate(-202.545 -1102.409)" fill="#1d0f9b"/>
      <path id="Path_970" data-name="Path 970" d="M391.209,295.127a3.33,3.33,0,1,0,3.33,3.329,3.33,3.33,0,0,0-3.33-3.329Zm0,4.922a1.593,1.593,0,1,1,1.593-1.593,1.593,1.593,0,0,1-1.593,1.593Zm0,0" transform="translate(-202.545 -1102.409)" fill="#1d0f9b"/>
      <path id="Path_971" data-name="Path 971" d="M351.757,296.864a.87.87,0,0,0-.869.869v2.895a.869.869,0,0,0,1.738,0v-2.895a.869.869,0,0,0-.869-.869Zm0,0" transform="translate(-202.545 -1102.409)" fill="#1d0f9b"/>
      <path id="Path_972" data-name="Path 972" d="M355.666,296.864a.87.87,0,0,0-.869.869v2.895a.869.869,0,0,0,1.738,0v-2.895a.869.869,0,0,0-.869-.869Zm0,0" transform="translate(-202.545 -1102.409)" fill="#1d0f9b"/>
      <path id="Path_973" data-name="Path 973" d="M359.43,296.864a.869.869,0,0,0-.868.869v2.895a.868.868,0,1,0,1.737,0v-2.895a.869.869,0,0,0-.869-.869Zm0,0" transform="translate(-202.545 -1102.409)" fill="#1d0f9b"/>
      <path id="Path_974" data-name="Path 974" d="M363.339,296.864a.869.869,0,0,0-.868.869v2.895a.868.868,0,1,0,1.737,0v-2.895a.869.869,0,0,0-.869-.869Zm0,0" transform="translate(-202.545 -1102.409)" fill="#1d0f9b"/>
      <path id="Path_975" data-name="Path 975" d="M367.1,296.864a.869.869,0,0,0-.869.869v2.895a.868.868,0,1,0,1.737,0v-2.895a.869.869,0,0,0-.868-.869Zm0,0" transform="translate(-202.545 -1102.409)" fill="#1d0f9b"/>
      <path id="Path_979" data-name="Path 979" d="M396.639,290.41H348.861a2.266,2.266,0,0,0-2.316,2.255v11.583a2.372,2.372,0,0,0,2.316,2.377h4.923v1.158h-4.923a2.268,2.268,0,0,0-2.316,2.256v11.582A2.372,2.372,0,0,0,348.861,324h47.778a2.372,2.372,0,0,0,2.316-2.378V310.039a2.268,2.268,0,0,0-2.316-2.256h-4.923v-1.158h4.923a2.372,2.372,0,0,0,2.316-2.377V292.665a2.266,2.266,0,0,0-2.316-2.255Zm-6.66,17.808H355.521v-2.172h34.458Zm7.239,1.821v11.582a.635.635,0,0,1-.579.64H348.861a.635.635,0,0,1-.579-.64V310.039a.53.53,0,0,1,.579-.518h5.04a1.23,1.23,0,0,0,.752.434h36.194a1.23,1.23,0,0,0,.752-.434h5.04a.53.53,0,0,1,.579.518Zm0-5.791a.636.636,0,0,1-.579.64h-4.974a.758.758,0,0,0-.818-.579H354.653a.758.758,0,0,0-.818.579h-4.974a.636.636,0,0,1-.579-.64V292.665a.53.53,0,0,1,.579-.518h47.778a.53.53,0,0,1,.579.518Zm0,0" transform="translate(-202.545 -1102.409)" fill="#1d0f9b"/>
    </g>
  </g>
</svg>
