<svg xmlns="http://www.w3.org/2000/svg" width="56" height="70" viewBox="0 0 56 70">
  <g id="service-icon19" transform="translate(-975.838 -1398)">
    <path id="Path_980" data-name="Path 980" d="M390.836,333.984a.878.878,0,0,0-1.231.15l-3.466,4.418-2.052-1.979a.877.877,0,1,0-1.217,1.263l2.752,2.652a.875.875,0,0,0,.608.246.517.517,0,0,0,.061,0,.877.877,0,0,0,.629-.333l4.066-5.183a.877.877,0,0,0-.149-1.231Zm0,0" transform="translate(632.884 1115.286)" fill="#d4e1f4"/>
    <path id="Path_981" data-name="Path 981" d="M370.717,331.027c1.826,0,3.616-.079,5.354-.234v-.339a56.784,56.784,0,0,1-6.813.554q.724.018,1.46.019Zm0,0" transform="translate(630.79 1114.741)" fill="#1045db"/>
    <path id="Path_982" data-name="Path 982" d="M380.5,335.245a54.917,54.917,0,0,1-9.162.734,46.76,46.76,0,0,1-15.244-2.264c-3.713-1.34-5.879-3.081-5.879-4.776v-11.5a16.931,16.931,0,0,0,5.282,2.93,53.876,53.876,0,0,0,31.6,0,15.018,15.018,0,0,0,5.218-2.93v12.341h1.754V298.948c0-2.51-2.45-4.789-6.964-6.418a53.88,53.88,0,0,0-31.616,0c-4.514,1.628-7.028,3.908-7.028,6.418v45.092c0,2.511,2.523,4.79,7.037,6.42a48.4,48.4,0,0,0,15.823,2.37,57.1,57.1,0,0,0,9.364-.742l-.285-1.725a55.24,55.24,0,0,1-9.063.717,46.739,46.739,0,0,1-15.242-2.265c-3.714-1.34-5.879-3.08-5.879-4.775V332.43a16.907,16.907,0,0,0,5.282,2.93,48.4,48.4,0,0,0,15.823,2.37,56.907,56.907,0,0,0,9.463-.758Zm6.01-16.527a52.212,52.212,0,0,1-30.423,0c-3.714-1.34-5.871-3.08-5.871-4.774V302.437a16.968,16.968,0,0,0,5.282,2.93,53.822,53.822,0,0,0,31.6,0,15.036,15.036,0,0,0,5.218-2.93v11.507c0,1.694-2.092,3.434-5.805,4.774Zm-30.378-24.543a52.13,52.13,0,0,1,30.414,0c3.713,1.339,5.843,3.079,5.843,4.773s-2.13,3.433-5.843,4.775a52.156,52.156,0,0,1-30.414,0c-3.713-1.342-5.844-3.082-5.844-4.775s2.131-3.434,5.844-4.773Zm0,0" transform="translate(627.428 1108.027)" fill="#1045db"/>
    <path id="Path_983" data-name="Path 983" d="M375.379,309.9a57.929,57.929,0,0,1-6.108.316,56.227,56.227,0,0,1-7.63-.5.878.878,0,0,0-.239,1.739,58.244,58.244,0,0,0,7.868.517,59.541,59.541,0,0,0,6.294-.326.877.877,0,0,0-.186-1.744Zm0,0" transform="translate(629.377 1111.281)" fill="#1045db"/>
    <path id="Path_984" data-name="Path 984" d="M379.28,307.158a2.62,2.62,0,1,0,2.621,2.62,2.62,2.62,0,0,0-2.621-2.62Zm0,3.485a.866.866,0,1,1,.867-.865.866.866,0,0,1-.867.865Zm0,0" transform="translate(631.994 1110.856)" fill="#1045db"/>
    <path id="Path_985" data-name="Path 985" d="M375.379,322.562a57.914,57.914,0,0,1-6.108.317,56.618,56.618,0,0,1-7.63-.5.877.877,0,1,0-.239,1.738,58.245,58.245,0,0,0,7.869.518,59.54,59.54,0,0,0,6.294-.327.877.877,0,0,0-.186-1.744Zm0,0" transform="translate(629.377 1113.391)" fill="#1045db"/>
    <path id="Path_986" data-name="Path 986" d="M381.9,322.445a2.621,2.621,0,1,0-2.621,2.62,2.621,2.621,0,0,0,2.621-2.62Zm-3.486,0a.866.866,0,1,1,.865.865.866.866,0,0,1-.865-.865Zm0,0" transform="translate(631.994 1112.964)" fill="#1045db"/>
    <path id="Path_987" data-name="Path 987" d="M375.379,335.229a57.921,57.921,0,0,1-6.108.316,56.232,56.232,0,0,1-7.63-.5.878.878,0,0,0-.239,1.739,58.234,58.234,0,0,0,7.869.517,59.547,59.547,0,0,0,6.294-.326.877.877,0,0,0-.186-1.744Zm0,0" transform="translate(629.377 1115.501)" fill="#1045db"/>
    <path id="Path_988" data-name="Path 988" d="M395.878,325.443h-2.521v-1.285a.858.858,0,0,0-.82-.908h-9.616a.858.858,0,0,0-.82.908v1.285h-2.521a4.43,4.43,0,0,0-4.5,4.35v20.132a4.524,4.524,0,0,0,4.5,4.461h16.3a4.4,4.4,0,0,0,4.349-4.461V329.793a4.305,4.305,0,0,0-4.349-4.35ZM383.855,325H391.6v2.485h-7.748Zm14.618,24.921a2.644,2.644,0,0,1-2.6,2.707h-16.3a2.768,2.768,0,0,1-2.741-2.707V329.793a2.674,2.674,0,0,1,2.741-2.6H382.1v1.14a.857.857,0,0,0,.82.906h9.616a.856.856,0,0,0,.82-.906V327.2h2.521a2.549,2.549,0,0,1,2.6,2.6Zm0,0" transform="translate(631.61 1113.467)" fill="#00c3ff"/>
    <rect id="Rectangle_253" data-name="Rectangle 253" width="56" height="70" transform="translate(975.838 1398)" fill="none"/>
    <path id="Path_989" data-name="Path 989" d="M390.836,333.984a.878.878,0,0,0-1.231.15l-3.466,4.418-2.052-1.979a.877.877,0,1,0-1.217,1.263l2.752,2.652a.875.875,0,0,0,.608.246.517.517,0,0,0,.061,0,.877.877,0,0,0,.629-.333l4.066-5.183a.877.877,0,0,0-.149-1.231Zm0,0" transform="translate(632.884 1115.286)" fill="#00c3ff"/>
  </g>
</svg>
