<svg xmlns="http://www.w3.org/2000/svg" width="72" height="60" viewBox="0 0 72 60">
  <g id="service-icon12" transform="translate(-327.741 -282.902)">
    <path id="Path_9286" data-name="Path 9286" d="M359.291,293.423a1.5,1.5,0,1,0-1.5-1.5A1.506,1.506,0,0,0,359.291,293.423Z" transform="translate(-6.051 -1.496)" fill="#00c3ff"/>
    <path id="Path_9287" data-name="Path 9287" d="M393.094,293.423h12.031a1.5,1.5,0,0,0,0-3.009H393.094a1.5,1.5,0,0,0,0,3.009Z" transform="translate(-12.909 -1.496)" fill="#00c3ff"/>
    <path id="Path_9288" data-name="Path 9288" d="M351.78,303.958a1.505,1.505,0,0,0,1.5-1.5v-3.007a1.506,1.506,0,0,1,1.5-1.5h45.119a1.506,1.506,0,0,1,1.5,1.5v6.015a1.506,1.506,0,0,1-1.5,1.5h-36.1a1.5,1.5,0,1,0,0,3.008h36.1a1.507,1.507,0,0,1,1.5,1.5v6.015a1.5,1.5,0,1,0,3.008,0v-6.015a4.481,4.481,0,0,0-1.173-3.008,4.48,4.48,0,0,0,1.173-3.008v-6.016a4.48,4.48,0,0,0-1.173-3.007,4.482,4.482,0,0,0,1.173-3.008v-6.016a4.519,4.519,0,0,0-4.512-4.513H354.787a4.519,4.519,0,0,0-4.512,4.513v6.015a4.48,4.48,0,0,0,1.173,3.008,4.482,4.482,0,0,0-1.173,3.008v3.007A1.506,1.506,0,0,0,351.78,303.958Zm1.5-16.544a1.507,1.507,0,0,1,1.5-1.5h45.119a1.507,1.507,0,0,1,1.5,1.5v6.015a1.506,1.506,0,0,1-1.5,1.5H354.787a1.506,1.506,0,0,1-1.5-1.5Z" transform="translate(-4.682)" fill="#00c3ff"/>
    <path id="Path_9289" data-name="Path 9289" d="M393.094,320.461a1.5,1.5,0,0,0,0,3.008h12.031a1.5,1.5,0,0,0,0-3.008Z" transform="translate(-12.909 -7.514)" fill="#00c3ff"/>
    <path id="Path_9290" data-name="Path 9290" d="M399.583,334.835a9.785,9.785,0,0,0-11.21-5.17L378.65,332.1c-.431-3.757-2.648-5.974-7.085-7.09l-26.023-5.793c.081-.571.144-1.116.188-1.623a1.51,1.51,0,0,0-.461-1.225c-2.572-2.442-12.852-3.233-15.942-3.417a1.546,1.546,0,0,0-1.115.406,1.5,1.5,0,0,0-.471,1.095v27.072a1.5,1.5,0,0,0,1.5,1.5h9a1.5,1.5,0,0,0,1.425-1.035c.039-.124.246-.755.552-1.735l21.493,7.185a17.213,17.213,0,0,0,6.216,1.506c3.042,0,6.605-1.335,14.435-4.551l16.5-7.519a1.51,1.51,0,0,0,.723-2.046Zm-62.438,5.186h-6.4V316.066c4.821.382,10.023,1.213,11.916,2.133C341.858,324.786,338.261,336.487,337.145,340.021Zm44.028,1.615c-12.611,5.182-13.052,5.017-18.455,2.971L341.1,337.383c1.233-4.094,2.949-10.167,3.933-15.2l25.844,5.757c3.32.831,4.658,2.145,4.841,4.891l-2.879.722a7.529,7.529,0,0,1-3.291.078l-13.017-2.611a1.5,1.5,0,0,0-.585,2.948l13.016,2.611a10.518,10.518,0,0,0,2.058.2,10.376,10.376,0,0,0,2.547-.312l4.022-1.008h.018l11.492-2.881a6.819,6.819,0,0,1,6.945,2.274Z" transform="translate(0 -6.049)" fill="#00c3ff"/>
    <path id="Path_9291" data-name="Path 9291" d="M357.788,306.941a1.5,1.5,0,1,0,1.5-1.5A1.5,1.5,0,0,0,357.788,306.941Z" transform="translate(-6.051 -4.508)" fill="#00c3ff"/>
    <path id="Path_9292" data-name="Path 9292" d="M405.125,308.446a1.5,1.5,0,1,0,0-3.008H393.094a1.5,1.5,0,1,0,0,3.008Z" transform="translate(-12.909 -4.508)" fill="#00c3ff"/>
  </g>
</svg>
