<svg xmlns="http://www.w3.org/2000/svg" xmlns:xlink="http://www.w3.org/1999/xlink" width="35" height="37" viewBox="0 0 35 37">
  <defs>
    <linearGradient id="linear-gradient" x1="-55.133" y1="36.756" x2="-55.09" y2="36.843" gradientUnits="objectBoundingBox">
      <stop offset="0" stop-color="#0069ff" stop-opacity="0.6"/>
      <stop offset="1" stop-color="#0069ff" stop-opacity="0"/>
    </linearGradient>
    <linearGradient id="linear-gradient-2" x1="-37.117" y1="24.917" x2="-37.089" y2="24.976" xlink:href="#linear-gradient"/>
  </defs>
  <g id="specification-icon3" transform="translate(-784 -1446)">
    <path id="Path_13727" data-name="Path 13727" d="M28.43,14.96V2.9H12.23V14.96Z" transform="translate(781.148 1444.124)" opacity="0.3" fill="url(#linear-gradient)" style="isolation: isolate"/>
    <path id="Path_13728" data-name="Path 13728" d="M28.414,2.876v12.06h-16.2V2.876Z" transform="translate(781.149 1444.124)" fill="none" stroke="#1d0f9b" stroke-width="2" opacity="0.3" style="isolation: isolate"/>
    <path id="Path_13729" data-name="Path 13729" d="M31.93,7.593v18.09H8.11V7.593Z" transform="translate(781.478 1444.124)" fill="#fff"/>
    <path id="Path_13730" data-name="Path 13730" d="M31.91,25.76V7.67H8.09V25.76Z" transform="translate(781.478 1444.124)" fill="url(#linear-gradient-2)"/>
    <path id="Path_13731" data-name="Path 13731" d="M31.93,7.593v18.09H8.11V7.593Z" transform="translate(781.478 1444.124)" fill="none" stroke="#1d0f9b" stroke-width="2"/>
    <path id="Path_13732" data-name="Path 13732" d="M3.522,37.876V12.785h33V37.876Z" transform="translate(781.478 1444.124)" fill="#fff" stroke="#00c3ff" stroke-width="2"/>
    <g id="Group_5385" data-name="Group 5385" transform="translate(796.888 1464.859)">
      <path id="Path_13733" data-name="Path 13733" d="M20.33,20.81V29.9m-4.59-4.5h9.18" transform="translate(-15.74 -20.81)" fill="none" stroke="#00c3ff" stroke-width="2"/>
    </g>
  </g>
</svg>
