<svg xmlns="http://www.w3.org/2000/svg" width="36" height="35" viewBox="0 0 36 35">
  <g id="specification-icon1" transform="translate(-785 -1148)">
    <path id="Path_13718" data-name="Path 13718" d="M17.953,32.293a14.2,14.2,0,1,1,14.093-14.2A14.147,14.147,0,0,1,17.953,32.293Zm0-26.116a11.9,11.9,0,1,0,11.8,11.9A11.851,11.851,0,0,0,17.953,6.177Z" transform="translate(785 1148)" fill="#00c3ff"/>
    <path id="Path_13720" data-name="Path 13720" d="M16.833,0h2.329V13.248H16.833ZM3.176,7.5l1.47-1.813,10.262,8.387-1.47,1.813ZM21.1,14.042,31.359,5.652l1.47,1.812-10.261,8.39L21.1,14.042Zm1.5,6.246.5-2.283L36,20.846l-.5,2.283L22.593,20.287ZM0,20.844,12.908,18l.5,2.283L.5,23.127Zm19.126,1.907,2.1-1.011,5.853,12.249L24.98,35,19.125,22.751ZM8.926,33.979l5.754-12.255,2.106,1L11.032,34.977Z" transform="translate(785 1148)" fill="#00c3ff"/>
    <path id="Path_13719" data-name="Path 13719" d="M19.25,25.57a6.3,6.3,0,1,1,0-12.6h0a6.3,6.3,0,0,1,0,12.6Zm0-10.09A3.81,3.81,0,1,0,23,19.349V19.31A3.81,3.81,0,0,0,19.25,15.48Z" transform="translate(783.752 1146.803)" fill="#1d0f9b"/>
  </g>
</svg>
