<svg xmlns="http://www.w3.org/2000/svg" width="15.73" height="15" viewBox="0 0 15.73 15">
  <g id="star" transform="translate(-248.135 -248.5)">
    <path id="Path_2196" data-name="Path 2196" d="M263.494,253.919l-5.1-.473-2.024-4.7a.408.408,0,0,0-.75,0l-2.024,4.7-5.1.473a.408.408,0,0,0-.232.713l3.845,3.377L250.994,263a.408.408,0,0,0,.606.441l4.4-2.613,4.4,2.613a.408.408,0,0,0,.606-.441l-1.125-4.992,3.845-3.377A.408.408,0,0,0,263.494,253.919Z" fill="#ffdc64"/>
    <path id="Path_2197" data-name="Path 2197" d="M256.375,248.747a.408.408,0,0,0-.75,0l-2.024,4.7-5.1.473a.408.408,0,0,0-.232.713l3.845,3.377L250.994,263a.408.408,0,0,0,.606.441l.982-.583a18,18,0,0,1,4.794-11.788Z" fill="#ffc850"/>
  </g>
</svg>
