<svg xmlns="http://www.w3.org/2000/svg" width="85.384" height="76.06" viewBox="0 0 85.384 76.06">
  <g id="swi1" transform="translate(-538 -4451)">
    <g id="bg">
      <path id="Path_11153" data-name="Path 11153" d="M425.78,200.649q.248-1.2.377-2.393a30.38,30.38,0,0,0-10.8-26.153c-21.26-17.595-60.593-9.064-71.317,16.449-4.4,10.458-1.081,22.554,4.447,32.492,2.559,4.6,5.655,9.04,9.913,12.241,7.412,5.571,17.684,6.708,26.769,4.47C401.255,233.795,422.284,217.463,425.78,200.649Z" transform="translate(195.986 4288.168)" fill="#cdd9e7" opacity="0.05"/>
      <g id="Group_4124" data-name="Group 4124" transform="translate(-11751 1007)" opacity="0.07">
        <line id="Line_70" data-name="Line 70" y2="72.259" transform="translate(12318.552 3447.118)" fill="none" stroke="#edeff3" stroke-linecap="round" stroke-width="1"/>
        <line id="Line_71" data-name="Line 71" y2="74.753" transform="translate(12333.642 3444.624)" fill="none" stroke="#edeff3" stroke-linecap="round" stroke-width="1"/>
        <line id="Line_72" data-name="Line 72" y2="66.023" transform="translate(12348.732 3445.871)" fill="none" stroke="#edeff3" stroke-linecap="round" stroke-width="1"/>
        <line id="Line_73" data-name="Line 73" y2="43.65" transform="translate(12363.906 3454.601)" fill="none" stroke="#edeff3" stroke-linecap="round" stroke-width="1"/>
      </g>
      <g id="Group_4125" data-name="Group 4125" transform="translate(-11751 1007)" opacity="0.07">
        <line id="Line_70-2" data-name="Line 70" x2="54.328" transform="translate(12304.589 3504.426)" fill="none" stroke="#edeff3" stroke-linecap="round" stroke-width="1"/>
        <line id="Line_71-2" data-name="Line 71" x2="64.851" transform="translate(12305.291 3489.475)" fill="none" stroke="#edeff3" stroke-linecap="round" stroke-width="1"/>
        <line id="Line_72-2" data-name="Line 72" x2="68.592" transform="translate(12305.291 3474.525)" fill="none" stroke="#edeff3" stroke-linecap="round" stroke-width="1"/>
        <line id="Line_73-2" data-name="Line 73" x2="62.357" transform="translate(12305.291 3459.574)" fill="none" stroke="#edeff3" stroke-linecap="round" stroke-width="1"/>
      </g>
    </g>
    <g id="icon" transform="translate(202.68 4189.455)">
      <path id="Path_9306" data-name="Path 9306" d="M391.029,303.872a4.333,4.333,0,0,0-2.074-3.181,4.269,4.269,0,0,0-3.739-.334,2.06,2.06,0,0,1-2.567-1.153,19.324,19.324,0,0,0-1.956-3.4,2.043,2.043,0,0,1,.287-2.8,4.261,4.261,0,0,0,1.562-3.391,4.336,4.336,0,0,0-1.734-3.384,26.286,26.286,0,0,0-5.676-3.275,4.363,4.363,0,0,0-3.817.192,4.252,4.252,0,0,0-2.154,3.041,2.054,2.054,0,0,1-2.3,1.644,18.845,18.845,0,0,0-3.9,0,2.053,2.053,0,0,1-2.3-1.647,4.248,4.248,0,0,0-2.157-3.039,4.365,4.365,0,0,0-3.815-.192,26.373,26.373,0,0,0-5.676,3.275,4.334,4.334,0,0,0-1.732,3.382,4.269,4.269,0,0,0,1.565,3.394,2.037,2.037,0,0,1,.284,2.8,19.442,19.442,0,0,0-1.955,3.4,2.07,2.07,0,0,1-2.593,1.143,4.275,4.275,0,0,0-3.3.121,4.363,4.363,0,0,0-2.264,2.479,1.144,1.144,0,0,0,2.155.771,2.073,2.073,0,0,1,1.071-1.175,1.963,1.963,0,0,1,1.555-.046,4.357,4.357,0,0,0,5.463-2.36,17.061,17.061,0,0,1,1.724-3,4.306,4.306,0,0,0-.689-5.9,1.978,1.978,0,0,1-.728-1.578,2.052,2.052,0,0,1,.824-1.608,23.961,23.961,0,0,1,5.182-2.989,2.074,2.074,0,0,1,1.823.089,1.947,1.947,0,0,1,1,1.413,4.306,4.306,0,0,0,4.8,3.542,16.819,16.819,0,0,1,3.421,0,4.3,4.3,0,0,0,4.8-3.542,1.956,1.956,0,0,1,1-1.413,2.065,2.065,0,0,1,1.822-.089,24.062,24.062,0,0,1,5.182,2.989,2.057,2.057,0,0,1,.827,1.608,1.977,1.977,0,0,1-.728,1.582,4.3,4.3,0,0,0-.687,5.9,17.091,17.091,0,0,1,1.724,3,4.362,4.362,0,0,0,5.487,2.351,1.987,1.987,0,0,1,1.731.158,2.066,2.066,0,0,1,.982,1.516,23.26,23.26,0,0,1,0,6.01,2.057,2.057,0,0,1-.982,1.516,2.007,2.007,0,0,1-1.757.149,4.357,4.357,0,0,0-5.462,2.362,17.148,17.148,0,0,1-1.726,3,4.3,4.3,0,0,0,.69,5.9,1.976,1.976,0,0,1,.728,1.579,2.057,2.057,0,0,1-.824,1.61,23.964,23.964,0,0,1-5.182,2.988,2.1,2.1,0,0,1-1.823-.089,1.944,1.944,0,0,1-1-1.413,4.312,4.312,0,0,0-4.8-3.543,16.072,16.072,0,0,1-1.708.09,1.143,1.143,0,1,0,0,2.286,18.211,18.211,0,0,0,1.948-.1,2.046,2.046,0,0,1,2.3,1.645,4.251,4.251,0,0,0,2.155,3.041,4.37,4.37,0,0,0,2.1.542,4.431,4.431,0,0,0,1.713-.345,26.39,26.39,0,0,0,5.677-3.274,4.342,4.342,0,0,0,1.731-3.388,4.262,4.262,0,0,0-1.564-3.391,2.039,2.039,0,0,1-.286-2.8,19.341,19.341,0,0,0,1.957-3.4,2.074,2.074,0,0,1,2.592-1.144,4.268,4.268,0,0,0,3.717-.343,4.33,4.33,0,0,0,2.072-3.181,25.6,25.6,0,0,0,0-6.595Z" transform="translate(-0.922 0)" fill="#fff"/>
      <path id="Path_9307" data-name="Path 9307" d="M371.166,320.76a1.166,1.166,0,0,0,0,2.332,10.492,10.492,0,1,0-9.319-15.222,1.165,1.165,0,0,0,2.077,1.056,8.143,8.143,0,1,1,7.242,11.834Z" transform="translate(-7.223 -5.351)" fill="#fff"/>
      <path id="Path_9308" data-name="Path 9308" d="M348.143,313.858c-6.217,0-12.823,2.043-12.823,5.829V340.67c0,3.787,6.605,5.829,12.823,5.829s12.823-2.042,12.823-5.829V319.687C360.966,315.9,354.361,313.858,348.143,313.858Zm10.492,26.812c0,1.427-4.087,3.5-10.492,3.5s-10.491-2.07-10.491-3.5v-3.546c2.474,1.559,6.556,2.38,10.491,2.38s8.018-.821,10.492-2.38Zm0-6.994c0,1.427-4.087,3.5-10.492,3.5s-10.491-2.07-10.491-3.5v-3.546c2.474,1.559,6.556,2.38,10.491,2.38s8.018-.821,10.492-2.38Zm0-6.995c0,1.427-4.087,3.5-10.492,3.5s-10.491-2.071-10.491-3.5v-3.546c2.474,1.559,6.556,2.38,10.491,2.38s8.018-.821,10.492-2.38Zm-10.492-3.5c-6.4,0-10.491-2.07-10.491-3.5s4.087-3.5,10.491-3.5,10.492,2.07,10.492,3.5S354.547,323.184,348.143,323.184Z" transform="translate(0 -8.893)" fill="#fff"/>
    </g>
  </g>
</svg>
