<svg xmlns="http://www.w3.org/2000/svg" width="85.383" height="76.432" viewBox="0 0 85.383 76.432">
  <g id="swi2" transform="translate(-918 -4451)">
    <g id="bg">
      <path id="Path_11153" data-name="Path 11153" d="M425.78,200.649q.248-1.2.377-2.393a30.38,30.38,0,0,0-10.8-26.153c-21.26-17.595-60.593-9.064-71.317,16.449-4.4,10.458-1.081,22.554,4.447,32.492,2.559,4.6,5.655,9.04,9.913,12.241,7.412,5.571,17.684,6.708,26.769,4.47C401.255,233.795,422.284,217.463,425.78,200.649Z" transform="translate(575.986 4288.168)" fill="#cdd9e7" opacity="0.05"/>
      <g id="Group_4124" data-name="Group 4124" transform="translate(-11371 1007)" opacity="0.07">
        <line id="Line_70" data-name="Line 70" y2="72.259" transform="translate(12318.552 3447.118)" fill="none" stroke="#edeff3" stroke-linecap="round" stroke-width="1"/>
        <line id="Line_71" data-name="Line 71" y2="74.753" transform="translate(12333.642 3444.624)" fill="none" stroke="#edeff3" stroke-linecap="round" stroke-width="1"/>
        <line id="Line_72" data-name="Line 72" y2="66.023" transform="translate(12348.732 3445.871)" fill="none" stroke="#edeff3" stroke-linecap="round" stroke-width="1"/>
        <line id="Line_73" data-name="Line 73" y2="43.65" transform="translate(12363.906 3454.601)" fill="none" stroke="#edeff3" stroke-linecap="round" stroke-width="1"/>
      </g>
      <g id="Group_4125" data-name="Group 4125" transform="translate(-11371 1007)" opacity="0.07">
        <line id="Line_70-2" data-name="Line 70" x2="54.328" transform="translate(12304.589 3504.426)" fill="none" stroke="#edeff3" stroke-linecap="round" stroke-width="1"/>
        <line id="Line_71-2" data-name="Line 71" x2="64.851" transform="translate(12305.291 3489.475)" fill="none" stroke="#edeff3" stroke-linecap="round" stroke-width="1"/>
        <line id="Line_72-2" data-name="Line 72" x2="68.592" transform="translate(12305.291 3474.525)" fill="none" stroke="#edeff3" stroke-linecap="round" stroke-width="1"/>
        <line id="Line_73-2" data-name="Line 73" x2="62.357" transform="translate(12305.291 3459.574)" fill="none" stroke="#edeff3" stroke-linecap="round" stroke-width="1"/>
      </g>
    </g>
    <g id="icon" transform="translate(582.699 4190.131)">
      <path id="Path_9293" data-name="Path 9293" d="M398.946,288.551A1.147,1.147,0,0,0,397.8,289.7v4.583a1.146,1.146,0,0,0,2.292,0V289.7A1.146,1.146,0,0,0,398.946,288.551Z" transform="translate(-16.666 -1.667)" fill="#fff"/>
      <path id="Path_9294" data-name="Path 9294" d="M392.7,288.551a1.146,1.146,0,0,0-1.145,1.146v4.583a1.146,1.146,0,0,0,2.292,0V289.7A1.146,1.146,0,0,0,392.7,288.551Z" transform="translate(-15 -1.667)" fill="#fff"/>
      <path id="Path_9295" data-name="Path 9295" d="M386.447,288.551A1.146,1.146,0,0,0,385.3,289.7v4.583a1.146,1.146,0,0,0,2.291,0V289.7A1.147,1.147,0,0,0,386.447,288.551Z" transform="translate(-13.333 -1.667)" fill="#fff"/>
      <path id="Path_9296" data-name="Path 9296" d="M344.989,288.551a3.437,3.437,0,1,0,3.437,3.438A3.441,3.441,0,0,0,344.989,288.551Zm0,4.583a1.146,1.146,0,1,1,1.145-1.145A1.148,1.148,0,0,1,344.989,293.134Z" transform="translate(-1.667 -1.667)" fill="#fff"/>
      <path id="Path_9297" data-name="Path 9297" d="M380.2,288.551a1.146,1.146,0,0,0-1.145,1.146v4.583a1.146,1.146,0,0,0,2.292,0V289.7A1.146,1.146,0,0,0,380.2,288.551Z" transform="translate(-11.667 -1.667)" fill="#fff"/>
      <path id="Path_9298" data-name="Path 9298" d="M402.071,332.3a1.146,1.146,0,1,0,1.146,1.146A1.147,1.147,0,0,0,402.071,332.3Z" transform="translate(-17.499 -13.333)" fill="#fff"/>
      <path id="Path_9299" data-name="Path 9299" d="M379.051,314.7v4.583a1.146,1.146,0,1,0,2.292,0V314.7a1.146,1.146,0,0,0-2.292,0Z" transform="translate(-11.667 -8.333)" fill="#fff"/>
      <path id="Path_9300" data-name="Path 9300" d="M341.551,316.988a3.437,3.437,0,1,0,3.438-3.437A3.442,3.442,0,0,0,341.551,316.988Zm4.583,0a1.146,1.146,0,1,1-1.145-1.145A1.148,1.148,0,0,1,346.134,316.988Z" transform="translate(-1.667 -8.333)" fill="#fff"/>
      <path id="Path_9301" data-name="Path 9301" d="M384.571,298.343a5.736,5.736,0,0,0,5.729-5.729v-4.583a5.736,5.736,0,0,0-5.729-5.73H341.031a5.736,5.736,0,0,0-5.73,5.73v4.583a5.736,5.736,0,0,0,5.73,5.729h14.9v2.291h-14.9a5.737,5.737,0,0,0-5.73,5.73v4.583a5.736,5.736,0,0,0,5.73,5.73h14.9v2.292H354.78a1.147,1.147,0,0,0-1.146,1.146v1.145h-1.145a1.146,1.146,0,0,0-1.145,1.146v1.146H341.031a1.146,1.146,0,1,0,0,2.292h10.312v1.145a1.146,1.146,0,0,0,1.145,1.145h9.167a1.146,1.146,0,0,0,1.146-1.145v-1.145h5.944a1.146,1.146,0,1,0,0-2.292H362.8v-1.146a1.146,1.146,0,0,0-1.146-1.146h-1.145v-1.145a1.146,1.146,0,0,0-1.146-1.146h-1.146v-2.292h15.709a1.147,1.147,0,0,0,0-2.295h-32.9a3.442,3.442,0,0,1-3.438-3.437v-4.583a3.441,3.441,0,0,1,3.438-3.437h43.541a3.442,3.442,0,0,1,3.438,3.437v4.583a3.415,3.415,0,0,1-.277,1.348,1.147,1.147,0,0,0,2.108.9,5.675,5.675,0,0,0,.461-2.251v-4.583a5.736,5.736,0,0,0-5.729-5.729H358.218v-2.292ZM358.218,321.26v1.146a1.147,1.147,0,0,0,1.145,1.146h1.146v2.292h-6.875v-2.292h1.145a1.147,1.147,0,0,0,1.146-1.146V321.26Zm-17.187-25.209a3.442,3.442,0,0,1-3.438-3.437v-4.583a3.442,3.442,0,0,1,3.438-3.438h43.541a3.442,3.442,0,0,1,3.437,3.438v4.583a3.441,3.441,0,0,1-3.437,3.437Z" transform="translate(0 0)" fill="#fff"/>
      <path id="Path_9302" data-name="Path 9302" d="M394.475,326.047a7.5,7.5,0,0,0-7.491,7.491,6.892,6.892,0,0,0,.078,1.033l-7.677,7.677a1.154,1.154,0,0,0-.334.812v4.759a1.146,1.146,0,0,0,1.145,1.146h4.76a1.148,1.148,0,0,0,.809-.334l7.676-7.677a6.7,6.7,0,0,0,1.032.08,7.493,7.493,0,0,0,0-14.987Zm0,12.693a5.181,5.181,0,0,1-1.159-.142,1.126,1.126,0,0,0-1.065.307l-7.768,7.768h-3.139v-3.14l7.766-7.768a1.144,1.144,0,0,0,.307-1.068,5.154,5.154,0,0,1,5.057-6.357,5.2,5.2,0,1,1,0,10.4Z" transform="translate(-11.665 -11.664)" fill="#fff"/>
      <path id="Path_9303" data-name="Path 9303" d="M400.092,319.279V314.7a1.146,1.146,0,0,0-2.292,0v4.583a1.146,1.146,0,0,0,2.292,0Z" transform="translate(-16.666 -8.333)" fill="#fff"/>
      <path id="Path_9304" data-name="Path 9304" d="M385.3,314.7v4.583a1.146,1.146,0,1,0,2.291,0V314.7a1.146,1.146,0,0,0-2.291,0Z" transform="translate(-13.333 -8.333)" fill="#fff"/>
      <path id="Path_9305" data-name="Path 9305" d="M393.842,319.279V314.7a1.146,1.146,0,0,0-2.292,0v4.583a1.146,1.146,0,1,0,2.292,0Z" transform="translate(-15 -8.333)" fill="#fff"/>
    </g>
  </g>
</svg>
