<svg xmlns="http://www.w3.org/2000/svg" width="85.384" height="76.346" viewBox="0 0 85.384 76.346">
  <g id="swi3" transform="translate(-1298 -4451)">
    <g id="bg">
      <path id="Path_11153" data-name="Path 11153" d="M425.78,200.649q.248-1.2.377-2.393a30.38,30.38,0,0,0-10.8-26.153c-21.26-17.595-60.593-9.064-71.317,16.449-4.4,10.458-1.081,22.554,4.447,32.492,2.559,4.6,5.655,9.04,9.913,12.241,7.412,5.571,17.684,6.708,26.769,4.47C401.255,233.795,422.284,217.463,425.78,200.649Z" transform="translate(955.986 4288.168)" fill="#cdd9e7" opacity="0.05"/>
      <g id="Group_4124" data-name="Group 4124" transform="translate(-10991 1007)" opacity="0.07">
        <line id="Line_70" data-name="Line 70" y2="72.259" transform="translate(12318.552 3447.118)" fill="none" stroke="#edeff3" stroke-linecap="round" stroke-width="1"/>
        <line id="Line_71" data-name="Line 71" y2="74.753" transform="translate(12333.642 3444.624)" fill="none" stroke="#edeff3" stroke-linecap="round" stroke-width="1"/>
        <line id="Line_72" data-name="Line 72" y2="66.023" transform="translate(12348.732 3445.871)" fill="none" stroke="#edeff3" stroke-linecap="round" stroke-width="1"/>
        <line id="Line_73" data-name="Line 73" y2="43.65" transform="translate(12363.906 3454.601)" fill="none" stroke="#edeff3" stroke-linecap="round" stroke-width="1"/>
      </g>
      <g id="Group_4125" data-name="Group 4125" transform="translate(-10991 1007)" opacity="0.07">
        <line id="Line_70-2" data-name="Line 70" x2="54.328" transform="translate(12304.589 3504.426)" fill="none" stroke="#edeff3" stroke-linecap="round" stroke-width="1"/>
        <line id="Line_71-2" data-name="Line 71" x2="64.851" transform="translate(12305.291 3489.475)" fill="none" stroke="#edeff3" stroke-linecap="round" stroke-width="1"/>
        <line id="Line_72-2" data-name="Line 72" x2="68.592" transform="translate(12305.291 3474.525)" fill="none" stroke="#edeff3" stroke-linecap="round" stroke-width="1"/>
        <line id="Line_73-2" data-name="Line 73" x2="62.357" transform="translate(12305.291 3459.574)" fill="none" stroke="#edeff3" stroke-linecap="round" stroke-width="1"/>
      </g>
    </g>
    <g id="icon" transform="translate(1071.841 4247.625)">
      <rect id="Rectangle_3125" data-name="Rectangle 3125" width="1.47" height="1.47" transform="translate(238.838 246.125)" fill="#fff"/>
      <rect id="Rectangle_3126" data-name="Rectangle 3126" width="1.47" height="1.47" transform="translate(247.895 246.125)" fill="#fff"/>
      <path id="Path_8298" data-name="Path 8298" d="M279.386,256.023l-3.516-.509a12.814,12.814,0,0,0-.592-1.459l2.128-2.874a.921.921,0,0,0-.084-1.192l-3.818-3.868a.885.885,0,0,0-.546-.258v-8.777a7.33,7.33,0,0,0,2.7-5.691,7.224,7.224,0,0,0-4.116-6.586.9.9,0,0,0-1.2.434.933.933,0,0,0-.086.39v5.106l-1.8.609-1.8-.609v-5.106a.906.906,0,0,0-.9-.908.881.881,0,0,0-.38.088,7.225,7.225,0,0,0-4.116,6.583,7.33,7.33,0,0,0,2.7,5.691v6.163h-2.7a.9.9,0,0,0-.891.783l-.582,4.13,1.782.258.471-3.346h3.84l.471,3.346a.909.909,0,0,0,.639.746,10.654,10.654,0,0,1,2.161.9.892.892,0,0,0,.973-.071l2.665-2.024,2.714,2.75-2,2.7a.923.923,0,0,0-.07.985,10.952,10.952,0,0,1,.889,2.189.9.9,0,0,0,.737.647l3.3.478v3.889l-3.3.479a.9.9,0,0,0-.737.647,10.941,10.941,0,0,1-.889,2.188.923.923,0,0,0,.07.985l2,2.7-2.714,2.75-2.663-2.031a.889.889,0,0,0-.973-.071,10.7,10.7,0,0,1-2.161.9.908.908,0,0,0-.639.745l-.469,3.349h-3.72v-3.856a10.254,10.254,0,0,0-.405-2.845,8.184,8.184,0,0,0,10.173-5.639,8.323,8.323,0,0,0-5.565-10.305,8.183,8.183,0,0,0-10.173,5.637,8.417,8.417,0,0,0-.189,3.866c-.022-.009-.042-.02-.064-.027l-7.276-2.949v-1.4a10,10,0,0,0,3.132-2.54h2.268a2.718,2.718,0,0,0,2.7-2.735v-1.992a2.733,2.733,0,0,0,1.8-2.568V244.16a2.733,2.733,0,0,0-1.8-2.568v-1.08a12.6,12.6,0,1,0-25.2,0v1.08a2.733,2.733,0,0,0-1.8,2.568V246.9a2.718,2.718,0,0,0,2.7,2.735h1.8c.058,0,.114-.009.17-.013a10.04,10.04,0,0,0,5.23,7.112v1.4l-7.276,2.949a9.984,9.984,0,0,0-6.223,9.313v8.415a.906.906,0,0,0,.9.912h34.2a.906.906,0,0,0,.9-.912v-2.735h4.5a.9.9,0,0,0,.891-.782l.5-3.562a12.7,12.7,0,0,0,1.44-.6l2.837,2.156a.892.892,0,0,0,1.176-.085l3.818-3.868a.922.922,0,0,0,.084-1.193l-2.128-2.874a12.766,12.766,0,0,0,.592-1.458l3.516-.509a.91.91,0,0,0,.772-.9v-5.471A.908.908,0,0,0,279.386,256.023Zm-6.9-20.986a5.409,5.409,0,0,1-.944.846.915.915,0,0,0-.385.746v10.3l-1.672,1.266c-.043-.02-.09-.034-.133-.054V236.865h-1.8V244.1l-.009-.065a.9.9,0,0,0-.891-.783h-.9v-6.619a.917.917,0,0,0-.386-.749,5.516,5.516,0,0,1-1.346-7.616,5.427,5.427,0,0,1,.832-.952v4.083a.91.91,0,0,0,.615.865l2.7.912a.889.889,0,0,0,.569,0l2.7-.912a.909.909,0,0,0,.615-.865v-4.083A5.521,5.521,0,0,1,272.488,235.036Zm-20.229,7.3a2.7,2.7,0,0,1-2.16-1.094l-1.62-2.188a.892.892,0,0,0-1.282-.165l-3.02,2.444a4.483,4.483,0,0,1-2.808,1h-5.309v-.912a8.1,8.1,0,1,1,16.2,0Zm2.7,9.118a.905.905,0,0,1-.9.911h-1.092a10.042,10.042,0,0,0,.923-2.748c.056,0,.112.013.169.013h.9Zm1.8-7.295V246.9a.907.907,0,0,1-.9.912h-1.8v-4.56h1.8A.907.907,0,0,1,256.759,244.16Zm-22.5,3.647h-1.8a.906.906,0,0,1-.9-.912V244.16a.906.906,0,0,1,.9-.912h1.8Zm0-6.383h-.9v-.912a10.8,10.8,0,1,1,21.6,0v.912h-.9a9.9,9.9,0,1,0-19.8,0Zm3.6,11.545a8.268,8.268,0,0,1-1.8-5.162V244.16h5.309a6.268,6.268,0,0,0,3.935-1.4l2.3-1.861,1.059,1.436a4.5,4.5,0,0,0,3.6,1.823v3.647a8.227,8.227,0,0,1-1.37,4.559h-6.73v1.824h5.08A8.022,8.022,0,0,1,237.858,252.969Zm9,4.48v1.3a2.7,2.7,0,1,1-5.4,0v-1.3a9.593,9.593,0,0,0,5.4,0Zm13.5,20.448h-5.4v-10.03h-1.8V277.9h-18v-10.03h-1.8V277.9h-5.4v-7.5a8.167,8.167,0,0,1,5.092-7.619l6.807-2.758a4.456,4.456,0,0,0,8.6,0l6.807,2.758a8.167,8.167,0,0,1,5.092,7.619Zm.3-12.82a9.907,9.907,0,0,0-2.351-2.623,6.3,6.3,0,0,1-.65-2.794,6.346,6.346,0,1,1,6.39,6.383A6.281,6.281,0,0,1,260.659,265.077Z" transform="translate(0 0)" fill="#fff"/>
      <rect id="Rectangle_3127" data-name="Rectangle 3127" width="1.47" height="1.47" transform="translate(263.292 247.043)" fill="#fff"/>
      <rect id="Rectangle_3128" data-name="Rectangle 3128" width="1.47" height="1.47" transform="translate(263.292 272.369)" fill="#fff"/>
      <rect id="Rectangle_3129" data-name="Rectangle 3129" width="1.47" height="1.47" transform="translate(272.644 268.193) rotate(-45)" fill="#fff"/>
      <rect id="Rectangle_3130" data-name="Rectangle 3130" width="1.47" height="1.47" transform="translate(275.748 258.975)" fill="#fff"/>
      <rect id="Rectangle_3131" data-name="Rectangle 3131" width="1.47" height="1.47" transform="matrix(0.707, -0.707, 0.707, 0.707, 272.644, 251.27)" fill="#fff"/>
    </g>
  </g>
</svg>
