<svg xmlns="http://www.w3.org/2000/svg" width="85.384" height="76.467" viewBox="0 0 85.384 76.467">
  <g id="swi4" transform="translate(-538 -4790)">
    <g id="bg">
      <path id="Path_11153" data-name="Path 11153" d="M425.78,200.649q.248-1.2.377-2.393a30.38,30.38,0,0,0-10.8-26.153c-21.26-17.595-60.593-9.064-71.317,16.449-4.4,10.458-1.081,22.554,4.447,32.492,2.559,4.6,5.655,9.04,9.913,12.241,7.412,5.571,17.684,6.708,26.769,4.47C401.255,233.795,422.284,217.463,425.78,200.649Z" transform="translate(195.986 4627.168)" fill="#cdd9e7" opacity="0.05"/>
      <g id="Group_4124" data-name="Group 4124" transform="translate(-11751 1346)" opacity="0.07">
        <line id="Line_70" data-name="Line 70" y2="72.259" transform="translate(12318.552 3447.118)" fill="none" stroke="#edeff3" stroke-linecap="round" stroke-width="1"/>
        <line id="Line_71" data-name="Line 71" y2="74.753" transform="translate(12333.642 3444.624)" fill="none" stroke="#edeff3" stroke-linecap="round" stroke-width="1"/>
        <line id="Line_72" data-name="Line 72" y2="66.023" transform="translate(12348.732 3445.871)" fill="none" stroke="#edeff3" stroke-linecap="round" stroke-width="1"/>
        <line id="Line_73" data-name="Line 73" y2="43.65" transform="translate(12363.906 3454.601)" fill="none" stroke="#edeff3" stroke-linecap="round" stroke-width="1"/>
      </g>
      <g id="Group_4125" data-name="Group 4125" transform="translate(-11751 1346)" opacity="0.07">
        <line id="Line_70-2" data-name="Line 70" x2="54.328" transform="translate(12304.589 3504.426)" fill="none" stroke="#edeff3" stroke-linecap="round" stroke-width="1"/>
        <line id="Line_71-2" data-name="Line 71" x2="64.851" transform="translate(12305.291 3489.475)" fill="none" stroke="#edeff3" stroke-linecap="round" stroke-width="1"/>
        <line id="Line_72-2" data-name="Line 72" x2="68.592" transform="translate(12305.291 3474.525)" fill="none" stroke="#edeff3" stroke-linecap="round" stroke-width="1"/>
        <line id="Line_73-2" data-name="Line 73" x2="62.357" transform="translate(12305.291 3459.574)" fill="none" stroke="#edeff3" stroke-linecap="round" stroke-width="1"/>
      </g>
    </g>
    <g id="icon" transform="translate(210.259 4528.564)">
      <path id="Path_9286" data-name="Path 9286" d="M359.168,293.176a1.381,1.381,0,1,0-1.381-1.381A1.382,1.382,0,0,0,359.168,293.176Z" transform="translate(-8.052 -1.989)" fill="#fff"/>
      <path id="Path_9287" data-name="Path 9287" d="M392.971,293.176h11.044a1.381,1.381,0,0,0,0-2.762H392.971a1.381,1.381,0,0,0,0,2.762Z" transform="translate(-17.181 -1.989)" fill="#fff"/>
      <path id="Path_9288" data-name="Path 9288" d="M351.656,302.231a1.382,1.382,0,0,0,1.381-1.381v-2.761a1.383,1.383,0,0,1,1.38-1.381h41.418a1.383,1.383,0,0,1,1.381,1.381v5.522a1.383,1.383,0,0,1-1.381,1.381H362.7a1.381,1.381,0,0,0,0,2.761h33.134a1.383,1.383,0,0,1,1.381,1.381v5.522a1.381,1.381,0,1,0,2.761,0v-5.522a4.113,4.113,0,0,0-1.077-2.761,4.113,4.113,0,0,0,1.077-2.761v-5.523a4.113,4.113,0,0,0-1.077-2.761,4.114,4.114,0,0,0,1.077-2.761v-5.523a4.148,4.148,0,0,0-4.142-4.143H354.417a4.148,4.148,0,0,0-4.142,4.143v5.522a4.113,4.113,0,0,0,1.077,2.761,4.114,4.114,0,0,0-1.077,2.761v2.761A1.382,1.382,0,0,0,351.656,302.231Zm1.38-15.186a1.383,1.383,0,0,1,1.381-1.381h41.418a1.383,1.383,0,0,1,1.381,1.381v5.522a1.383,1.383,0,0,1-1.381,1.381H354.417a1.383,1.383,0,0,1-1.381-1.381Z" transform="translate(-6.24)" fill="#fff"/>
      <path id="Path_9289" data-name="Path 9289" d="M392.971,320.461a1.381,1.381,0,0,0,0,2.761h11.044a1.381,1.381,0,0,0,0-2.761Z" transform="translate(-17.181 -10.019)" fill="#fff"/>
      <path id="Path_9290" data-name="Path 9290" d="M393.6,333.04a8.966,8.966,0,0,0-10.276-4.746l-8.913,2.236c-.4-3.449-2.427-5.484-6.494-6.508L344.058,318.7c.074-.524.132-1.024.173-1.49a1.387,1.387,0,0,0-.422-1.125c-2.358-2.242-11.781-2.968-14.614-3.136a1.416,1.416,0,0,0-1.022.373,1.382,1.382,0,0,0-.432,1.005v24.851a1.379,1.379,0,0,0,1.375,1.381h8.249a1.376,1.376,0,0,0,1.306-.95c.036-.114.225-.693.506-1.593l19.7,6.6a15.76,15.76,0,0,0,5.7,1.383c2.788,0,6.055-1.226,13.232-4.177l15.124-6.9a1.387,1.387,0,0,0,.663-1.878ZM336.361,337.8H330.49V315.81c4.419.351,9.188,1.113,10.923,1.958C340.682,323.815,337.384,334.556,336.361,337.8Zm40.359,1.483c-11.56,4.757-11.964,4.605-16.917,2.727l-19.818-6.632c1.13-3.758,2.7-9.333,3.605-13.95l23.69,5.285c3.044.762,4.27,1.969,4.438,4.49l-2.639.662a6.892,6.892,0,0,1-3.016.072l-11.932-2.4a1.379,1.379,0,0,0-.536,2.706l11.931,2.4a9.626,9.626,0,0,0,1.887.185,9.5,9.5,0,0,0,2.335-.287l3.687-.926h.017l10.534-2.644a6.246,6.246,0,0,1,6.366,2.087Z" transform="translate(0 -8.096)" fill="#fff"/>
      <path id="Path_9291" data-name="Path 9291" d="M357.788,306.818a1.381,1.381,0,1,0,1.38-1.38A1.381,1.381,0,0,0,357.788,306.818Z" transform="translate(-8.052 -6.012)" fill="#fff"/>
      <path id="Path_9292" data-name="Path 9292" d="M404.015,308.2a1.381,1.381,0,1,0,0-2.761H392.971a1.381,1.381,0,1,0,0,2.761Z" transform="translate(-17.181 -6.012)" fill="#fff"/>
    </g>
  </g>
</svg>
