<svg xmlns="http://www.w3.org/2000/svg" width="85.383" height="76.444" viewBox="0 0 85.383 76.444">
  <g id="swi5" transform="translate(-918 -4790)">
    <g id="bg">
      <path id="Path_11153" data-name="Path 11153" d="M425.78,200.649q.248-1.2.377-2.393a30.38,30.38,0,0,0-10.8-26.153c-21.26-17.595-60.593-9.064-71.317,16.449-4.4,10.458-1.081,22.554,4.447,32.492,2.559,4.6,5.655,9.04,9.913,12.241,7.412,5.571,17.684,6.708,26.769,4.47C401.255,233.795,422.284,217.463,425.78,200.649Z" transform="translate(575.986 4627.168)" fill="#cdd9e7" opacity="0.05"/>
      <g id="Group_4124" data-name="Group 4124" transform="translate(-11371 1346)" opacity="0.07">
        <line id="Line_70" data-name="Line 70" y2="72.259" transform="translate(12318.552 3447.118)" fill="none" stroke="#edeff3" stroke-linecap="round" stroke-width="1"/>
        <line id="Line_71" data-name="Line 71" y2="74.753" transform="translate(12333.642 3444.624)" fill="none" stroke="#edeff3" stroke-linecap="round" stroke-width="1"/>
        <line id="Line_72" data-name="Line 72" y2="66.023" transform="translate(12348.732 3445.871)" fill="none" stroke="#edeff3" stroke-linecap="round" stroke-width="1"/>
        <line id="Line_73" data-name="Line 73" y2="43.65" transform="translate(12363.906 3454.601)" fill="none" stroke="#edeff3" stroke-linecap="round" stroke-width="1"/>
      </g>
      <g id="Group_4125" data-name="Group 4125" transform="translate(-11371 1346)" opacity="0.07">
        <line id="Line_70-2" data-name="Line 70" x2="54.328" transform="translate(12304.589 3504.426)" fill="none" stroke="#edeff3" stroke-linecap="round" stroke-width="1"/>
        <line id="Line_71-2" data-name="Line 71" x2="64.851" transform="translate(12305.291 3489.475)" fill="none" stroke="#edeff3" stroke-linecap="round" stroke-width="1"/>
        <line id="Line_72-2" data-name="Line 72" x2="68.592" transform="translate(12305.291 3474.525)" fill="none" stroke="#edeff3" stroke-linecap="round" stroke-width="1"/>
        <line id="Line_73-2" data-name="Line 73" x2="62.357" transform="translate(12305.291 3459.574)" fill="none" stroke="#edeff3" stroke-linecap="round" stroke-width="1"/>
      </g>
    </g>
    <g id="icon" transform="translate(582.698 4529.143)">
      <path id="Path_9273" data-name="Path 9273" d="M385.3,314.7v3.257a1.15,1.15,0,1,0,2.3,0V314.7a1.15,1.15,0,0,0-2.3,0Z" transform="translate(-13.34 -8.343)" fill="#fff"/>
      <path id="Path_9274" data-name="Path 9274" d="M391.553,314.7v2.218a1.15,1.15,0,1,0,2.3,0V314.7a1.15,1.15,0,0,0-2.3,0Z" transform="translate(-15.008 -8.341)" fill="#fff"/>
      <path id="Path_9275" data-name="Path 9275" d="M379.052,314.7v4.6a1.15,1.15,0,1,0,2.3,0v-4.6a1.15,1.15,0,0,0-2.3,0Z" transform="translate(-11.672 -8.346)" fill="#fff"/>
      <path id="Path_9276" data-name="Path 9276" d="M391.053,332.61a5.751,5.751,0,1,0,5.75,5.75A5.757,5.757,0,0,0,391.053,332.61Zm0,9.2a3.45,3.45,0,1,1,3.45-3.451A3.454,3.454,0,0,1,391.053,341.811Z" transform="translate(-13.403 -13.484)" fill="#fff"/>
      <path id="Path_9277" data-name="Path 9277" d="M400.517,331.929a1.163,1.163,0,0,0-.619-.679,1.144,1.144,0,0,0-.92-.009,1.107,1.107,0,0,1-1.1-1.912,1.156,1.156,0,0,0,.173-1.679,12.5,12.5,0,0,0-6.991-4.081,1.134,1.134,0,0,0-.909.2,1.15,1.15,0,0,0-.46.807,1.114,1.114,0,0,1-2.222,0,1.138,1.138,0,0,0-.46-.807,1.151,1.151,0,0,0-.908-.2,12.5,12.5,0,0,0-6.991,4.081,1.156,1.156,0,0,0,.172,1.679,1.106,1.106,0,0,1-1.1,1.912,1.151,1.151,0,0,0-1.539.687,11.76,11.76,0,0,0,0,8.078,1.153,1.153,0,0,0,1.539.69,1.106,1.106,0,0,1,1.1,1.912,1.147,1.147,0,0,0-.45.8,1.133,1.133,0,0,0,.28.876,12.513,12.513,0,0,0,6.988,4.081,1.149,1.149,0,0,0,1.368-1.009,1.112,1.112,0,0,1,2.22,0,1.138,1.138,0,0,0,.46.807,1.153,1.153,0,0,0,.683.225.954.954,0,0,0,.226-.025,12.486,12.486,0,0,0,6.988-4.08,1.154,1.154,0,0,0-.17-1.68,1.121,1.121,0,0,1-.333-1.466h0a1.121,1.121,0,0,1,1.433-.445,1.156,1.156,0,0,0,.92-.01,1.143,1.143,0,0,0,.619-.681,11.77,11.77,0,0,0,0-8.076Zm-1.9,6.374a3.558,3.558,0,0,0-3.073,1.69,3.408,3.408,0,0,0,.069,3.5,10.227,10.227,0,0,1-4.018,2.366,3.4,3.4,0,0,0-6.042,0,10.2,10.2,0,0,1-4.019-2.366,3.386,3.386,0,0,0-3-5.192,9.107,9.107,0,0,1,0-4.67,3.388,3.388,0,0,0,3-5.192,10.226,10.226,0,0,1,4.017-2.367,3.4,3.4,0,0,0,6.043,0,10.2,10.2,0,0,1,4.019,2.367,3.411,3.411,0,0,0-.07,3.5,3.343,3.343,0,0,0,3.076,1.692,9.493,9.493,0,0,1,.305,2.334A9.3,9.3,0,0,1,398.619,338.3Z" transform="translate(-10.928 -11.091)" fill="#fff"/>
      <path id="Path_9278" data-name="Path 9278" d="M363.991,314.36H341.027a3.441,3.441,0,0,1-3.438-3.435v-4.58a3.44,3.44,0,0,1,3.438-3.435h43.541a3.44,3.44,0,0,1,3.437,3.435v4.58a3.392,3.392,0,0,1-.472,1.7,1.146,1.146,0,1,0,1.989,1.138,5.658,5.658,0,0,0,.78-2.839v-4.581a5.735,5.735,0,0,0-5.729-5.724H358.218v-2.29h26.354a5.735,5.735,0,0,0,5.729-5.724v-4.58a5.735,5.735,0,0,0-5.729-5.725H341.031a5.733,5.733,0,0,0-5.729,5.725v4.58a5.733,5.733,0,0,0,5.729,5.724h14.9v2.289h-14.9a5.733,5.733,0,0,0-5.729,5.725v4.58a5.733,5.733,0,0,0,5.729,5.725h14.9v2.29h-1.146a1.146,1.146,0,0,0-1.145,1.145v1.145H352.49a1.145,1.145,0,0,0-1.145,1.145v1.145H341.031a1.145,1.145,0,1,0,0,2.289h10.313v1.145a1.145,1.145,0,0,0,1.145,1.145h9.166a1.145,1.145,0,0,0,1.146-1.145v-4.579a1.146,1.146,0,0,0-1.146-1.145H360.51v-1.145a1.146,1.146,0,0,0-1.146-1.145h-1.145v-2.29H364a1.145,1.145,0,0,0-.007-2.29Zm-22.96-18.32a3.439,3.439,0,0,1-3.438-3.435v-4.58a3.439,3.439,0,0,1,3.438-3.435h43.541a3.442,3.442,0,0,1,3.437,3.435v4.58a3.442,3.442,0,0,1-3.437,3.435Zm18.333,27.479h1.145v2.289h-6.875V323.52h1.146a1.146,1.146,0,0,0,1.145-1.145V321.23h2.292v1.145A1.147,1.147,0,0,0,359.365,323.52Z" fill="#fff"/>
      <path id="Path_9279" data-name="Path 9279" d="M398.952,288.551a1.151,1.151,0,0,0-1.15,1.151v4.6a1.15,1.15,0,0,0,2.3,0v-4.6A1.151,1.151,0,0,0,398.952,288.551Z" transform="translate(-16.702 -1.65)" fill="#fff"/>
      <path id="Path_9280" data-name="Path 9280" d="M397.8,314.7v3.257a1.15,1.15,0,1,0,2.3,0V314.7a1.15,1.15,0,0,0-2.3,0Z" transform="translate(-16.702 -8.343)" fill="#fff"/>
      <path id="Path_9281" data-name="Path 9281" d="M341.553,317a3.45,3.45,0,1,0,3.45-3.45A3.454,3.454,0,0,0,341.553,317Zm4.6,0a1.15,1.15,0,1,1-1.15-1.15A1.154,1.154,0,0,1,346.153,317Z" transform="translate(-1.65 -8.346)" fill="#fff"/>
      <path id="Path_9282" data-name="Path 9282" d="M392.7,288.551a1.15,1.15,0,0,0-1.15,1.151v4.6a1.15,1.15,0,0,0,2.3,0v-4.6A1.151,1.151,0,0,0,392.7,288.551Z" transform="translate(-15.008 -1.65)" fill="#fff"/>
      <path id="Path_9283" data-name="Path 9283" d="M386.452,288.551a1.151,1.151,0,0,0-1.15,1.151v4.6a1.15,1.15,0,0,0,2.3,0v-4.6A1.151,1.151,0,0,0,386.452,288.551Z" transform="translate(-13.34 -1.65)" fill="#fff"/>
      <path id="Path_9284" data-name="Path 9284" d="M345,288.551A3.45,3.45,0,1,0,348.454,292,3.453,3.453,0,0,0,345,288.551Zm0,4.6a1.15,1.15,0,1,1,1.15-1.15A1.15,1.15,0,0,1,345,293.151Z" transform="translate(-1.65 -1.65)" fill="#fff"/>
      <path id="Path_9285" data-name="Path 9285" d="M380.2,288.551a1.151,1.151,0,0,0-1.15,1.151v4.6a1.15,1.15,0,0,0,2.3,0v-4.6A1.15,1.15,0,0,0,380.2,288.551Z" transform="translate(-11.672 -1.65)" fill="#fff"/>
    </g>
  </g>
</svg>
