<svg xmlns="http://www.w3.org/2000/svg" width="85.383" height="76" viewBox="0 0 85.383 76">
  <g id="swi6" transform="translate(-1298 -4791)">
    <g id="bg">
      <path id="Path_11153" data-name="Path 11153" d="M425.78,200.649q.248-1.2.377-2.393a30.38,30.38,0,0,0-10.8-26.153c-21.26-17.595-60.593-9.064-71.317,16.449-4.4,10.458-1.081,22.554,4.447,32.492,2.559,4.6,5.655,9.04,9.913,12.241,7.412,5.571,17.684,6.708,26.769,4.47C401.255,233.795,422.284,217.463,425.78,200.649Z" transform="translate(955.986 4628.168)" fill="#cdd9e7" opacity="0.05"/>
      <g id="Group_4124" data-name="Group 4124" transform="translate(-10991 1347)" opacity="0.07">
        <line id="Line_70" data-name="Line 70" y2="72.259" transform="translate(12318.552 3447.118)" fill="none" stroke="#edeff3" stroke-linecap="round" stroke-width="1"/>
        <line id="Line_71" data-name="Line 71" y2="74.753" transform="translate(12333.642 3444.624)" fill="none" stroke="#edeff3" stroke-linecap="round" stroke-width="1"/>
        <line id="Line_72" data-name="Line 72" y2="66.023" transform="translate(12348.732 3445.871)" fill="none" stroke="#edeff3" stroke-linecap="round" stroke-width="1"/>
        <line id="Line_73" data-name="Line 73" y2="43.65" transform="translate(12363.906 3454.601)" fill="none" stroke="#edeff3" stroke-linecap="round" stroke-width="1"/>
      </g>
      <g id="Group_4125" data-name="Group 4125" transform="translate(-10991 1347)" opacity="0.07">
        <line id="Line_70-2" data-name="Line 70" x2="54.328" transform="translate(12304.589 3504.426)" fill="none" stroke="#edeff3" stroke-linecap="round" stroke-width="1"/>
        <line id="Line_71-2" data-name="Line 71" x2="64.851" transform="translate(12305.291 3489.475)" fill="none" stroke="#edeff3" stroke-linecap="round" stroke-width="1"/>
        <line id="Line_72-2" data-name="Line 72" x2="68.592" transform="translate(12305.291 3474.525)" fill="none" stroke="#edeff3" stroke-linecap="round" stroke-width="1"/>
        <line id="Line_73-2" data-name="Line 73" x2="62.357" transform="translate(12305.291 3459.574)" fill="none" stroke="#edeff3" stroke-linecap="round" stroke-width="1"/>
      </g>
    </g>
    <g id="icon" transform="translate(962.699 4529.201)">
      <path id="Path_9267" data-name="Path 9267" d="M395.395,332.622a3.45,3.45,0,0,0-3.446-3.446H357.5a3.449,3.449,0,0,0-3.445,3.446v4.593a3.421,3.421,0,0,0,.9,2.3,3.424,3.424,0,0,0-.9,2.3V346.4a3.45,3.45,0,0,0,3.445,3.446h34.453a3.451,3.451,0,0,0,3.446-3.446v-4.594a3.421,3.421,0,0,0-.9-2.3,3.418,3.418,0,0,0,.9-2.3Zm-2.3,13.78a1.15,1.15,0,0,1-1.149,1.149H357.5a1.15,1.15,0,0,1-1.148-1.149v-4.594a1.151,1.151,0,0,1,1.148-1.149h34.453a1.151,1.151,0,0,1,1.149,1.149Zm0-9.187a1.15,1.15,0,0,1-1.149,1.149H357.5a1.15,1.15,0,0,1-1.148-1.149v-4.593a1.15,1.15,0,0,1,1.148-1.149h34.453a1.15,1.15,0,0,1,1.149,1.149Zm0,0" transform="translate(-5.094 -12.547)" fill="#fff"/>
      <path id="Path_9268" data-name="Path 9268" d="M398.762,335.426h-9.187a1.148,1.148,0,0,0,0,2.3h9.187a1.148,1.148,0,1,0,0-2.3Zm0,0" transform="translate(-14.203 -14.171)" fill="#fff"/>
      <path id="Path_9269" data-name="Path 9269" d="M398.762,347.925h-9.187a1.149,1.149,0,0,0,0,2.3h9.187a1.149,1.149,0,0,0,0-2.3Zm0,0" transform="translate(-14.203 -17.515)" fill="#fff"/>
      <path id="Path_9270" data-name="Path 9270" d="M361.449,347.925a1.149,1.149,0,1,0,1.149,1.149,1.15,1.15,0,0,0-1.149-1.149Zm0,0" transform="translate(-6.668 -17.515)" fill="#fff"/>
      <path id="Path_9271" data-name="Path 9271" d="M361.449,335.426a1.148,1.148,0,1,0,1.149,1.148,1.149,1.149,0,0,0-1.149-1.148Zm0,0" transform="translate(-6.668 -14.171)" fill="#fff"/>
      <path id="Path_9272" data-name="Path 9272" d="M349.27,313.117c-.11-1.1-.136-2.214-.163-3.327h11.4v3.436a1.146,1.146,0,1,0,2.291,0V309.79h11.4c-.028,1.091-.053,2.183-.161,3.258a1.146,1.146,0,0,0,1.029,1.251,1.161,1.161,0,0,0,1.253-1.029c.112-1.145.14-2.316.17-3.479h9.172a24.556,24.556,0,0,1-.346,3.236,1.144,1.144,0,1,0,2.25.417,26.352,26.352,0,1,0-52.265-4.815c0,.007,0,.011,0,.015s0,.012,0,.016A26.261,26.261,0,0,0,344.923,329a1.121,1.121,0,0,0,.727.262,1.15,1.15,0,0,0,.731-2.034,24.137,24.137,0,0,1-3.61-3.69h2.842a1.145,1.145,0,0,0,0-2.291h-4.455a23.967,23.967,0,0,1-3.5-11.454h9.154c.029,1.187.059,2.379.177,3.548a1.141,1.141,0,0,0,1.137,1.034c.037,0,.076,0,.117,0a1.145,1.145,0,0,0,1.024-1.252Zm36.39-5.617h-9.145a43.383,43.383,0,0,0-1.725-11.454h7.325A23.851,23.851,0,0,1,385.66,307.5Zm-5.142-13.745h-6.507a22.893,22.893,0,0,0-4.861-7.956,24.108,24.108,0,0,1,11.368,7.956ZM362.8,284.708c3.458.628,6.556,4.055,8.657,9.047H362.8Zm0,11.337h9.509a40.106,40.106,0,0,1,1.918,11.454H362.8Zm-2.291-11.337v9.047H351.85c2.1-4.991,5.2-8.418,8.657-9.047ZM346.79,307.5h-9.136a23.85,23.85,0,0,1,3.545-11.454h7.316A43.415,43.415,0,0,0,346.79,307.5ZM342.8,293.755A24.133,24.133,0,0,1,354.15,285.8a22.914,22.914,0,0,0-4.856,7.951Zm8.2,2.291h9.51V307.5H349.082A40.135,40.135,0,0,1,351,296.046Zm0,0" transform="translate(0)" fill="#fff"/>
    </g>
  </g>
</svg>
