<svg id="testimonial-quote2" xmlns="http://www.w3.org/2000/svg" width="47.273" height="40" viewBox="0 0 47.273 40">
  <path id="Path_11184" data-name="Path 11184" d="M207.541,229.358H213.9a2.717,2.717,0,0,1,2.728,2.727v.909a7.276,7.276,0,0,1-7.273,7.273h-1.818a1.842,1.842,0,0,0-1.818,1.818v3.637a1.843,1.843,0,0,0,1.818,1.819h1.818A14.175,14.175,0,0,0,215,246.389a14.409,14.409,0,0,0,7.755-7.756,14.163,14.163,0,0,0,1.151-5.639v-20a5.43,5.43,0,0,0-5.455-5.455H207.541a5.43,5.43,0,0,0-5.455,5.455V223.9a5.433,5.433,0,0,0,5.455,5.455Z" transform="translate(-176.632 -207.54)" fill="#007bfc"/>
  <path id="Path_11185" data-name="Path 11185" d="M241.859,227.767a5.258,5.258,0,0,0,3.863,1.591h6.364a2.715,2.715,0,0,1,2.727,2.727v.909a7.275,7.275,0,0,1-7.273,7.273h-1.817a1.843,1.843,0,0,0-1.819,1.818v3.637a1.844,1.844,0,0,0,1.819,1.819h1.817a14.179,14.179,0,0,0,5.641-1.151,14.414,14.414,0,0,0,7.755-7.756,14.175,14.175,0,0,0,1.151-5.639v-20a5.43,5.43,0,0,0-5.455-5.455H245.723a5.43,5.43,0,0,0-5.454,5.455V223.9A5.258,5.258,0,0,0,241.859,227.767Z" transform="translate(-240.269 -207.54)" fill="#007bfc"/>
</svg>
