<svg xmlns="http://www.w3.org/2000/svg" width="206.662" height="50" viewBox="0 0 206.662 50">
  <g id="logo" transform="translate(18949.205 17548)">
    <g id="Group_5664" data-name="Group 5664" transform="translate(-18949.205 -17548)">
      <path id="Path_14362" data-name="Path 14362" d="M357.82,442.578h4.821a11.228,11.228,0,0,0,.007-22.456,11.113,11.113,0,0,0-11-9.87,10.953,10.953,0,0,0-2.326.249,13.274,13.274,0,0,1,1.077,3.277,7.519,7.519,0,0,1,1.248-.1,7.662,7.662,0,0,1,7.649,7.666v.281a7.637,7.637,0,0,1-.245,1.922h3.587a7.806,7.806,0,0,1,0,15.613H357.32" transform="translate(-314.194 -404.264)" fill="#03a87c"/>
      <path id="Path_14365" data-name="Path 14365" d="M1.79,0A1.776,1.776,0,0,1,3.566,1.779L3.555,20.108A1.777,1.777,0,1,1,0,20.11L.012,1.781A1.781,1.781,0,0,1,1.79,0Z" transform="translate(27.543 24.404) rotate(-18.956)" fill="#03a87c"/>
      <path id="Path_14366" data-name="Path 14366" d="M1.79,0A1.776,1.776,0,0,1,3.566,1.779L3.555,20.108A1.777,1.777,0,1,1,0,20.11L.012,1.781A1.781,1.781,0,0,1,1.79,0Z" transform="translate(38.419 25.279) rotate(-18.956)" fill="#03a87c"/>
      <path id="Path_14367" data-name="Path 14367" d="M1.785,0A1.776,1.776,0,0,1,3.562,1.779L3.555,12.731a1.781,1.781,0,0,1-1.778,1.781h0A1.776,1.776,0,0,1,0,12.734L.007,1.781A1.781,1.781,0,0,1,1.785,0Z" transform="matrix(0.946, -0.325, 0.325, 0.946, 18.753, 28.573)" fill="#03a87c"/>
      <path id="Path_14368" data-name="Path 14368" d="M1.778,0h0A1.776,1.776,0,0,1,3.555,1.779h0A1.777,1.777,0,1,1,1.778,0Z" transform="translate(35.175 46.633) rotate(-18.956)" fill="#03a87c"/>
      <path id="Path_14363" data-name="Path 14363" d="M278.119,449.423a11.249,11.249,0,0,0,11.2,11.228h10.568l-1.216-3.421h-9.352a7.79,7.79,0,0,1-6.3-12.366H279.1A11.129,11.129,0,0,0,278.119,449.423Z" transform="translate(-276.944 -423.634)" fill="#03a87c"/>
      <path id="Path_14364" data-name="Path 14364" d="M331.537,407.145q-.1-.46-.238-.908a11.937,11.937,0,0,0-15.337-7.859v3.714a8.454,8.454,0,0,1,3.883-.948,8.58,8.58,0,0,1,7.687,4.82q.147.3.271.611t.231.66h3.527Z" transform="translate(-296.74 -397.722)" fill="#03a87c"/>
      <rect id="Rectangle_4732" data-name="Rectangle 4732" width="4.866" height="4.876" transform="translate(0 4.363)" fill="#03a87c"/>
      <rect id="Rectangle_4733" data-name="Rectangle 4733" width="7.382" height="7.397" transform="translate(2.241 10.347)" fill="#03a87c"/>
      <rect id="Rectangle_4734" data-name="Rectangle 4734" width="7.382" height="7.397" transform="translate(6.562 5.54)" fill="#03a87c"/>
      <rect id="Rectangle_4735" data-name="Rectangle 4735" width="4.866" height="4.876" transform="translate(11.839 13.909)" fill="#03a87c"/>
    </g>
    <text id="Hostpack" transform="translate(-18880.543 -17512.93)" font-size="32" font-family="Lato-Black, Lato" letter-spacing="0.008em" font-weight="800"><tspan x="0" y="0">Host</tspan><tspan y="0" font-family="Lato-Regular, Lato" font-weight="400">pack</tspan></text>
  </g>
</svg>
