<svg xmlns="http://www.w3.org/2000/svg" width="260" height="65" viewBox="0 0 260 65">
  <g id="logo" transform="translate(18949.205 17548)">
    <g id="Group_5664" data-name="Group 5664" transform="translate(-18949.205 -17548)">
      <path id="Path_14362" data-name="Path 14362" d="M359.875,450.395h5.987a13.943,13.943,0,0,0,.008-27.886,13.8,13.8,0,0,0-13.657-12.257,13.6,13.6,0,0,0-2.888.309,16.486,16.486,0,0,1,1.338,4.069,9.34,9.34,0,0,1,1.55-.128,9.514,9.514,0,0,1,9.5,9.52v.35a9.483,9.483,0,0,1-.3,2.387h4.454a9.694,9.694,0,0,1,0,19.388h-6.609" transform="translate(-305.7 -402.817)" fill="#03a87c"/>
      <path id="Path_14365" data-name="Path 14365" d="M2.223,0A2.205,2.205,0,0,1,4.429,2.209l-.014,22.76a2.207,2.207,0,1,1-4.414,0L.014,2.212A2.212,2.212,0,0,1,2.223,0Z" transform="translate(34.203 33.214) rotate(-18.956)" fill="#03a87c"/>
      <path id="Path_14366" data-name="Path 14366" d="M2.223,0A2.205,2.205,0,0,1,4.429,2.209l-.014,22.76a2.207,2.207,0,1,1-4.414,0L.014,2.212A2.212,2.212,0,0,1,2.223,0Z" transform="translate(47.708 34.3) rotate(-18.956)" fill="#03a87c"/>
      <path id="Path_14367" data-name="Path 14367" d="M2.217,0A2.205,2.205,0,0,1,4.423,2.209l-.009,13.6a2.212,2.212,0,0,1-2.208,2.212h0A2.205,2.205,0,0,1,0,15.812l.009-13.6A2.212,2.212,0,0,1,2.217,0Z" transform="matrix(0.946, -0.325, 0.325, 0.946, 23.288, 38.392)" fill="#03a87c"/>
      <path id="Path_14368" data-name="Path 14368" d="M2.208,0h0A2.205,2.205,0,0,1,4.414,2.209h0A2.207,2.207,0,1,1,2.208,0Z" transform="translate(43.68 60.818) rotate(-18.956)" fill="#03a87c"/>
      <path id="Path_14363" data-name="Path 14363" d="M278.119,450.525a13.968,13.968,0,0,0,13.913,13.942h13.123l-1.51-4.248H292.032a9.673,9.673,0,0,1-7.828-15.356h-4.868A13.82,13.82,0,0,0,278.119,450.525Z" transform="translate(-276.66 -416.696)" fill="#03a87c"/>
      <path id="Path_14364" data-name="Path 14364" d="M335.3,409.423q-.127-.571-.3-1.128a14.823,14.823,0,0,0-19.046-9.759v4.612a10.5,10.5,0,0,1,4.822-1.177,10.654,10.654,0,0,1,9.545,5.986q.183.372.337.759.159.4.287.82h4.38Z" transform="translate(-292.093 -397.722)" fill="#03a87c"/>
      <rect id="Rectangle_4732" data-name="Rectangle 4732" width="6.042" height="6.055" transform="translate(0 5.418)" fill="#03a87c"/>
      <rect id="Rectangle_4733" data-name="Rectangle 4733" width="9.167" height="9.186" transform="translate(2.783 13.555)" fill="#03a87c"/>
      <rect id="Rectangle_4734" data-name="Rectangle 4734" width="9.167" height="9.186" transform="translate(8.149 6.88)" fill="#03a87c"/>
      <rect id="Rectangle_4735" data-name="Rectangle 4735" width="6.043" height="6.055" transform="translate(14.701 18.168)" fill="#03a87c"/>
    </g>
    <text id="Hostpack" transform="translate(-18865.205 -17504.186)" font-size="41" font-family="Lato-Black, Lato" letter-spacing="0.008em" font-weight="800"><tspan x="0" y="0">Host</tspan><tspan y="0" font-family="Lato-Regular, Lato" font-weight="400">pack</tspan></text>
  </g>
</svg>
