<svg xmlns="http://www.w3.org/2000/svg" width="214.496" height="55" viewBox="0 0 214.496 55">
  <g id="logo" transform="translate(18949.205 17548)">
    <g id="Group_5664" data-name="Group 5664" transform="translate(-18949.205 -17548)">
      <path id="Path_14362" data-name="Path 14362" d="M358.295,444.383h5.09a11.855,11.855,0,0,0,.007-23.71,11.733,11.733,0,0,0-11.612-10.421,11.564,11.564,0,0,0-2.456.263,14.015,14.015,0,0,1,1.137,3.46,7.943,7.943,0,0,1,1.318-.109,8.09,8.09,0,0,1,8.076,8.094v.3a8.064,8.064,0,0,1-.259,2.03h3.787a8.242,8.242,0,0,1,0,16.484h-5.619" transform="translate(-312.233 -403.93)" fill="#00c3ff"/>
      <path id="Path_14365" data-name="Path 14365" d="M1.89,0A1.875,1.875,0,0,1,3.765,1.878L3.753,21.23a1.877,1.877,0,1,1-3.753,0L.012,1.881A1.881,1.881,0,0,1,1.89,0Z" transform="translate(29.081 27.975) rotate(-18.956)" fill="#00c3ff"/>
      <path id="Path_14366" data-name="Path 14366" d="M1.89,0A1.875,1.875,0,0,1,3.765,1.878L3.753,21.23a1.877,1.877,0,1,1-3.753,0L.012,1.881A1.881,1.881,0,0,1,1.89,0Z" transform="translate(40.564 28.899) rotate(-18.956)" fill="#00c3ff"/>
      <path id="Path_14367" data-name="Path 14367" d="M1.885,0A1.875,1.875,0,0,1,3.76,1.878L3.753,13.442a1.881,1.881,0,0,1-1.878,1.881h0A1.875,1.875,0,0,1,0,13.444L.007,1.881A1.881,1.881,0,0,1,1.885,0Z" transform="matrix(0.946, -0.325, 0.325, 0.946, 19.8, 32.377)" fill="#00c3ff"/>
      <path id="Path_14368" data-name="Path 14368" d="M1.878,0h0A1.875,1.875,0,0,1,3.753,1.878h0A1.877,1.877,0,1,1,1.878,0Z" transform="translate(37.139 51.445) rotate(-18.956)" fill="#00c3ff"/>
      <path id="Path_14363" data-name="Path 14363" d="M278.119,449.677a11.876,11.876,0,0,0,11.829,11.854h11.158l-1.284-3.612h-9.874a8.224,8.224,0,0,1-6.656-13.057h-4.139A11.75,11.75,0,0,0,278.119,449.677Z" transform="translate(-276.878 -421.079)" fill="#00c3ff"/>
      <path id="Path_14364" data-name="Path 14364" d="M332.406,407.671q-.108-.485-.252-.959a12.6,12.6,0,0,0-16.194-8.3v3.921a8.926,8.926,0,0,1,4.1-1,9.059,9.059,0,0,1,8.116,5.089q.156.316.287.645t.244.7h3.724Z" transform="translate(-295.667 -397.722)" fill="#00c3ff"/>
      <rect id="Rectangle_4732" data-name="Rectangle 4732" width="5.137" height="5.148" transform="translate(0 4.607)" fill="#00c3ff"/>
      <rect id="Rectangle_4733" data-name="Rectangle 4733" width="7.794" height="7.81" transform="translate(2.366 11.461)" fill="#00c3ff"/>
      <rect id="Rectangle_4734" data-name="Rectangle 4734" width="7.794" height="7.81" transform="translate(6.929 5.849)" fill="#00c3ff"/>
      <rect id="Rectangle_4735" data-name="Rectangle 4735" width="5.138" height="5.148" transform="translate(12.499 15.366)" fill="#00c3ff"/>
    </g>
    <text id="Hostpack" transform="translate(-18876.709 -17511.756)" fill="#00c3ff" font-size="33" font-family="Lato-Black, Lato" letter-spacing="0.008em" font-weight="800"><tspan x="0" y="0">Host</tspan><tspan y="0" font-family="Lato-Regular, Lato" font-weight="400">pack</tspan></text>
  </g>
</svg>
